/* XPM */
static char *b27f7f206fdf4363d5a5dd1225a65262AWKInbNlA8SVb46H[] = {
/* columns rows colors chars-per-pixel */
"50 50 218 2 ",
"   c None",
".  c #010101",
"X  c #0C0202",
"o  c #010609",
"O  c #050909",
"+  c #130404",
"@  c #1D0404",
"#  c #1A090B",
"$  c #001309",
"%  c #070A13",
"&  c #1A0D12",
"*  c #0E1315",
"=  c #08151D",
"-  c #141014",
";  c #250908",
":  c #29170A",
">  c #3B110E",
",  c #2A0E14",
"<  c #230D14",
"1  c #281318",
"2  c #3B1A15",
"3  c #3A1519",
"4  c #350F13",
"5  c #00321A",
"6  c #002E1A",
"7  c #342219",
"8  c #3B2C13",
"9  c #0A1B24",
"0  c #151624",
"q  c #1D1D35",
"w  c #14242D",
"e  c #132731",
"r  c #1A2D39",
"t  c #192636",
"y  c #1C323E",
"u  c #062626",
"i  c #332323",
"p  c #262839",
"a  c #2F2022",
"s  c #481817",
"d  c #5B1F1A",
"f  c #521B18",
"g  c #4B180A",
"h  c #482718",
"j  c #57341D",
"k  c #513316",
"l  c #642511",
"z  c #65231A",
"x  c #782C18",
"c  c #431B21",
"v  c #491D22",
"b  c #4E2123",
"n  c #482921",
"m  c #5A2424",
"M  c #572728",
"N  c #473128",
"B  c #573626",
"V  c #5B3A36",
"C  c #572D3B",
"Z  c #642B2B",
"A  c #682B29",
"S  c #752924",
"D  c #6D352B",
"F  c #79372A",
"G  c #642B31",
"H  c #7E393D",
"J  c #763638",
"K  c #6A3933",
"L  c #00462A",
"P  c #47441E",
"I  c #4E4520",
"U  c #554E24",
"Y  c #5C4134",
"T  c #575125",
"R  c #764529",
"E  c #66582A",
"W  c #784A38",
"Q  c #6B5A32",
"!  c #6C5039",
"~  c #776836",
"^  c #1D3441",
"/  c #153E46",
"(  c #0B3F43",
")  c #2B2B47",
"_  c #2E3251",
"`  c #363A59",
"'  c #303045",
"]  c #613443",
"[  c #0B4E4A",
"{  c #006851",
"}  c #007453",
"|  c #00684E",
" . c #3B4366",
".. c #345E7A",
"X. c #38607D",
"o. c #754C42",
"O. c #795141",
"+. c #715757",
"@. c #4C547A",
"#. c #464E74",
"$. c #675968",
"%. c #8D361E",
"&. c #812E2A",
"*. c #85322E",
"=. c #833D3C",
"-. c #9A3934",
";. c #923522",
":. c #A23F29",
">. c #844339",
",. c #925935",
"<. c #895434",
"1. c #A6412C",
"2. c #B64732",
"3. c #B5472E",
"4. c #916838",
"5. c #A7663C",
"6. c #823C45",
"7. c #9A494A",
"8. c #835B49",
"9. c #945148",
"0. c #8D5E50",
"q. c #A24D4D",
"w. c #A95B49",
"e. c #A95751",
"r. c #BD5B5E",
"t. c #8A6457",
"y. c #936A52",
"u. c #B26D42",
"i. c #B97345",
"p. c #A1725C",
"a. c #A8735F",
"s. c #AD7550",
"d. c #BC5A60",
"f. c #866868",
"g. c #977779",
"h. c #9D766D",
"j. c #A87864",
"k. c #B17B65",
"l. c #C97E4C",
"z. c #C4675A",
"x. c #CE7554",
"c. c #D47D55",
"v. c #C55F61",
"b. c #CD6462",
"n. c #CA6462",
"m. c #D46B63",
"M. c #DC7562",
"N. c #D77A6D",
"B. c #D1776A",
"V. c #E47A65",
"C. c #E87867",
"Z. c #AC904D",
"A. c #BBAC57",
"S. c #B8836A",
"D. c #D99A58",
"F. c #CF8750",
"G. c #E28C55",
"H. c #E9925A",
"J. c #C98B71",
"K. c #DB8379",
"L. c #D8997E",
"P. c #E88967",
"I. c #F38868",
"U. c #FC9269",
"Y. c #FF9B6A",
"T. c #FB9866",
"R. c #EC8C7C",
"E. c #F5917E",
"W. c #F08E7B",
"Q. c #DFB562",
"!. c #FFA36C",
"~. c #FFAE6D",
"^. c #FFA464",
"/. c #ECBB67",
"(. c #FFB26E",
"). c #FFB86E",
"_. c #F3BA67",
"`. c #FFB571",
"'. c #FFBB72",
"]. c #FFBC78",
"[. c #FFA670",
"{. c #D0A859",
"}. c #D1C464",
"|. c #EAC66A",
" X c #E9D56F",
".X c #FEC773",
"XX c #EBD870",
"oX c #FDD877",
"OX c #FCC56D",
"+X c #FFE57C",
"@X c #3F6786",
"#X c #535A82",
"$X c #5E6A95",
"%X c #4E7291",
"&X c #4E6B8E",
"*X c #646E9B",
"=X c #616994",
"-X c #6A7393",
";X c #6C76A1",
":X c #7D88A1",
">X c #AF8786",
",X c #828BA3",
"<X c #8B93AC",
"1X c #939AB5",
"2X c #9499B4",
"3X c #C19088",
"4X c #E19F83",
"5X c #FB9B86",
"6X c #FBA58C",
"7X c #FFAD91",
"8X c #FFB395",
"9X c #FAB79B",
"0X c #EDAC91",
"qX c #FFBDA2",
"wX c #FFC5A3",
"eX c #FFCAA6",
"rX c #FFCDA9",
"tX c #FFD2AD",
/* pixels */
"                                                                                                    ",
"                                                                                                    ",
"                                                                                                    ",
"                                                                                                    ",
"                                          . ~ XX X X_.Y.R .                                         ",
"                                        E XXOX(.).(.oX+X)./.XXT                                     ",
"                                    T /.^.'.(.~.(.(.(.(.oX.X(..XU                                   ",
"                                  j ^.!.I.(.(.(.(.(.(.~.(.oX.XoXT                                   ",
"                              k 5.. : # M b.V.M.U.(.(.(.~.oX4.: .                                   ",
"                            P Z.E Q.G.H.,.X @ Z b.V.C.>.: : p.0XN                                   ",
"                            j F.P +X(.`.^.D.}.~ X J Z 8.4X4Xg.$.` %                                 ",
"                              ; U +X~.(.(.)..X_.}.Q o.9Xp.7 ' >X0XN                                 ",
"                                j .X~.(.(.(.~.'.s.8.8Xp.K x.B - L.V                                 ",
"                                h U.(.(.Y.U.(.`.<.8.tXO.X 2 5.{.Q j.B                               ",
"                            1 D 3 I.(.(.P.M.'.i.O.0XeXf.t.+.a D.|.~ X                               ",
"                          Z.q.H 2 V.U.(.!.P.I.D 8.tX3X>Xt.j.$.i k W ,                               ",
"                        h ].e.+ 3 n.M.U.(.U.b.M K 8Xg.>X! p.g.f.S.B.2                               ",
"                          j 3   + M n.M.Y.U.J M Z k.9Xg.h.h.>XqXtXE.2                               ",
"                                    G d.m.w.b x.R K 8X0XqX+.i Y V n X                               ",
"                                      3 J Z b C.c.D e.a.Y ,.5.5.u.u.Z.8                             ",
"                                      . X v 7.z.m.c.D R 5.H.].i.R R |.I                             ",
"                                  n p.p.p.o.J r.M.~.F.G.`.`.i.3 # . A.I         l x X               ",
"                              7 y.J.rXeXtXy.4 v.V.!.`.(.(.`.B . + . A.I     l l 1.2.+               ",
"                          1 y.S.rXwXwXwXwX4XK H b.V.I.Y.(.(.l.,.,.,.|.P g l :.2.f > X               ",
"                        0.k.rXeXwXwXwXwXwXeXJ.b =.b.v.I.(.(.(.`.`.`.+XP x 2.d > X                   ",
"          &.          j.tXeX9X5X5X5X7XwXwXwX6XA c d.H w.!.(.(.(.(.~..Xk ; s X                       ",
"          s >       F P.a.6XN.A A A 9.6XwXwX5X7.c 6.c M U.!.!.(.(.(.(.k                             ",
"          X *.>   l 3.;.s D M 3 b 3 Z K.wXwX8XN.H v # b V.w.z.~.(.(.'.k                             ",
"            f s l 2.*.s f M 0.R.W.K.N.W.eXwXwX8XN.6.v b 7.s J I.!.(.l.2                             ",
"            . l 1.f > . >.7XrXwXwXeX8XW.7XwXwX9XW.C.q., 3 # J b.Y.[.h                               ",
"              x s . . + 9.j.J.eXeXwXwX7XW.6X7XB.J >.h     . 3 7.I.w.,                               ",
"              . ; .   g ; ; n k.j.L.eXeX8Xz.=.m @ .           s H 4                                 ",
"              X d @ + %.-.-.S @ @ B S.k.S.O.@ f m +                                                 ",
"                + S . - z d S -.-.S @ ; @ s *.Z #                                                   ",
"                + d < 9 o o & z z A F F *.m < , X                                                   ",
"                  + &.# e ^ e o o O , , , # o o $ $                                                 ",
"                  + S S # e ^ ^ ^ w o o o 9 ^ y [ L o                                               ",
"                    X S f % w e y y ^ ^ ^ y y y / { L o                                             ",
"    p :X            . . % t . % r y y y y y y y y / { L o                                           ",
"    1X..            e o _  .) q % r y y y r r r r r [ } 5                                           ",
"    1XX.            9 = @.$X ._ 0 % y r w * * * * 0 ( } 5                                           ",
"    1X@X`           = @.*X$X@.0 . * * * * O . . o O u | 6                                           ",
"    1X&X=X`        .#.*X@.p t . % .               1 1 u =                                           ",
"    ,X%X$X$X_ _ ` *X*X#Xt .                     . 1 ] <                                             ",
"      ,X%X$X*X*X*X*X#X0                         1 C C &                                             ",
"      % ,X%X;X*X*X$Xq .                         1 ] 1                                               ",
"        - <X<X%X;X=X) O                         1 C <                                               ",
"            0 2X2X2X2X-X                                                                            ",
"                                                                                                    ",
"                                                                                                    "
};
