/* XPM */
static char *df454ab8317a4495d836fee49ddba6835DComGo8Y4qQBWiv[] = {
/* columns rows colors chars-per-pixel */
"50 50 218 2 ",
"   c None",
".  c #010101",
"X  c #0C0202",
"o  c #010609",
"O  c #050909",
"+  c #130404",
"@  c #1D0404",
"#  c #1A090B",
"$  c #001309",
"%  c #070A13",
"&  c #1A0D12",
"*  c #0E1315",
"=  c #08151D",
"-  c #141014",
";  c #250908",
":  c #29170A",
">  c #3B110E",
",  c #2A0E14",
"<  c #230D14",
"1  c #281318",
"2  c #3B1A15",
"3  c #3A1519",
"4  c #350F13",
"5  c #00321A",
"6  c #002E1A",
"7  c #342219",
"8  c #3B2C13",
"9  c #0A1B24",
"0  c #151624",
"q  c #1D1D35",
"w  c #14242D",
"e  c #132731",
"r  c #1A2D39",
"t  c #192636",
"y  c #1C323E",
"u  c #062626",
"i  c #332323",
"p  c #262839",
"a  c #2F2022",
"s  c #481817",
"d  c #5B1F1A",
"f  c #521B18",
"g  c #4B180A",
"h  c #482718",
"j  c #57341D",
"k  c #513316",
"l  c #642511",
"z  c #65231A",
"x  c #782C18",
"c  c #431B21",
"v  c #491D22",
"b  c #4E2123",
"n  c #482921",
"m  c #5A2424",
"M  c #572728",
"N  c #473128",
"B  c #573626",
"V  c #5B3A36",
"C  c #572D3B",
"Z  c #642B2B",
"A  c #682B29",
"S  c #752924",
"D  c #6D352B",
"F  c #79372A",
"G  c #642B31",
"H  c #7E393D",
"J  c #763638",
"K  c #6A3933",
"L  c #00462A",
"P  c #47441E",
"I  c #4E4520",
"U  c #554E24",
"Y  c #5C4134",
"T  c #575125",
"R  c #764529",
"E  c #66582A",
"W  c #784A38",
"Q  c #6B5A32",
"!  c #6C5039",
"~  c #776836",
"^  c #1D3441",
"/  c #153E46",
"(  c #0B3F43",
")  c #2B2B47",
"_  c #2E3251",
"`  c #363A59",
"'  c #303045",
"]  c #613443",
"[  c #0B4E4A",
"{  c #006851",
"}  c #007453",
"|  c #00684E",
" . c #3B4366",
".. c #345E7A",
"X. c #38607D",
"o. c #754C42",
"O. c #795141",
"+. c #715757",
"@. c #4C547A",
"#. c #464E74",
"$. c #675968",
"%. c #8D361E",
"&. c #812E2A",
"*. c #85322E",
"=. c #833D3C",
"-. c #9A3934",
";. c #923522",
":. c #A23F29",
">. c #844339",
",. c #925935",
"<. c #895434",
"1. c #A6412C",
"2. c #B64732",
"3. c #B5472E",
"4. c #916838",
"5. c #A7663C",
"6. c #823C45",
"7. c #9A494A",
"8. c #835B49",
"9. c #945148",
"0. c #8D5E50",
"q. c #A24D4D",
"w. c #A95B49",
"e. c #A95751",
"r. c #BD5B5E",
"t. c #8A6457",
"y. c #936A52",
"u. c #B26D42",
"i. c #B97345",
"p. c #A1725C",
"a. c #A8735F",
"s. c #AD7550",
"d. c #BC5A60",
"f. c #866868",
"g. c #977779",
"h. c #9D766D",
"j. c #A87864",
"k. c #B17B65",
"l. c #C97E4C",
"z. c #C4675A",
"x. c #CE7554",
"c. c #D47D55",
"v. c #C55F61",
"b. c #CD6462",
"n. c #CA6462",
"m. c #D46B63",
"M. c #DC7562",
"N. c #D77A6D",
"B. c #D1776A",
"V. c #E47A65",
"C. c #E87867",
"Z. c #AC904D",
"A. c #BBAC57",
"S. c #B8836A",
"D. c #D99A58",
"F. c #CF8750",
"G. c #E28C55",
"H. c #E9925A",
"J. c #C98B71",
"K. c #DB8379",
"L. c #D8997E",
"P. c #E88967",
"I. c #F38868",
"U. c #FC9269",
"Y. c #FF9B6A",
"T. c #FB9866",
"R. c #EC8C7C",
"E. c #F5917E",
"W. c #F08E7B",
"Q. c #DFB562",
"!. c #FFA36C",
"~. c #FFAE6D",
"^. c #FFA464",
"/. c #ECBB67",
"(. c #FFB26E",
"). c #FFB86E",
"_. c #F3BA67",
"`. c #FFB571",
"'. c #FFBB72",
"]. c #FFBC78",
"[. c #FFA670",
"{. c #D0A859",
"}. c #D1C464",
"|. c #EAC66A",
" X c #E9D56F",
".X c #FEC773",
"XX c #EBD870",
"oX c #FDD877",
"OX c #FCC56D",
"+X c #FFE57C",
"@X c #3F6786",
"#X c #535A82",
"$X c #5E6A95",
"%X c #4E7291",
"&X c #4E6B8E",
"*X c #646E9B",
"=X c #616994",
"-X c #6A7393",
";X c #6C76A1",
":X c #7D88A1",
">X c #AF8786",
",X c #828BA3",
"<X c #8B93AC",
"1X c #939AB5",
"2X c #9499B4",
"3X c #C19088",
"4X c #E19F83",
"5X c #FB9B86",
"6X c #FBA58C",
"7X c #FFAD91",
"8X c #FFB395",
"9X c #FAB79B",
"0X c #EDAC91",
"qX c #FFBDA2",
"wX c #FFC5A3",
"eX c #FFCAA6",
"rX c #FFCDA9",
"tX c #FFD2AD",
/* pixels */
"                                                                                                    ",
"                                                                                                    ",
"                                                                                                    ",
"                                                                                                    ",
"                                        . R Y._. X XXX~ .                                           ",
"                                    T XX/.).+XoX).).).OXXXE                                         ",
"                                  U .X)..XoX).).~.(.~.).'.^./.T                                     ",
"                                  T oX.XoX(.~.(.(.(.(.(.(.I.!.^.j                                   ",
"                                  . : 4.oX(.(.(.(.U.M.V.m.M # : . 5.k                               ",
"                                  N 0Xp.: : >.C.V.b.G @ X ,.H.G.Q.E Z.P                             ",
"                                % ` $.g.4X4X8.Z J X ~ }.D.^.(.(.+XP F.j                             ",
"                                N 0X>X' 7 p.9Xo.Q }._..X).(.(.~.+XU ;                               ",
"                                V L.- B x.K p.8X8.s.'.~.(.(.(.~..Xj                                 ",
"                              B j.Q {.5.2 X O.tX8.<.`.(.U.Y.(.(.U.h                                 ",
"                              X ~ |.D.a +.t.f.eX0X8.i.'.M.P.(.(.I.2 D 1                             ",
"                              ; W k i $.j.t.>X3XtX8.D I.P.!.(.U.V.2 H q.Z.                          ",
"                              2 B.S.f.g.p.! >Xg.8XK M b.U.).U.M.n.3 + e.].h                         ",
"                              2 E.tXqX>Xh.h.g.9Xk.Z M J U.Y.M.n.M +   3 j                           ",
"                              . n V Y i +.qX0X8XK R x.b w.m.d.G                                     ",
"                            8 Z.u.u.5.5.,.Y a.e.D c.C.m Z J 3                                       ",
"                            I |.R R i.].H.5.R D c.m.z.7.v . .                                       ",
"              X x l         I A.. # 2 i.`.`.G.F.~.M.r.J o.p.p.p.n                                   ",
"              + 2.1.l l     I A.. + . B `.(.(.`.!.V.v.4 y.tXeXrXJ.y.7                               ",
"              X > f 2.:.l g P |.,.,.,.l.(.(.Y.I.V.b.H Y 4XwXwXwXwXrXS.y.1                           ",
"                  . > d 2.x P +X`.`.`.(.(.(.I.v.b.=.b J.eXwXwXwXwXwXeXrXk.0.                        ",
"                      X s ; k .X~.(.(.(.(.!.w.H d.c A 6XwXwXwX7X5X5X5X9XrXtXj.          &.          ",
"                            k `.(.(.(.!.!.U.M c 6.c 7.5XwXwX6X9.Z A Z N.6Xa.P.F       > s           ",
"                            k '.(.(.~.z.w.V.M # v H N.7XwXwXK.G 3 b 3 M D s ;.3.l   > *..           ",
"                            8 l.(.!.I.J s 7.b v =.N.8XwXwXeXW.N.K.W.R.0.M f f *.2.l f f             ",
"                              h [.Y.b.J # 3 , q.C.W.9XwXwX7XW.8XeXwXwXrX7X>.. > f 1.l .             ",
"                              ; w.I.7.3 .     h >.J B.7X6XW.7XwXwXeXeXJ.j.9.+ . . s x               ",
"                                4 H s           . @ m =.z.8XeXeXL.j.k.n ; ; g   . ; .               ",
"                                                + m f @ O.S.k.S.B @ @ S -.-.%.+ @ d X               ",
"                                                  # Z *.s @ ; @ S -.-.S d z - . S +                 ",
"                                                  X , < m *.F F A z z & o o 9 < d +                 ",
"                                                $ $ o o & , , , O o o e ^ e # &.+                   ",
"                                              o L [ y ^ 9 o o o w ^ ^ ^ e # S S +                   ",
"                                            o L { / y y y ^ ^ ^ y y e w % f S X                     ",
"                                          o L { / y y y y y y y y t % . t % . .             :Xp     ",
"                                          5 } [ r r r r r y y y t % q )  ._ o e             ..1X    ",
"                                          5 } ( 0 * * * * w r y % 0 _  .$X@.= 9             X.1X    ",
"                                          6 | u O o . . O * * * * . 0 @.$X*X@.=           ` @X1X    ",
"                                          = u 1 1               . % . t p @.*X#. .      ` =X&X1X    ",
"                                            < ] 1 .                     . t #X*X*X` _ _ $X$X%X,X    ",
"                                            & C C 1                         0 @.*X*X*X*X$X%X,X      ",
"                                              1 ] 1                         . q $X*X*X;X%X,X%       ",
"                                              < C 1                         O ) =X;X%X<X<X*         ",
"                                                                            -X2X2X2X2X0             ",
"                                                                                                    ",
"                                                                                                    "
};
