/* XPM */
static char *_771a757588b41a0ec376abd1153be56n28klz89vuvwtlzE[] = {
/* columns rows colors chars-per-pixel */
"29 50 250 2 ",
"   c #060506",
".  c #140C0E",
"X  c #2C0600",
"o  c #381617",
"O  c #271E11",
"+  c #182119",
"@  c #1F2907",
"#  c #31270C",
"$  c #051B24",
"%  c #14192A",
"&  c #251E27",
"*  c #261832",
"=  c #1B2737",
"-  c #112832",
";  c #27262A",
":  c #2A2735",
">  c #382D39",
",  c #34343A",
"<  c #2F2F2E",
"1  c #580A0A",
"2  c #4D1316",
"3  c #6B100D",
"4  c #78271B",
"5  c #501D2A",
"6  c #6B1929",
"7  c #563D23",
"8  c #463430",
"9  c #6A3829",
"0  c #51320D",
"q  c #384035",
"w  c #7B5A1C",
"e  c #58493A",
"r  c #534D32",
"t  c #654C25",
"y  c #77552A",
"u  c #6B4B38",
"i  c #796229",
"p  c #6E6B13",
"a  c #1B2B4C",
"s  c #08335D",
"d  c #1D335A",
"f  c #272C44",
"g  c #342D45",
"h  c #393647",
"j  c #303853",
"k  c #073D64",
"l  c #103A77",
"z  c #273A65",
"x  c #433B53",
"c  c #403D4E",
"v  c #443C6F",
"b  c #37424C",
"n  c #3E5753",
"m  c #134875",
"M  c #374B67",
"N  c #45454A",
"B  c #444254",
"V  c #4A4557",
"C  c #594A55",
"Z  c #555752",
"A  c #695847",
"S  c #6E524F",
"D  c #5C6154",
"F  c #79684C",
"G  c #786857",
"H  c #6F6C54",
"J  c #53536B",
"K  c #585767",
"L  c #524C69",
"P  c #665569",
"I  c #635C76",
"U  c #556375",
"Y  c #65666A",
"T  c #766967",
"R  c #767766",
"E  c #656574",
"W  c #736A75",
"Q  c #77797B",
"!  c #880A15",
"~  c #8D0D0D",
"^  c #A41311",
"/  c #81201A",
"(  c #941B26",
")  c #802625",
"_  c #AF1C23",
"`  c #CF1713",
"'  c #DC2911",
"]  c #D62D27",
"[  c #FB3434",
"{  c #EC2B35",
"}  c #EC1D20",
"|  c #976717",
" . c #8F6A18",
".. c #895B39",
"X. c #957228",
"o. c #876539",
"O. c #906A2C",
"+. c #A5762B",
"@. c #AA7C1E",
"#. c #92594F",
"$. c #856A54",
"%. c #8D7450",
"&. c #AC7556",
"*. c #877864",
"=. c #9B7D67",
"-. c #887977",
";. c #AD796B",
":. c #B48F1A",
">. c #9B8337",
",. c #948829",
"<. c #AA8727",
"1. c #B88D2B",
"2. c #B69828",
"3. c #AF9230",
"4. c #A5A31C",
"5. c #C79629",
"6. c #D09634",
"7. c #CAA42A",
"8. c #D8B335",
"9. c #E9B738",
"0. c #F3AC33",
"q. c #E29F2E",
"w. c #F8C73B",
"e. c #FBD83A",
"r. c #E9C932",
"t. c #F9E73D",
"y. c #ECE53D",
"u. c #9A8858",
"i. c #AC8557",
"p. c #8B887C",
"a. c #94886B",
"s. c #A98A69",
"d. c #AF936E",
"f. c #B3A679",
"g. c #CD9D42",
"h. c #DAA644",
"j. c #DEB541",
"k. c #EAB946",
"l. c #F7B543",
"z. c #EFAD49",
"x. c #C7926F",
"c. c #CFB17E",
"v. c #E19363",
"b. c #F8C745",
"n. c #FCD948",
"m. c #F8DA56",
"M. c #EECD4C",
"N. c #FCEB4D",
"B. c #F9E748",
"V. c #FFF24B",
"C. c #F9F646",
"Z. c #FDE956",
"A. c #F8F555",
"S. c #FBEB63",
"D. c #195C99",
"F. c #134B88",
"G. c #2B5690",
"H. c #2E669A",
"J. c #1C5FA5",
"K. c #2F5DAA",
"L. c #156AAE",
"P. c #2966A8",
"I. c #2E72AC",
"U. c #2669B3",
"Y. c #326FB0",
"T. c #166D98",
"R. c #79758E",
"E. c #7A7A97",
"W. c #7F6686",
"Q. c #6B6294",
"!. c #2E71C5",
"~. c #477FD6",
"^. c #867B98",
"/. c #827983",
"(. c #798692",
"). c #2C83DC",
"_. c #3C83E2",
"`. c #858886",
"'. c #94948C",
"]. c #958796",
"[. c #939494",
"{. c #8D8A92",
"}. c #A59A89",
"|. c #A19998",
" X c #A38D83",
".X c #9AA59F",
"XX c #B3A58D",
"oX c #9492A3",
"OX c #A8A9A7",
"+X c #B9B9B7",
"@X c #B1B1AD",
"#X c #9DA4AB",
"$X c #C7A989",
"%X c #C7A995",
"&X c #D8AD98",
"*X c #DBB38E",
"=X c #F8AA8E",
"-X c #E8BC89",
";X c #E4BC96",
":X c #F9BD95",
">X c #F5AD8C",
",X c #CBB6AB",
"<X c #C9988A",
"1X c #B7C8B9",
"2X c #DCC792",
"3X c #EAC998",
"4X c #FBC999",
"5X c #F7D798",
"6X c #EECF94",
"7X c #FAE39A",
"8X c #EAE49A",
"9X c #E8C4A2",
"0X c #F7CAA5",
"qX c #FEDBAC",
"wX c #FDD7A7",
"eX c #FFD9B5",
"rX c #EDD9A6",
"tX c #F7E9A7",
"yX c #FDE5B3",
"uX c #FBE7B9",
"iX c #FFFBBA",
"pX c #D8CEAF",
"aX c #BCBBC0",
"sX c #C4B2C0",
"dX c #B2C6CA",
"fX c #C9CCCA",
"gX c #D2C8CD",
"hX c #C4D2C9",
"jX c #D8D9D7",
"kX c #CBD0DD",
"lX c #EBDBD4",
"zX c #FCEBC9",
"xX c #F5F5CF",
"cX c #DFD7E2",
"vX c #D1D2EA",
"bX c #E0DBE8",
"nX c #EAEDEA",
"mX c #FDFDED",
"MX c #F9F4EC",
"NX c #EDFAFA",
"BX c #F4F3F3",
"VX c #F5FDF4",
"CX c #FCFCF5",
"ZX c #F6F5FB",
"AX c #FDF5FE",
"SX c #F5FDFD",
"DX c #FDFDFD",
"FX c #FBF7F4",
"GX c #EDEEF1",
"HX c #D2EAE0",
/* pixels */
"DXDXDXDXDXDXDXDXSXDXDXbX+X[.p.a.'..XjXDXSXDX+XhXSXAXDXVXmX",
"DXVXVXCXDXDXSXSXDXcXG o.<.2.8.h.5.3.>.$.gXmXXX8 ,XCXxXCXDX",
"DXDXDXDXSXVXDXAXCX`.n r w q.w.e.N.e.B.M.X. XbX,.y bXDXDXDX",
"CXDXZXDXSXZXDXmXdX`.u.3.2.k.b.b.C.C.S.V.V.4.C i.7.{.SXDXDX",
"SXNXVXVXVXDXgXp.X.6.l.n.A.A.A.N.N.N.B.V.S.C.3.1.r.R SXMXDX",
"DXDXCX-./.G  .5.e.t.A.A.y.V.N.A.V.Z.Z.t.N.C.S.B.8.R DXDXDX",
"CXBXDX*.| 0.n.m.B.n.M.n.N.V.t.t.A.t.B.N.t.V.Z.A.7.y ].DXFX",
"mXSXSXjX%.g.7.9.z.9.r.t.N.M.Z.N.A.n.w.A.A.n.B.N.m.r.,.R DX",
"SXDXCXAXkXe :.k.l.w.r.k.l.9.n.B.C.X.8.B.C.8.g.B.k.l.e.@.OX",
"DXkX#XxXH 0.b.8.l.0.w.k.+.z.n.N.O.0 m.M.V. .| M.<.q.y >.R ",
"hXp i , p k.0.9.w.b.5.| h.r.j.O.o @.b.Z.<.S 3.h.0 l.u.[.Z ",
"1Xo.o.&X'.# h.0.<.9 t 1.2.| ..#...9.7. .&.x.| o.#.q.,.ZXcX",
"CXE =.uX9Xa.w b.6.X. .t ;.x.x.8 i ..o.<X5XA 7 :Xi.+.p.mXDX",
"^.H D F t ;X*.X.0.e.2.&.4Xv.t . #.-X5XqX>X>X3X-Xd.o kXDXSX",
"p.uXd.A -Xe c.o.1.Z.<.&.=X*Xc.*.+ d.uXrXqX2X: =.O.7 HXDXDX",
"uXwXXXF 3Xs.  8 i B.3.&.4XeX0X}.oX. XXeX4XA < ;.+.>.vXCXDX",
"F s.-XqX7Xd.* < @ 2.2.&.wX6X0X8   =.:XwX9X-.Z 7 :.u.cXDXVX",
"% ; %X5X5X7 O r o i 8...:XqXeXf.&.uX8X6XqX*X$.;.2.%.DXDXDX",
"K , , N x . # # @Xe | o.=X4X4XtX&Xx.0X9X4XtXwXA O.XXZXDXDX",
"'.g K P E.Q.Z Y -.GXq   r x.:XwXqX*Xx.3XyX4X%.; A CXDXCXDX",
"nXg V J I ; K DXB Q *.  ( ! 9 #.d.$X3X3Xs.S |.[.BXDXBXFXDX",
"DXW + , r f.-. X}.s.*X*.! } _ ~ ~ / ) 4 1 C DXSXDXDXDXDXDX",
"SXjXH rX7XeXzXzXtXyXxXs.$ ~ { ] ' } [ { 4 F OXDXZXZXZXDXDX",
"DXDX-.$XyXeXyX7X3Xx.F & D.d 3 ` { ] { ~ %.zX$.fXCXDXDXSXDX",
"DXSXnXA %X$Xs.*.R {.1 o T.!.m O ! ' ( $ a.yX3XH NXDXVXVXDX",
"ZXDXDXjXT  X@XjXDXdX~ 5 T.K.U.P.z o d m e 6XxXd.`.DXVXDXDX",
"DXDXSXSXDXDXDXDXDXR.^ 5 L.K.I.K.U.J._.M OX;.*XwXF jXDXVXDX",
"CXDXSXDXBXDXDXNXVXA ` 2 s d F.!.I.P.F.= + S zXxXd.}.DXDXmX",
"DXCXDXDXDXSXVXCXnX4 ! r 9XpX= k d g V U P h pXzXrXG ZXVXCX",
"DXZXDXDXDXDXDXDXfX1 u xX%X%X6X&.& K ^.E.E.z A iXXXT DXCXDX",
"SXDXDXDXDXDXSXDX+XX f.x.  ,X4X0X;X8 L P L v C i.H MXDXDXDX",
"DXCXCXmXDXDXDXDX|.! 2 $ D tX*X4XyXu.f J L , = |.DXCXDXDXDX",
"DXDXDXDXDXSXDXDXp.1 z D.C 4XuX$X;X*X< B % K AXSXSXDXDXSXDX",
"DXDXDXDXDXCXBXDXW $ Y.I.m b u.; R e - - ; N lXSXSXDXSXDXDX",
"DXDXDXDXDXCXDXMXb H.H.P.!.= X x l F.U.Y.a h C BXCXCXDXDXDX",
"DXDXDXSXCXMXFX(.l !.H.L.l ~ _ `.M U.H.U.m h j D DXCXSXDXSX",
"DXCXDXDXDXDXkXd L.P.Y.H.. _ ` /.Y F.Y.J.!.a g O '.CXDXDXDX",
"DXCXDXDXSXDX(.k I.G.).> ( ! ' P 1Xk Y.D.Y.G.X y `.DXSXSXDX",
"DXCXDXSXDXDXU G.P.~.!.6 ] 1 [ / fXJ D.P.U._.z 8 BXDXBXDXDX",
"SXDXDXSXDXMXb s a a k 6 { 3 ^ 1 hX1Xk I.P.).D.. {.SXDXDXDX",
"DXDXDXSXDXnX: h V K h 2 { 2 R.jXmXDXU d G.d f W : [.DXCXDX",
"DXDXDXSXDXfX, J M W.E.5 { 6 HXCXDXSXNX= = j J ^.R.: aXSXSX",
"DXDXDXDXDX+Xh L J I E.> 3 u GXCXDXSXDX+X> L J E R.E N GXDX",
"DXDXDXDXDXOX. g : = f : 1XSXAXDXDXDXFXDX/.: c * : :   Q DX",
"DXDXDXBXDXK : B C P B $ fXAXAXDXDXDXDXVXDXV * B V K B : nX",
"DXDXDXSX|.: K K E.^.].b @XDXDXCXDXDXDXVXVXY x J I E.oXB OX",
"DXCXVXjX% h h c J J P = .XVXVXDXDXBXDXDXnX< h h V K I : Y ",
"DXDXDX@XK W I E Y E T K sXAXDXSXmXDXDXAXGXW Y Y Y Y Y Z .X",
"DXDXDXDXDXDXDXDXDXDXDXSXDXDXDXDXDXDXDXDXDXDXDXDXDXDXDXDXDX",
"DXDXDXDXDXDXDXDXDXDXDXSXDXDXDXDXDXDXDXDXDXDXDXDXDXDXSXSXSX"
};
