/* XPM */
static char *result[] = {
/* columns rows colors chars-per-pixel */
"50 50 165 2 ",
"   c #020102",
".  c #0B0304",
"X  c #05050B",
"o  c #0C0409",
"O  c #05090C",
"+  c #130505",
"@  c #12060B",
"#  c #180708",
"$  c #1B0A0D",
"%  c #190706",
"&  c #0A0611",
"*  c #0C0C14",
"=  c #0F0E19",
"-  c #000D1C",
";  c #170710",
":  c #1C0A12",
">  c #160B15",
",  c #0F151B",
"<  c #141113",
"1  c #13131D",
"2  c #1D151D",
"3  c #13181F",
"4  c #230B0C",
"5  c #2B110D",
"6  c #230C15",
"7  c #250D19",
"8  c #290D18",
"9  c #2A0E12",
"0  c #261110",
"q  c #2C1114",
"w  c #2C111C",
"e  c #24131D",
"r  c #331315",
"t  c #371814",
"y  c #351419",
"u  c #371818",
"i  c #3C1B1A",
"p  c #3A171B",
"a  c #0C1926",
"s  c #151222",
"d  c #161C23",
"f  c #1A1E26",
"g  c #1B1C2A",
"h  c #111F2A",
"j  c #1E1C30",
"k  c #2F1420",
"l  c #221821",
"z  c #331421",
"x  c #391726",
"c  c #351821",
"v  c #3C1924",
"b  c #3F1A29",
"n  c #201C31",
"m  c #1B232B",
"M  c #1E2430",
"N  c #1D2933",
"B  c #24252F",
"V  c #222334",
"C  c #222B34",
"Z  c #26273A",
"A  c #252E38",
"S  c #282A3C",
"D  c #282B33",
"F  c #26313A",
"G  c #2A343F",
"H  c #421E1A",
"J  c #5D3D0F",
"K  c #47221F",
"L  c #48211D",
"P  c #683900",
"I  c #451D23",
"U  c #491E24",
"Y  c #411B2D",
"T  c #4C2323",
"R  c #522722",
"E  c #562924",
"W  c #592B25",
"Q  c #53242A",
"!  c #562828",
"~  c #5C2B2B",
"^  c #5B272E",
"/  c #42302C",
"(  c #4C2132",
")  c #5E2A31",
"_  c #533A37",
"`  c #612E2A",
"'  c #63312C",
"]  c #6B342F",
"[  c #642C34",
"{  c #6A2E37",
"}  c #6D3432",
"|  c #6B3038",
" . c #713732",
".. c #753934",
"X. c #7C3C36",
"o. c #7E3E38",
"O. c #794039",
"+. c #2C3343",
"@. c #2D3944",
"#. c #303C47",
"$. c #303548",
"%. c #323D4A",
"&. c #35424E",
"*. c #364451",
"=. c #394554",
"-. c #3B4956",
";. c #3E4C5A",
":. c #3F505E",
">. c #414F5D",
",. c #43475D",
"<. c #41505F",
"1. c #694C45",
"2. c #7A4A42",
"3. c #455464",
"4. c #485768",
"5. c #4A5B6B",
"6. c #515F72",
"7. c #536073",
"8. c #576578",
"9. c #5A677C",
"0. c #813F39",
"q. c #874D00",
"w. c #894E00",
"e. c #865000",
"r. c #945700",
"t. c #85491B",
"y. c #A15D00",
"u. c #AE6600",
"i. c #BD6F00",
"p. c #B36606",
"a. c #B46610",
"s. c #834139",
"d. c #8B453B",
"f. c #8E4934",
"g. c #AD5E2C",
"h. c #BE6A22",
"j. c #C77315",
"k. c #DA7D1D",
"l. c #C87125",
"z. c #8C4B43",
"x. c #8F685E",
"c. c #A56A5F",
"v. c #AF6C61",
"b. c #A7796D",
"n. c #E78517",
"m. c #E38318",
"M. c #CB887B",
"N. c #616E84",
"B. c #67758B",
"V. c #6F7C96",
"C. c #717D97",
"Z. c #77839D",
"A. c #7E89A3",
"S. c #848EA9",
"D. c #8C96B4",
"F. c #8B98B4",
"G. c #909DB8",
"H. c #97A1BA",
"J. c #D79889",
"K. c #F0AF9C",
"L. c #F2B09E",
"P. c #FFBBA8",
"I. c #A5AFC8",
"U. c #A3ADC6",
"Y. c None",
/* pixels */
"Y.Y.Y.Y.Y.Y.Y.Y.Y.Y.Y.Y.Y.Y.Y.Y.Y.Y.Y.Y.Y.Y.Y.Y.Y.Y.Y.Y.Y.Y.Y.Y.Y.Y.Y.Y.Y.Y.Y.Y.Y.Y.Y.Y.Y.Y.Y.Y.Y.Y.",
"Y.Y.Y.Y.Y.Y.Y.Y.Y.Y.Y.Y.Y.Y.Y.Y.Y.Y.Y.Y.Y.Y.Y.Y.Y.Y.Y.Y.Y.Y.Y.Y.Y.Y.Y.Y.Y.Y.Y.Y.Y.Y.Y.Y.Y.Y.Y.Y.Y.Y.",
"Y.Y.Y.Y.Y.Y.Y.Y.Y.Y.Y.Y.Y.Y.Y.Y.Y.Y.Y.Y.Y.Y.Y.Y.Y.Y.Y.Y.Y.Y.Y.Y.Y.Y.Y.Y.Y.Y.Y.Y.Y.Y.Y.Y.Y.Y.Y.Y.Y.Y.",
"Y.Y.Y.Y.Y.Y.Y.Y.Y.Y.Y.Y.Y.+ . E ' ' ' ' ' ' E Y.Y.Y.Y.Y.Y.Y.Y.Y.Y.Y.Y.Y.Y.Y.Y.Y.Y.Y.Y.Y.Y.Y.Y.Y.Y.Y.",
"Y.Y.Y.Y.Y.Y.Y.Y.Y.Y.Y.Y.Y.] X.O.s.s.s.O.s.s.O. .Y.Y.Y.Y.Y.Y.Y.Y.Y.Y.Y.Y.Y.Y.Y.Y.Y.Y.Y.Y.Y.Y.Y.Y.Y.Y.",
"Y.Y.Y.Y.Y.Y.Y.Y.Y.Y.Y.Y.Y. .R  .s.~ ' s.X.[ T T i Y.Y.Y.Y.Y.Y.Y.Y.Y.Y.Y.Y.Y.Y.Y.Y.Y.Y.Y.Y.Y.Y.Y.Y.Y.",
"Y.Y.Y.Y.Y.Y.Y.Y.Y.Y.Y.Y.Y.q K X.T i ]  .T X   < x.Y.Y.Y.Y.Y.Y.Y.Y.Y.Y.Y.Y.Y.Y.Y.Y.Y.Y.Y.Y.Y.Y.Y.Y.Y.",
"Y.Y.Y.Y.Y.Y.Y.Y.Y.Y.Y.Y.Y.Y.' ..0 E } c 1.b./ J.L.Y.Y.Y.Y.Y.Y.Y.Y.Y.Y.Y.Y.Y.Y.Y.Y.Y.Y.Y.Y.Y.Y.Y.Y.Y.",
"Y.Y.Y.Y.Y.Y.Y.Y.Y.Y.Y.Y.Y.Y.  $ ~ ..q 1.P.L.M.J.b.Y.Y.Y.Y.Y.Y.Y.Y.Y.Y.Y.Y.Y.Y.Y.Y.Y.Y.Y.Y.Y.Y.Y.Y.Y.",
"Y.Y.Y.Y.Y.Y.Y.Y.Y.Y.Y.Y.Y.Y.u  .s.T q 2.M.v.z.c.. Y.Y.Y.Y.Y.Y.Y.Y.Y.Y.Y.Y.Y.Y.Y.Y.Y.Y.Y.Y.Y.Y.Y.Y.Y.",
"Y.Y.Y.Y.Y.Y.Y.Y.Y.Y.Y.Y.Y.Y. .O.| : + R ..X.X._ w   Y.Y.Y.Y.Y.Y.Y.Y.Y.Y.Y.D.D.D.Y.Y.Y.Y.Y.Y.Y.Y.Y.Y.",
"Y.Y.Y.Y.Y.Y.Y.Y.Y.Y.Y.Y.Y.Y.~ ) ( : 9 y i  .! o x X Y.Y.Y.Y.Y.Y.C.C.C.Z.A.U.U.I.G.Y.Y.Y.Y.Y.Y.Y.Y.Y.",
"Y.Y.Y.Y.Y.Y.Y.Y.Y.Y.Y.Y.Y.Y.5 w Y ( z 7 8 : 6 7 & Y.6.7.7.6.8.B.Z.S.S.H.H.D.F.F.Y.Y.Y.Y.Y.Y.Y.Y.Y.Y.",
"Y.Y.Y.Y.Y.Y.Y.Y.Y.Y.. t   t ..R w 7 7 o X 6 e C $.%.,.8.8.8.N.9.Y.Y.Y.Y.Y.Y.Y.Y.Y.Y.Y.Y.Y.Y.Y.Y.Y.Y.",
"Y.Y.Y.Y.Y.Y.Y.Y.4 E L 5 E O.s.s.' E E ! t.r.X +.+.+.Y.Y.Y.Y.Y.Y.Y.Y.Y.Y.Y.Y.Y.Y.Y.Y.Y.Y.Y.Y.Y.Y.Y.Y.",
"Y.Y.Y.Y.Y.    4 ..s.` % X.s.s.X.s.s.s.d.h.u.  Y.Y.Y.Y.Y.Y.Y.Y.Y.Y.Y.Y.Y.Y.Y.Y.Y.Y.Y.Y.Y.Y.Y.Y.Y.Y.Y.",
"Y.Y.Y.Y.* #.m 5 d.` + X.0.0.s.X.s.s...l.i.    Y.Y.Y.Y.Y.Y.Y.Y.Y.Y.Y.Y.Y.Y.Y.Y.Y.Y.Y.Y.Y.Y.Y.Y.Y.Y.Y.",
"Y.Y.Y.Y.+.;.M : R ` . O.X.0.O.0.O.o.g.p.J N m Y.Y.Y.Y.Y.Y.Y.Y.Y.Y.Y.Y.Y.Y.Y.Y.Y.Y.Y.Y.Y.Y.Y.Y.Y.Y.Y.",
"Y.Y.Y.Y.Y.X   X Y.5 ` s.s.O.O.0.o.X.k.y.- 5.*.Y.Y.Y.Y.Y.Y.Y.Y.Y.Y.Y.Y.Y.Y.Y.Y.Y.Y.Y.Y.Y.Y.Y.Y.Y.Y.Y.",
"Y.Y.Y.Y.Y.Y.Y.Y.Y.+ s.X.0.0.s.X.o.f.j.e.h 4.%.Y.Y.Y.Y.Y.Y.Y.Y.Y.Y.Y.Y.Y.Y.Y.Y.Y.Y.Y.Y.Y.Y.Y.Y.Y.Y.Y.",
"Y.Y.Y.Y.Y.Y.Y.Y.. H X.s.X.s.O.0.X.m.w.a 4.3.-.Y.Y.Y.Y.Y.Y.Y.Y.Y.Y.Y.Y.Y.Y.Y.Y.Y.Y.Y.Y.Y.Y.Y.Y.Y.Y.Y.",
"Y.Y.Y.Y.Y.Y.Y.Y.. L s.X.0.O.0.0.X.m.q.a 3.3.3.-.Y.Y.Y.Y.Y.Y.Y.Y.Y.Y.Y.Y.Y.Y.Y.Y.Y.Y.Y.Y.Y.Y.Y.Y.Y.Y.",
"Y.Y.Y.Y.Y.Y.Y., +.1 + 4 ] ..o.s.O.m.w.a 4.3.3.=.Y.Y.Y.Y.Y.Y.Y.Y.Y.Y.Y.Y.Y.Y.Y.Y.Y.Y.Y.Y.Y.Y.Y.Y.Y.Y.",
"Y.Y.Y.Y.Y.Y.Y.d 3.C .   . . ! ` [ a.P a 4.3.<.3.=.Y.Y.Y.Y.Y.Y.Y.Y.Y.Y.Y.Y.Y.Y.Y.Y.Y.Y.Y.Y.Y.Y.Y.Y.Y.",
"Y.Y.Y.Y.Y.Y.Y., V p Q   Y.  X & & d m +.3.3.3.3.;.Y.Y.Y.Y.Y.Y.Y.Y.Y.Y.Y.Y.Y.Y.Y.Y.Y.Y.Y.Y.Y.Y.Y.Y.Y.",
"Y.Y.Y.Y.Y.Y.Y.Y.# | Q   Y.  X g n S $.=.3.*.N 3.;.Y.Y.Y.Y.Y.Y.Y.Y.Y.Y.Y.Y.Y.Y.Y.Y.Y.Y.Y.Y.Y.Y.Y.Y.Y.",
"Y.Y.Y.Y.Y.Y.Y.Y.Y.4 [ U   Y.  . o o = j m < k s &.Y.Y.Y.Y.Y.Y.Y.Y.Y.Y.Y.Y.Y.Y.Y.Y.Y.Y.Y.Y.Y.Y.Y.Y.Y.",
"Y.Y.Y.Y.Y.Y.Y.Y.Y.. Q ) + Y.  r I I q .   : y ; : + Y.Y.Y.Y.Y.Y.Y.Y.Y.Y.Y.Y.Y.Y.Y.Y.Y.Y.Y.Y.Y.Y.Y.Y.",
"Y.Y.Y.Y.Y.Y.Y.Y.Y.Y.. [ [ q q       $ $ @ x . r y y m Y.Y.Y.Y.Y.Y.Y.Y.Y.Y.Y.Y.Y.Y.Y.Y.Y.Y.Y.Y.Y.Y.Y.",
"Y.Y.Y.Y.Y.Y.Y.Y.Y.Y.Y.9 [ { { U p $   @ w 2 G F F F <.@.Y.Y.Y.Y.Y.Y.Y.Y.Y.Y.Y.Y.Y.Y.Y.Y.Y.Y.Y.Y.Y.Y.",
"Y.Y.Y.Y.Y.Y.Y.Y.Y.Y.Y.Y.+ Q ~ 4 @ D d 6 w d 4.3.3.4.3.3.-.d Y.Y.Y.Y.Y.Y.Y.Y.Y.Y.Y.Y.Y.Y.Y.Y.Y.Y.Y.Y.",
"Y.Y.Y.Y.Y.Y.Y.Y.Y.Y.Y.Y.Y.Y.* * %.m 7 8 3 <.3.<.#.%.<.3.3.<.C X Y.Y.Y.Y.Y.Y.Y.Y.Y.Y.Y.Y.Y.Y.Y.Y.Y.Y.",
"Y.Y.Y.Y.Y.Y.Y.Y.Y.Y.Y.Y.Y.Y.=.3.@.l 7 l +.3.3.;.M = N ;.3.3.3.@., Y.Y.Y.Y.Y.Y.Y.Y.Y.Y.Y.Y.Y.Y.Y.Y.Y.",
"Y.Y.Y.Y.Y.Y.Y.Y.Y.Y.Y.Y.Y.Y.=.3.3 8 6 O G 3.3.3.<.V s s *.3.3.5.F   Y.Y.Y.Y.Y.Y.Y.Y.Y.Y.Y.Y.Y.Y.Y.Y.",
"Y.Y.Y.Y.Y.Y.Y.Y.Y.Y.Y.Y.Y.Y.#.d z : C m X $.>.3.<.V n X +.<.3.3.<.A Y.Y.Y.Y.Y.Y.Y.Y.Y.Y.Y.Y.Y.Y.Y.Y.",
"Y.Y.Y.Y.Y.Y.Y.Y.Y.Y.Y.Y.Y.Y.  . 8 2 @.G X n Z =.<.V j j X +.3.3.3.+.Y.Y.Y.Y.Y.Y.Y.Y.Y.Y.Y.Y.Y.Y.Y.Y.",
"Y.Y.Y.Y.Y.Y.Y.Y.Y.Y.Y.Y.Y.Y.  x @ F 5.C X n n n $.n n n s g *.3.3.@.Y.Y.Y.Y.Y.Y.Y.Y.Y.Y.Y.Y.Y.Y.Y.Y.",
"Y.Y.Y.Y.Y.Y.Y.Y.Y.Y.Y.Y.Y.Y.w : B -.4.A X n n n n n n n j X C 4.3.;.C Y.Y.Y.Y.Y.Y.Y.Y.Y.Y.Y.Y.Y.Y.Y.",
"Y.Y.Y.Y.Y.Y.Y.Y.Y.Y.Y.Y.Y.. x > & #.3.C & n n n n n n n n X A 3.3.3.&.Y.Y.Y.Y.Y.Y.Y.Y.Y.Y.Y.Y.Y.Y.Y.",
"Y.Y.Y.Y.Y.Y.Y.Y.Y.Y.Y.Y.  b . %.3.&.f s n n j n n n n n n X C 4.3.3.@.Y.Y.Y.Y.Y.Y.Y.Y.Y.Y.Y.Y.Y.Y.Y.",
"Y.Y.Y.Y.Y.Y.Y.Y.Y.Y.Y.Y.6 6 V ;.3.d * n n n n n n n j n 1 f &.3.3.3.&.Y.Y.Y.Y.Y.Y.Y.Y.Y.Y.Y.Y.Y.Y.Y.",
"Y.Y.Y.Y.Y.Y.Y.Y.Y.Y.Y.X b X -.3.C 1 j j n n n n n n n j X @.3.3.<.3.:.F Y.Y.Y.Y.Y.Y.Y.Y.Y.Y.Y.Y.Y.Y.",
"Y.Y.Y.Y.Y.Y.Y.Y.Y.Y.. x o &.3.3.f s n n n j n n n j n X +.<.3.3.3.3.3.=.Y.Y.Y.Y.Y.Y.Y.Y.Y.Y.Y.Y.Y.Y.",
"Y.Y.Y.Y.Y.Y.Y.Y.Y.Y.: w m ;.3.3.3.+.j n n n n n j n n   %.3.3.3.3.3.3.=.Y.Y.Y.Y.Y.Y.Y.Y.Y.Y.Y.Y.Y.Y.",
"Y.Y.Y.Y.Y.Y.Y.Y.Y.o b   :.3.<.3.3.=.S n n n n n n j = M ;.3.3.3.<.3.3.&.Y.Y.Y.Y.Y.Y.Y.Y.Y.Y.Y.Y.Y.Y.",
"Y.Y.Y.Y.Y.Y.Y.Y.O A 2 &.<.3.3.3.3.3.$.n j n g n n = @.3.3.3.;.;.:.#.< * Y.Y.Y.Y.Y.Y.Y.Y.Y.Y.Y.Y.Y.Y.",
"Y.Y.Y.Y.Y.Y.Y.Y.@ 2 &.3.3.3.3.3.3.3.3.%.Z Z Z +.<.;.3.&.%.&.m Y.Y.Y.^ Y.Y.Y.Y.Y.Y.Y.Y.Y.Y.Y.Y.Y.Y.Y.",
"Y.Y.Y.Y.Y.Y.Y.4 | T   A F F F A ,.4.4.3.3.3.>.A F F A O Y.Y.Y.Y.Y.Y.Y.Y.Y.Y.Y.Y.Y.Y.Y.Y.Y.Y.Y.Y.Y.Y.",
"Y.Y.Y.Y.Y.Y.Y.4 Q 9 p r Y.Y.Y.Y., m d f d m d Y.Y.Y.Y.Y.Y.Y.Y.Y.Y.Y.Y.Y.Y.Y.Y.Y.Y.Y.Y.Y.Y.Y.Y.Y.Y.Y.",
"Y.Y.Y.Y.Y.Y.Y.6 ) Q | ) Y.Y.Y.Y.Y.Y.Y.Y.Y.Y.Y.Y.Y.Y.Y.Y.Y.Y.Y.Y.Y.Y.Y.Y.Y.Y.Y.Y.Y.Y.Y.Y.Y.Y.Y.Y.Y.Y."
};
