/* XPM */
static char *result[] = {
/* columns rows colors chars-per-pixel */
"50 50 170 2 ",
"   c #030203",
".  c #0C0406",
"X  c #05050B",
"o  c #0B040A",
"O  c #09090E",
"+  c #14060C",
"@  c #160A0E",
"#  c #190809",
"$  c #0A0D13",
"%  c #0D0B18",
"&  c #170710",
"*  c #180710",
"=  c #1C0A14",
"-  c #180C18",
";  c #0E151B",
":  c #0C1016",
">  c #111017",
",  c #12111E",
"<  c #12181F",
"1  c #220B0E",
"2  c #301A03",
"3  c #220C16",
"4  c #240E19",
"5  c #290E1A",
"6  c #2C1314",
"7  c #23131D",
"8  c #2C111D",
"9  c #20181A",
"0  c #261114",
"q  c #341816",
"w  c #321519",
"e  c #3C171C",
"r  c #3A1A1A",
"t  c #301513",
"y  c #141522",
"u  c #181526",
"i  c #161D25",
"p  c #1A1B23",
"a  c #171528",
"s  c #191728",
"d  c #1C1B2D",
"f  c #1E1B30",
"g  c #231C26",
"h  c #231F28",
"j  c #2F1223",
"k  c #331523",
"l  c #391726",
"z  c #3B1926",
"x  c #3E1A29",
"c  c #341C28",
"v  c #201C31",
"b  c #1B232B",
"n  c #1D2732",
"m  c #1D2934",
"M  c #1C2B3C",
"N  c #262827",
"B  c #24232E",
"V  c #3F2D28",
"C  c #3A3023",
"Z  c #232236",
"A  c #232B34",
"S  c #27273A",
"D  c #252D39",
"F  c #2A2D39",
"G  c #2A323D",
"H  c #27313C",
"J  c #3B3D3E",
"K  c #411E1D",
"L  c #4D2D04",
"P  c #45240E",
"I  c #45211E",
"U  c #4E391F",
"Y  c #693D00",
"T  c #613702",
"R  c #633C19",
"E  c #441D2D",
"W  c #491F30",
"Q  c #462021",
"!  c #4E2522",
"~  c #592B27",
"^  c #56252B",
"/  c #5C2B2D",
"(  c #532A28",
")  c #572832",
"_  c #5E2A32",
"`  c #593737",
"'  c #533C36",
"]  c #622F2B",
"[  c #63312D",
"{  c #6D352F",
"}  c #773D2E",
"|  c #642C33",
" . c #692E36",
".. c #6B3237",
"X. c #723733",
"o. c #763935",
"O. c #7B3D37",
"+. c #773A38",
"@. c #7E3F38",
"#. c #7D4D11",
"$. c #584125",
"%. c #7F412D",
"&. c #78443F",
"*. c #2B2E42",
"=. c #2D3443",
"-. c #2E3B47",
";. c #2F3F4D",
":. c #303645",
">. c #303A46",
",. c #303548",
"<. c #333D4B",
"1. c #36414D",
"2. c #364451",
"3. c #394555",
"4. c #3A4957",
"5. c #3D4C5A",
"6. c #3F505E",
"7. c #40424F",
"8. c #414F5F",
"9. c #41505F",
"0. c #4D525D",
"q. c #75544D",
"w. c #445464",
"e. c #465768",
"r. c #4B5263",
"t. c #5A5F6C",
"y. c #5C616F",
"u. c #556376",
"i. c #5B6576",
"p. c #823F38",
"a. c #884F03",
"s. c #9D5C03",
"d. c #985A08",
"f. c #82461E",
"g. c #914F1C",
"h. c #A75F08",
"j. c #A86400",
"k. c #A56008",
"l. c #B36801",
"z. c #894924",
"x. c #965224",
"c. c #83413A",
"v. c #CD7712",
"b. c #8C574F",
"n. c #865F58",
"m. c #835E56",
"M. c #A05E54",
"N. c #B17569",
"B. c #DE8207",
"V. c #B38375",
"C. c #606B82",
"Z. c #67738C",
"A. c #727E97",
"S. c #727E98",
"D. c #74819A",
"F. c #828DA7",
"G. c #8492AF",
"H. c #8B94AF",
"J. c #939FBA",
"K. c #9AA2BC",
"L. c #95A0BB",
"P. c #D89D8E",
"I. c #F1AC9A",
"U. c #A6AFC5",
"Y. c #AFBAD3",
"T. c #B2BBD1",
"R. c #BCC5D9",
"E. c #C2C9DB",
"W. c #CCD4E2",
"Q. c None",
/* pixels */
"Q.Q.Q.Q.Q.Q.Q.Q.Q.Q.Q.Q.Q.Q.Q.Q.Q.Q.Q.Q.Q.Q.Q.Q.Q.Q.Q.Q.Q.Q.Q.Q.Q.Q.Q.Q.Q.Q.Q.Q.Q.Q.Q.Q.Q.Q.Q.Q.Q.Q.",
"Q.Q.Q.Q.Q.Q.Q.Q.Q.Q.Q.Q.Q.Q.Q.Q.Q.Q.Q.Q.Q.Q.Q.Q.Q.Q.Q.Q.Q.Q.Q.Q.Q.Q.Q.Q.Q.Q.Q.Q.Q.Q.Q.Q.Q.Q.Q.Q.Q.Q.",
"Q.Q.Q.Q.Q.Q.Q.Q.Q.Q.Q.Q.Q.Q.Q.Q.Q.Q.Q.Q.Q.Q.Q.Q.Q.Q.Q.Q.Q.Q.Q.Q.Q.Q.Q.Q.Q.Q.Q.Q.Q.Q.Q.Q.Q.Q.Q.Q.Q.Q.",
"Q.Q.Q.Q.Q.Q.Q.Q.Q.Q.Q.Q.Q.Q.Q.Q.Q.Q.Q.Q.Q.Q.Q.Q.Q.Q.Q.Q.Q.Q.Q.Q.Q.Q.I Q I r Q.Q.Q.Q.Q.Q.Q.Q.Q.Q.Q.Q.",
"Q.Q.Q.Q.Q.Q.Q.Q.Q.Q.Q.Q.Q.Q.Q.Q.Q.Q.Q.Q.Q.Q.Q.Q.Q.Q.Q.Q.Q.Q.Q.Q.Q.~ c.p.c.o.! Q.Q.Q.Q.Q.Q.Q.Q.Q.Q.Q.",
"Q.Q.Q.Q.Q.Q.Q.Q.Q.Q.Q.Q.Q.Q.Q.Q.Q.Q.Q.Q.Q.Q.Q.Q.Q.Q.Q.Q.Q.Q.Q.Q.q o.%.&.@.c.{ Q.Q.Q.Q.Q.Q.Q.Q.Q.Q.Q.",
"Q.Q.Q.Q.Q.Q.Q.Q.Q.Q.Q.Q.Q.Q.Q.Q.Q.Q.Q.Q.Q.Q.Q.Q.Q.Q.Q.Q.Q.Q.Q.Q.+ . r X.! [ I Q.Q.Q.Q.Q.Q.Q.Q.Q.Q.Q.",
"Q.Q.Q.Q.Q.Q.Q.Q.Q.Q.Q.Q.Q.Q.Q.Q.Q.Q.Q.Q.Q.Q.Q.Q.Q.Q.Q.Q.Q.Q.Q.Q.q.' 9 / ! [ r Q.Q.Q.Q.Q.Q.Q.Q.Q.Q.Q.",
"Q.Q.Q.Q.Q.Q.Q.Q.Q.Q.Q.Q.Q.Q.Q.Q.Q.Q.Q.Q.Q.Q.Q.Q.Q.Q.Q.Q.Q.Q.Q.Q.n.P.V.` ~ Q 6 Q.Q.Q.Q.Q.Q.Q.Q.Q.Q.Q.",
"Q.Q.Q.Q.Q.Q.Q.Q.Q.Q.Q.Q.Q.Q.Q.Q.Q.Q.Q.Q.Q.Q.Q.Q.Q.Q.Q.Q.Q.Q.Q.Q.V N.I.m./ r Q.Q.Q.Q.Q.Q.Q.Q.Q.Q.Q.Q.",
"Q.Q.Q.Q.Q.Q.Q.Q.Q.Q.Q.Q.Q.Q.Q.Q.Q.Q.Q.Q.Q.Q.Q.Q.Q.Q.Q.Q.Q.Q.Q.Q.  b.M.&.Q +.6 Q.Q.Q.Q.Q.Q.Q.Q.Q.Q.Q.",
"Q.Q.Q.Q.Q.Q.Q.Q.Q.Q.Q.Q.Q.Q.Q.Q.Q.Q.Q.Q.Q.Q.Q.Q.Q.Q.Q.Q.Q.Q.Q.Q.= ( p.K 0 o.r Q.Q.Q.Q.Q.Q.Q.Q.Q.Q.Q.",
"Q.Q.Q.Q.Q.Q.Q.Q.Q.Q.Q.Q.Q.Q.Q.Q.Q.Q.Q.Q.Q.Q.Q.Q.Q.Q.Q.Q.Q.Q.Q.Q.3 w ] w 8 ) r Q.Q.Q.Q.Q.Q.Q.Q.Q.Q.Q.",
"Q.Q.Q.Q.Q.Q.Q.Q.Q.Q.Q.Q.Q.Q.Q.Q.Q.Q.Q.Q.Q.Q.Q.Q.Q.Q.Q.Q.Q.Q.Q.Q.Q.= @ 5 E 8   Q.Q.Q.Q.Q.Q.Q.Q.Q.Q.Q.",
"Q.Q.Q.Q.Q.Q.Q.Q.Q.Q.Q.Q.Q.Q.Q.Q.Q.Q.Q.Q.Q.Q.Q.Q.Q.Q.Q.Q.Q.Q.Q.Q.Q.P 4 @ 8 6 6 # Q.Q.Q.Q.Q.Q.Q.Q.Q.Q.",
"Q.Q.Q.Q.Q.Q.Q.Q.Q.Q.Q.Q.Q.Q.Q.Q.Q.Q.Q.Q.Q.Q.Q.Q.Q.Q.Q.Q.Q.Q.Q.= z k.L q r X.c.] t Q.Q.Q.Q.Q.Q.Q.Q.Q.",
"Q.Q.Q.Q.Q.Q.Q.Q.Q.Q.Q.Q.Q.Q.Q.Q.Q.Q.Q.Q.Q.Q.Q.Q.Q.Q.Q.Q.Q.3 j x.v.T s.O.c.c.@.p.X.K Q.Q.Q.Q.Q.Q.Q.Q.",
"Q.Q.Q.Q.Q.Q.Q.Q.Q.Q.Q.Q.Q.Q.Q.Q.Q.Q.Q.0.Q.Q.Q.Q.Q.= 5 n =.R B.a.L N d.| +.%.@.p.c.@.~ Q.Q.Q.Q.Q.Q.Q.",
"Q.Q.Q.Q.Q.Q.Q.Q.Q.Q.Q.Q.Q.Q.Q.Q.Q.Q.Q.y.X   = z x E k u Z < 2 r - <.$.g._ +.&.p.@.c.X.. Q.Q.Q.Q.Q.Q.",
"Q.Q.R.R.R.R.R.R.T.L.L.H.S.S.S.i.u.u.1.t.k W x c z z Q.Q.Q.Q.8 W k -.2.#.z.O.X.+.p.@.K 5 Q.Q.Q.Q.Q.Q.",
"Q.E.W.W.W.W.E.R.R.U.K.K.F.A.D.A.A.D.r.t.z E 7 y.O Q.Q.Q.Q.Q.Q.E W - 3.J j.l.g.c...^ 4 E + Q.Q.Q.Q.Q.",
"Q.Q.T.Y.Y.Y.K.G.G.D.Z.Z.C.8.9.r.8.w.A y.= + Q.7.Q.Q.Q.Q.Q.Q.Q.= k 7 *.8.m C s.k.f.o . x @ Q.Q.Q.Q.Q.",
"Q.Q.Q.Q.Q.Q.Q.Q.Q.Q.Q.Q.Q.Q.Q.Q.Q.Q.Q.y.X Q.Q.Q.Q.Q.Q.Q.Q.Q.Q.Q.Q.+ $ 3.e.5.M U Y Q.Q.8 8 Q.Q.Q.Q.Q.",
"Q.Q.Q.Q.Q.Q.Q.Q.Q.Q.Q.Q.Q.Q.Q.Q.Q.Q.Q.A Q.Q.Q.Q.Q.Q.Q.Q.Q.Q.Q.Q.Q.Q.X Z <.w.r.4.m Q.Q.3 k Q.Q.Q.Q.Q.",
"Q.Q.Q.Q.Q.Q.Q.Q.Q.Q.Q.Q.Q.Q.Q.Q.Q.Q.Q.Q.Q.Q.Q.Q.Q.Q.Q.Q.Q.Q.Q.Q.Q.Q.X d v S v H =.Q.Q.Q.5 Q.Q.Q.Q.Q.",
"Q.Q.Q.Q.Q.Q.Q.Q.Q.Q.Q.Q.Q.Q.Q.Q.Q.Q.Q.Q.Q.Q.Q.Q.Q.Q.Q.Q.Q.Q.Q.Q.Q.Q.X u s s % 4 $ Q.Q.Q.5 Q.Q.Q.Q.Q.",
"Q.Q.Q.Q.Q.Q.Q.Q.Q.Q.Q.Q.Q.Q.Q.Q.Q.Q.Q.Q.Q.Q.Q.Q.Q.Q.Q.Q.Q.Q.Q.Q.Q.Q.Q.. & & = 3   Q.Q.Q.k 3 Q.Q.Q.Q.",
"Q.Q.Q.Q.Q.Q.Q.Q.Q.Q.Q.Q.Q.Q.Q.Q.Q.Q.Q.Q.Q.Q.Q.Q.Q.Q.Q.Q.Q.Q.Q.Q.Q.Q.Q.+ 5 5 = 3 o   Q.Q.z 3 Q.Q.Q.Q.",
"Q.Q.Q.Q.Q.Q.Q.Q.Q.Q.Q.Q.Q.Q.Q.Q.Q.Q.Q.Q.Q.Q.Q.Q.Q.Q.Q.Q.Q.Q.Q.Q.Q.Q.b D m A A h &   Q.Q.+ Q.Q.Q.Q.Q.",
"Q.Q.Q.Q.Q.Q.Q.Q.Q.Q.Q.Q.Q.Q.Q.Q.Q.Q.Q.Q.Q.Q.Q.Q.Q.Q.Q.Q.Q.Q.Q.Q.Q.Q.5.e.e.e.e.H 4 i Q.Q.Q.Q.Q.Q.Q.Q.",
"Q.Q.Q.Q.Q.Q.Q.Q.Q.Q.Q.Q.Q.Q.Q.Q.Q.Q.Q.Q.Q.Q.Q.Q.Q.Q.Q.Q.Q.Q.Q.Q.Q.b w.9.9.w.r.4.9 - Q.Q.Q.Q.Q.Q.Q.Q.",
"Q.Q.Q.Q.Q.Q.Q.Q.Q.Q.Q.Q.Q.Q.Q.Q.Q.Q.Q.Q.Q.Q.Q.Q.Q.Q.Q.Q.Q.Q.Q.Q.Q.1.w.D 4.w.D 3.h 7 y Q.Q.Q.Q.Q.Q.Q.",
"Q.Q.Q.Q.Q.Q.Q.Q.Q.Q.Q.Q.Q.Q.Q.Q.Q.Q.Q.Q.Q.Q.Q.Q.Q.Q.Q.Q.Q.Q.Q.Q.Q.4.3.p 8.w.Z A -.5 O Q.Q.Q.Q.Q.Q.Q.",
"Q.Q.Q.Q.Q.Q.Q.Q.Q.Q.Q.Q.Q.Q.Q.Q.Q.Q.Q.Q.Q.Q.Q.Q.Q.Q.Q.Q.Q.Q.Q.Q.n w.1., 3.<.f d <.7 h X Q.Q.Q.Q.Q.Q.",
"Q.Q.Q.Q.Q.Q.Q.Q.Q.Q.Q.Q.Q.Q.Q.Q.Q.Q.Q.Q.Q.Q.Q.Q.Q.Q.Q.Q.Q.Q.Q.Q.-.e.2., S Z f y 2.h = < Q.Q.Q.Q.Q.Q.",
"Q.Q.Q.Q.Q.Q.Q.Q.Q.Q.Q.Q.Q.Q.Q.Q.Q.Q.Q.Q.Q.Q.Q.Q.Q.Q.Q.Q.Q.Q.Q.: 4.e.1.y v v f s D =.7 > Q.Q.Q.Q.Q.Q.",
"Q.Q.Q.Q.Q.Q.Q.Q.Q.Q.Q.Q.Q.Q.Q.Q.Q.Q.Q.Q.Q.Q.Q.Q.Q.Q.Q.Q.Q.Q.Q.$ 4.e.2., Z h v d b 3.4 p ; Q.Q.Q.Q.Q.",
"Q.Q.Q.Q.Q.Q.Q.Q.Q.Q.Q.Q.Q.Q.Q.Q.Q.Q.Q.Q.Q.Q.Q.Q.Q.Q.Q.Q.Q.Q.Q.$ 4.e.1., v f f f i 9.B 3 X Q.Q.Q.Q.Q.",
"Q.Q.Q.Q.Q.Q.Q.Q.Q.Q.Q.Q.Q.Q.Q.Q.Q.Q.Q.Q.Q.Q.Q.Q.Q.Q.Q.Q.Q.Q.Q.$ 4.e.3.y f v v v , <.G 4 B Q.Q.Q.Q.Q.",
"Q.Q.Q.Q.Q.Q.Q.Q.Q.Q.Q.Q.Q.Q.Q.Q.Q.Q.Q.Q.Q.Q.Q.Q.Q.Q.Q.Q.Q.Q.Q.Q.<.r.w.A s v v v , <.9.- h D Q.Q.Q.Q.",
"Q.Q.Q.Q.Q.Q.Q.Q.Q.Q.Q.Q.Q.Q.Q.Q.Q.Q.Q.Q.Q.Q.Q.Q.Q.Q.Q.Q.Q.Q.Q.Q.b w.e.n s v v v p A 6.B 7 1.b Q.Q.Q.",
"Q.Q.Q.Q.Q.Q.Q.Q.Q.Q.Q.Q.Q.Q.Q.Q.Q.Q.Q.Q.Q.Q.Q.Q.Q.Q.Q.Q.Q.Q.Q.Q.n w.r.<.y v v v f , 9.G 4 G 1.Q.Q.Q.",
"Q.Q.Q.Q.Q.Q.Q.Q.Q.Q.Q.Q.Q.Q.Q.Q.Q.Q.Q.Q.Q.Q.Q.Q.Q.Q.Q.Q.Q.Q.Q.Q.y 5.w.5.y f f v f y 9.5.7 g 5.; Q.Q.",
"Q.Q.Q.Q.Q.Q.Q.Q.Q.Q.Q.Q.Q.Q.Q.Q.Q.Q.Q.Q.Q.Q.Q.Q.Q.Q.Q.Q.Q.Q.Q.Q.% =.r.w.H s v v f y 6.6.h 7 5.G Q.Q.",
"Q.Q.Q.Q.Q.Q.Q.Q.Q.Q.Q.Q.Q.Q.Q.Q.Q.Q.Q.Q.Q.Q.Q.Q.Q.Q.Q.Q.Q.Q.Q.Q.% f <.w.w.D f v v u H e.>.3 F <.Q.Q.",
"Q.Q.Q.Q.Q.Q.Q.Q.Q.Q.Q.Q.Q.Q.Q.Q.Q.Q.Q.Q.Q.Q.Q.Q.Q.Q.Q.Q.Q.Q.Q.Q.Q.y y =.r.8.Z f f y D w.3.7 =.-.: Q.",
"Q.Q.Q.Q.Q.Q.Q.Q.Q.Q.Q.Q.Q.Q.Q.Q.Q.Q.Q.Q.Q.Q.Q.Q.Q.Q.Q.Q.Q.Q.Q.Q.Q.1 o s ,.9.3.,.Z d <.e.w.1.<.0 . Q.",
"Q.Q.Q.Q.Q.Q.Q.Q.Q.Q.Q.Q.Q.Q.Q.Q.Q.Q.Q.Q.Q.Q.Q.Q.Q.Q.Q.Q.Q.Q.Q.Q.# | 3 X , *.,.,.Z Z A b b b O ^ 1 Q.",
"Q.Q.Q.Q.Q.Q.Q.Q.Q.Q.Q.Q.Q.Q.Q.Q.Q.Q.Q.Q.Q.Q.Q.Q.Q.Q.Q.Q.Q.Q.Q.6 ^  .1 Q.Q.X X X X X Q.Q.Q.. e e Q.Q.",
"Q.Q.Q.Q.Q.Q.Q.Q.Q.Q.Q.Q.Q.Q.Q.Q.Q.Q.Q.Q.Q.Q.Q.Q.Q.Q.Q.Q.Q.Q.Q.|  .| 3 Q.Q.Q.Q.Q.Q.Q.Q.Q.Q.. | / Q.Q."
};
