/* XPM */
static char *result[] = {
/* columns rows colors chars-per-pixel */
"50 50 155 2 ",
"   c #040304",
".  c #090306",
"X  c #05050B",
"o  c #0D040A",
"O  c #13060D",
"+  c #19070F",
"@  c #140D0C",
"#  c #1E0D0D",
"$  c #0C0C13",
"%  c #150710",
"&  c #1D0A13",
"*  c #120E1C",
"=  c #0C1117",
"-  c #121017",
";  c #13111F",
":  c #1C131B",
">  c #13181E",
",  c #261505",
"<  c #220C16",
"1  c #240E19",
"2  c #280E1A",
"3  c #2D1413",
"4  c #23121C",
"5  c #2A111B",
"6  c #261919",
"7  c #231414",
"8  c #33161E",
"9  c #36181C",
"0  c #3C1C1B",
"q  c #301414",
"w  c #322009",
"e  c #0D1827",
"r  c #151323",
"t  c #191627",
"y  c #161923",
"u  c #1B1C27",
"i  c #1A1729",
"p  c #141E2C",
"a  c #1C1B2D",
"s  c #1F1C31",
"d  c #2F1220",
"f  c #221C25",
"g  c #241F28",
"h  c #251520",
"j  c #331422",
"k  c #391826",
"l  c #3D1B2A",
"z  c #3C1726",
"x  c #201C31",
"c  c #192027",
"v  c #1C222C",
"b  c #24212B",
"n  c #242235",
"m  c #232A34",
"M  c #26253A",
"N  c #262B3A",
"B  c #282E39",
"V  c #292934",
"C  c #26303A",
"Z  c #2A333E",
"A  c #3E3739",
"S  c #421E1D",
"D  c #573301",
"F  c #5B3501",
"G  c #5E3807",
"H  c #523411",
"J  c #613902",
"K  c #6C3A18",
"L  c #65351B",
"P  c #431B2C",
"I  c #481E2F",
"U  c #491F30",
"Y  c #4B2321",
"T  c #4A222C",
"R  c #532827",
"E  c #582A26",
"W  c #57272B",
"Q  c #5F2D2A",
"!  c #4D2133",
"~  c #5E2B34",
"^  c #553D39",
"/  c #63312C",
"(  c #6E372A",
")  c #663134",
"_  c #6C3336",
"`  c #703731",
"'  c #763A33",
"]  c #7A3D36",
"[  c #7E3E38",
"{  c #60421C",
"}  c #7A421C",
"|  c #2B2D41",
" . c #2C3543",
".. c #2E3945",
"X. c #2A3849",
"o. c #303547",
"O. c #313A47",
"+. c #313648",
"@. c #323C4A",
"#. c #34414E",
"$. c #374352",
"%. c #3A4454",
"&. c #3A4A57",
"*. c #3E4C5B",
"=. c #42444E",
"-. c #424652",
";. c #484553",
":. c #474954",
">. c #414F5E",
",. c #484E5B",
"<. c #42515F",
"1. c #664440",
"2. c #6A4B45",
"3. c #7D5B52",
"4. c #455464",
"5. c #5C687E",
"6. c #5E6371",
"7. c #813F38",
"8. c #8B530C",
"9. c #9F5E00",
"0. c #925504",
"q. c #9D5A10",
"w. c #95521F",
"e. c #A65F13",
"r. c #A66300",
"t. c #B86C00",
"y. c #AD6314",
"u. c #854728",
"i. c #9C5524",
"p. c #824039",
"a. c #915249",
"s. c #9C6259",
"d. c #A7796D",
"f. c #D78000",
"g. c #E18500",
"h. c #5E6A80",
"j. c #626F85",
"k. c #637187",
"l. c #657389",
"z. c #6B7990",
"x. c #76829C",
"c. c #7A86A1",
"v. c #8A94AD",
"b. c #8691AA",
"n. c #8C96B0",
"m. c #DE9989",
"M. c #EBAB99",
"N. c #9EA8C2",
"B. c #A4AEC3",
"V. c #ADB6CB",
"C. c #B0B8CE",
"Z. c #BCC5D8",
"A. c #C4CCDE",
"S. c #C6CEE0",
"D. c None",
/* pixels */
"D.D.D.D.D.D.D.D.D.D.D.D.D.D.D.D.D.D.D.D.D.D.D.D.D.D.D.D.D.D.D.D.D.D.D.D.D.D.D.D.D.D.D.D.D.D.D.D.D.D.",
"D.D.D.D.D.D.D.D.D.D.D.D.D.D.D.D.D.D.D.D.D.D.D.D.D.D.D.D.D.D.D.D.D.D.D.D.D.D.D.D.D.D.D.D.D.D.D.D.D.D.",
"D.D.D.D.D.D.D.D.D.D.D.D.D.D.D.D.D.D.D.D.D.D.D.D.D.D.D.D.D.D.D.D.D.D.D.D.D.D.D.D.D.D.D.D.D.D.D.D.D.D.",
"D.D.D.D.D.D.D.D.D.D.D.' p.p.p.p.p.D.D.D.D.D.D.D.D.D.D.D.D.D.D.D.D.D.D.D.D.D.D.D.D.D.D.D.D.D.D.D.D.D.",
"D.D.D.D.D.D.D.D.D.D.D.E ` Q ' ) 0 D.D.D.D.D.D.D.D.D.D.D.D.D.D.D.D.D.D.D.D.D.D.D.D.D.D.D.D.D.D.D.D.D.",
"D.D.D.D.D.D.D.D.D.D.D.0 Q Y _ <   ^ D.D.D.D.D.D.D.D.D.D.D.D.D.D.D.D.D.D.D.D.D.D.D.D.D.D.D.D.D.D.D.D.",
"D.D.D.D.D.D.D.D.D.D.D.0 / Y T 2.3.d.D.D.D.D.D.D.D.D.D.D.D.D.D.D.D.D.D.D.D.D.D.D.D.D.D.D.D.D.D.D.D.D.",
"D.D.D.D.D.D.D.D.D.D.D.D.3 / 1.M.M.d.D.D.D.D.D.D.D.D.D.D.D.D.D.D.D.D.D.D.D.D.D.D.D.D.D.D.D.D.D.D.D.D.",
"D.D.D.D.D.D.D.D.D.D.D.D.Q W 2.m.a.7 D.D.D.D.D.D.D.D.D.D.D.D.D.D.D.D.D.D.D.D.D.D.D.D.D.D.D.D.D.D.D.D.",
"D.D.D.D.D.D.D.D.D.D.D.0 7.0 ) p.s.6 D.D.D.D.D.D.D.D.D.D.D.D.D.D.D.D.D.D.D.D.D.D.D.D.D.D.D.D.D.D.D.D.",
"D.D.D.D.D.D.D.D.D.D.D.0 ` & 3 [ S 2 D.D.D.D.D.D.D.D.D.D.D.D.D.D.D.D.D.D.D.D.D.D.D.D.D.D.D.D.D.D.D.D.",
"D.D.D.D.D.D.D.D.D.D.D.3 T j 5 0 9 & D.D.D.D.D.D.D.D.D.D.D.D.D.D.D.D.D.D.D.D.D.D.D.D.D.D.D.D.D.D.D.D.",
"D.D.D.D.D.D.D.D.D.D.D.# 8 I 2 < < D.D.D.D.D.D.D.D.D.D.D.D.D.D.D.D.D.D.D.D.D.D.D.D.D.D.D.D.D.D.D.D.D.",
"D.D.D.D.D.D.D.D.D.D.Y / R % o O < D.D.D.D.D.D.D.D.D.D.D.D.D.D.D.D.D.D.D.D.D.D.D.D.D.D.D.D.D.D.D.D.D.",
"D.D.D.D.D.D.D.D.q / p.p.' R K J } 2 D.D.D.D.D.D.D.D.D.D.D.D.D.D.D.D.D.D.D.D.D.D.D.D.D.D.D.D.D.D.D.D.",
"D.D.D.D.D.D.D.Y ' p.p.[ 7.] i.F 0.g.D D.D.D.D.D.D.D.D.D.D.D.D.D.D.D.D.D.D.D.D.D.D.D.D.D.D.D.D.D.D.D.",
"D.D.D.D.D.D.Q [ p.[ [ 7.7.~ w.H : , r.f.w D.D.D.D.D.D.D.D.D.D.D.D.D.D.D.D.D.D.D.D.D.D.D.D.D.D.D.D.D.",
"D.D.D.D.D.  / p.[ [ p.[ ) ( 8.#. .r @ @ %.@.o . D.D.D.D.D.D.D.D.D.D.D.D.D.D.D.D.D.D.D.D.D.D.D.D.D.D.",
"D.D.D.D.D.5 8 ' p.] _ ' u.q.A &.b o % r  .g P U 5 o D.D.:.%.D.D.D.D.D.D.D.D.D.D.D.D.D.D.D.D.D.D.D.D.",
"D.D.D.D.o I 2 S ) ' i.e.t.{ &.x 4 ! d   D.< d I z j + O =.-.D.D.D.D.D.D.D.D.D.D.D.D.D.D.D.D.D.D.D.D.",
"D.D.D.D.o P o D.L y.9.J e @.o.* j 5 D.D.D.D.D.< A l I P ;.,.5.l.l.l.x.x.x.v.N.B.C.S.S.A.A.A.A.A.D.D.",
"D.D.D.D.2 d D.D.F J p X.4.$.t X & D.D.D.D.D.D.D.6.f 1 z ;.,.5.l.k.l.k.k.z.b.v.n.B.C.V.Z.A.A.A.A.D.D.",
"D.D.D.D.j 2 D.D.p X.Z >.@.M ; D.D.D.D.D.D.D.D.D.D.D.D.O =.-.D.D.D.D.D.D.D.D.D.D.D.D.D.D.D.D.D.D.D.D.",
"D.D.D.D.5 O D.D.m $.4 i s s ; D.D.D.D.D.D.D.D.D.D.D.D.D.:.:.D.D.D.D.D.D.D.D.D.D.D.D.D.D.D.D.D.D.D.D.",
"D.D.D.D.2 D.D.D.  X 2 * a a ; D.D.D.D.D.D.D.D.D.D.D.D.D.D.D.D.D.D.D.D.D.D.D.D.D.D.D.D.D.D.D.D.D.D.D.",
"D.D.D.& k D.D.D.+ & & & o o   D.D.D.D.D.D.D.D.D.D.D.D.D.D.D.D.D.D.D.D.D.D.D.D.D.D.D.D.D.D.D.D.D.D.D.",
"D.D.D.& l D.D.    + : : j j $ D.D.D.D.D.D.D.D.D.D.D.D.D.D.D.D.D.D.D.D.D.D.D.D.D.D.D.D.D.D.D.D.D.D.D.",
"D.D.D.D.2 D.D.= m 1 Z #.> u  .D.D.D.D.D.D.D.D.D.D.D.D.D.D.D.D.D.D.D.D.D.D.D.D.D.D.D.D.D.D.D.D.D.D.D.",
"D.D.D.D.D.D.D.u g 4 #.4.4.4.4.m D.D.D.D.D.D.D.D.D.D.D.D.D.D.D.D.D.D.D.D.D.D.D.D.D.D.D.D.D.D.D.D.D.D.",
"D.D.D.D.D.D.D.m 4 f >.@.4.4.4.$.D.D.D.D.D.D.D.D.D.D.D.D.D.D.D.D.D.D.D.D.D.D.D.D.D.D.D.D.D.D.D.D.D.D.",
"D.D.D.D.D.D.D.- 4 Z C N 4.4.4.*.D.D.D.D.D.D.D.D.D.D.D.D.D.D.D.D.D.D.D.D.D.D.D.D.D.D.D.D.D.D.D.D.D.D.",
"D.D.D.D.D.D.D.. 4 $.v s *.*. .4.m D.D.D.D.D.D.D.D.D.D.D.D.D.D.D.D.D.D.D.D.D.D.D.D.D.D.D.D.D.D.D.D.D.",
"D.D.D.D.D.D.D.< b #.r a | *.t @.&.D.D.D.D.D.D.D.D.D.D.D.D.D.D.D.D.D.D.D.D.D.D.D.D.D.D.D.D.D.D.D.D.D.",
"D.D.D.D.D.D.  < B ..r x x M r ..<.> D.D.D.D.D.D.D.D.D.D.D.D.D.D.D.D.D.D.D.D.D.D.D.D.D.D.D.D.D.D.D.D.",
"D.D.D.D.D.D.+ : &.y a x x x a y <.Z D.D.D.D.D.D.D.D.D.D.D.D.D.D.D.D.D.D.D.D.D.D.D.D.D.D.D.D.D.D.D.D.",
"D.D.D.D.D.D.% b $.y s s x x a y <...D.D.D.D.D.D.D.D.D.D.D.D.D.D.D.D.D.D.D.D.D.D.D.D.D.D.D.D.D.D.D.D.",
"D.D.D.D.D.- 2 Z x i x x x x a r <. .D.D.D.D.D.D.D.D.D.D.D.D.D.D.D.D.D.D.D.D.D.D.D.D.D.D.D.D.D.D.D.D.",
"D.D.D.D.v f h ..r x x s x x t m 4. .D.D.D.D.D.D.D.D.D.D.D.D.D.D.D.D.D.D.D.D.D.D.D.D.D.D.D.D.D.D.D.D.",
"D.D.D.y ..< b C t s g s x x * @.4...D.D.D.D.D.D.D.D.D.D.D.D.D.D.D.D.D.D.D.D.D.D.D.D.D.D.D.D.D.D.D.D.",
"D.D.D.v V 7 ..u a s x x x a t >.4. .D.D.D.D.D.D.D.D.D.D.D.D.D.D.D.D.D.D.D.D.D.D.D.D.D.D.D.D.D.D.D.D.",
"D.D.D.@.f 4 $.u a s x x x t x 4.4.a D.D.D.D.D.D.D.D.D.D.D.D.D.D.D.D.D.D.D.D.D.D.D.D.D.D.D.D.D.D.D.D.",
"D.D.D.C 4 m ..r s s x x x r %.4.<.t D.D.D.D.D.D.D.D.D.D.D.D.D.D.D.D.D.D.D.D.D.D.D.D.D.D.D.D.D.D.D.D.",
"D.D.C Z < Z ..r x x x s s @.4.4.+.r D.D.D.D.D.D.D.D.D.D.D.D.D.D.D.D.D.D.D.D.D.D.D.D.D.D.D.D.D.D.D.D.",
"D.D.C h 4 <...; x x s n +.4.4.$.x r D.D.D.D.D.D.D.D.D.D.D.D.D.D.D.D.D.D.D.D.D.D.D.D.D.D.D.D.D.D.D.D.",
"D.D.*.b b 4...r s s | @.4.4.$.M t D.D.D.D.D.D.D.D.D.D.D.D.D.D.D.D.D.D.D.D.D.D.D.D.D.D.D.D.D.D.D.D.D.",
"D.D.m #.&.4.%.s | +.*.4.<.@.x * D.D.D.D.D.D.D.D.D.D.D.D.D.D.D.D.D.D.D.D.D.D.D.D.D.D.D.D.D.D.D.D.D.D.",
"D.D.D.Z 4.4.4.&.%.4.4.+.| r $ D.D.D.D.D.D.D.D.D.D.D.D.D.D.D.D.D.D.D.D.D.D.D.D.D.D.D.D.D.D.D.D.D.D.D.",
"D.D.D.D.e y r N | | | t X D.D.D.D.D.D.D.D.D.D.D.D.D.D.D.D.D.D.D.D.D.D.D.D.D.D.D.D.D.D.D.D.D.D.D.D.D.",
"D.D.D.D.D.D.D.D.D.D.D.D.D.D.D.D.D.D.D.D.D.D.D.D.D.D.D.D.D.D.D.D.D.D.D.D.D.D.D.D.D.D.D.D.D.D.D.D.D.D.",
"D.D.D.D.D.D.D.D.D.D.D.D.D.D.D.D.D.D.D.D.D.D.D.D.D.D.D.D.D.D.D.D.D.D.D.D.D.D.D.D.D.D.D.D.D.D.D.D.D.D."
};
