/* XPM */
static char *result[] = {
/* columns rows colors chars-per-pixel */
"50 50 155 2 ",
"   c #040304",
".  c #090306",
"X  c #05050B",
"o  c #0D040A",
"O  c #13060D",
"+  c #19070F",
"@  c #140D0C",
"#  c #1E0D0D",
"$  c #0C0C13",
"%  c #150710",
"&  c #1D0A13",
"*  c #120E1C",
"=  c #0C1117",
"-  c #121017",
";  c #13111F",
":  c #1C131B",
">  c #13181E",
",  c #261505",
"<  c #220C16",
"1  c #240E19",
"2  c #280E1A",
"3  c #2D1413",
"4  c #23121C",
"5  c #2A111B",
"6  c #261919",
"7  c #231414",
"8  c #33161E",
"9  c #36181C",
"0  c #3C1C1B",
"q  c #301414",
"w  c #322009",
"e  c #0D1827",
"r  c #151323",
"t  c #191627",
"y  c #161923",
"u  c #1B1C27",
"i  c #1A1729",
"p  c #141E2C",
"a  c #1C1B2D",
"s  c #1F1C31",
"d  c #2F1220",
"f  c #221C25",
"g  c #241F28",
"h  c #251520",
"j  c #331422",
"k  c #391826",
"l  c #3D1B2A",
"z  c #3C1726",
"x  c #201C31",
"c  c #192027",
"v  c #1C222C",
"b  c #24212B",
"n  c #242235",
"m  c #232A34",
"M  c #26253A",
"N  c #262B3A",
"B  c #282E39",
"V  c #292934",
"C  c #26303A",
"Z  c #2A333E",
"A  c #3E3739",
"S  c #421E1D",
"D  c #573301",
"F  c #5B3501",
"G  c #5E3807",
"H  c #523411",
"J  c #613902",
"K  c #6C3A18",
"L  c #65351B",
"P  c #431B2C",
"I  c #481E2F",
"U  c #491F30",
"Y  c #4B2321",
"T  c #4A222C",
"R  c #532827",
"E  c #582A26",
"W  c #57272B",
"Q  c #5F2D2A",
"!  c #4D2133",
"~  c #5E2B34",
"^  c #553D39",
"/  c #63312C",
"(  c #6E372A",
")  c #663134",
"_  c #6C3336",
"`  c #703731",
"'  c #763A33",
"]  c #7A3D36",
"[  c #7E3E38",
"{  c #60421C",
"}  c #7A421C",
"|  c #2B2D41",
" . c #2C3543",
".. c #2E3945",
"X. c #2A3849",
"o. c #303547",
"O. c #313A47",
"+. c #313648",
"@. c #323C4A",
"#. c #34414E",
"$. c #374352",
"%. c #3A4454",
"&. c #3A4A57",
"*. c #3E4C5B",
"=. c #42444E",
"-. c #424652",
";. c #484553",
":. c #474954",
">. c #414F5E",
",. c #484E5B",
"<. c #42515F",
"1. c #664440",
"2. c #6A4B45",
"3. c #7D5B52",
"4. c #455464",
"5. c #5C687E",
"6. c #5E6371",
"7. c #813F38",
"8. c #8B530C",
"9. c #9F5E00",
"0. c #925504",
"q. c #9D5A10",
"w. c #95521F",
"e. c #A65F13",
"r. c #A66300",
"t. c #B86C00",
"y. c #AD6314",
"u. c #854728",
"i. c #9C5524",
"p. c #824039",
"a. c #915249",
"s. c #9C6259",
"d. c #A7796D",
"f. c #D78000",
"g. c #E18500",
"h. c #5E6A80",
"j. c #626F85",
"k. c #637187",
"l. c #657389",
"z. c #6B7990",
"x. c #76829C",
"c. c #7A86A1",
"v. c #8A94AD",
"b. c #8691AA",
"n. c #8C96B0",
"m. c #DE9989",
"M. c #EBAB99",
"N. c #9EA8C2",
"B. c #A4AEC3",
"V. c #ADB6CB",
"C. c #B0B8CE",
"Z. c #BCC5D8",
"A. c #C4CCDE",
"S. c #C6CEE0",
"D. c None",
/* pixels */
"D.D.D.D.D.D.D.D.D.D.D.D.D.D.D.D.D.D.D.D.D.D.D.D.D.D.D.D.D.D.D.D.D.D.D.D.D.D.D.D.D.D.D.D.D.D.D.D.D.D.",
"D.D.D.D.D.D.D.D.D.D.D.D.D.D.D.D.D.D.D.D.D.D.D.D.D.D.D.D.D.D.D.D.D.D.D.D.D.D.D.D.D.D.D.D.D.D.D.D.D.D.",
"D.D.D.D.D.D.D.D.D.D.D.D.D.D.D.D.D.D.D.D.D.D.D.D.D.D.D.D.D.D.D.D.D.D.D.D.D.D.D.D.D.D.D.D.D.D.D.D.D.D.",
"D.D.D.D.D.D.D.D.D.D.D.D.D.D.D.D.D.D.D.D.D.D.D.D.D.D.D.D.D.D.D.D.D.p.p.p.7.p.' D.D.D.D.D.D.D.D.D.D.D.",
"D.D.D.D.D.D.D.D.D.D.D.D.D.D.D.D.D.D.D.D.D.D.D.D.D.D.D.D.D.D.D.D.D.0 ) ' Q ` E D.D.D.D.D.D.D.D.D.D.D.",
"D.D.D.D.D.D.D.D.D.D.D.D.D.D.D.D.D.D.D.D.D.D.D.D.D.D.D.D.D.D.D.D.^   < _ Y / 0 D.D.D.D.D.D.D.D.D.D.D.",
"D.D.D.D.D.D.D.D.D.D.D.D.D.D.D.D.D.D.D.D.D.D.D.D.D.D.D.D.D.D.D.D.d.3.2.T Y / 0 D.D.D.D.D.D.D.D.D.D.D.",
"D.D.D.D.D.D.D.D.D.D.D.D.D.D.D.D.D.D.D.D.D.D.D.D.D.D.D.D.D.D.D.D.d.M.M.1./ 3 D.D.D.D.D.D.D.D.D.D.D.D.",
"D.D.D.D.D.D.D.D.D.D.D.D.D.D.D.D.D.D.D.D.D.D.D.D.D.D.D.D.D.D.D.D.7 a.m.2.W / D.D.D.D.D.D.D.D.D.D.D.D.",
"D.D.D.D.D.D.D.D.D.D.D.D.D.D.D.D.D.D.D.D.D.D.D.D.D.D.D.D.D.D.D.D.6 s.p./ 0 [ 0 D.D.D.D.D.D.D.D.D.D.D.",
"D.D.D.D.D.D.D.D.D.D.D.D.D.D.D.D.D.D.D.D.D.D.D.D.D.D.D.D.D.D.D.D.1 S [ 3 & _ 0 D.D.D.D.D.D.D.D.D.D.D.",
"D.D.D.D.D.D.D.D.D.D.D.D.D.D.D.D.D.D.D.D.D.D.D.D.D.D.D.D.D.D.D.D.& 9 S 5 j T 3 D.D.D.D.D.D.D.D.D.D.D.",
"D.D.D.D.D.D.D.D.D.D.D.D.D.D.D.D.D.D.D.D.D.D.D.D.D.D.D.D.D.D.D.D.D.< 1 5 U 8 # D.D.D.D.D.D.D.D.D.D.D.",
"D.D.D.D.D.D.D.D.D.D.D.D.D.D.D.D.D.D.D.D.D.D.D.D.D.D.D.D.D.D.D.D.D.< o o & Y / Y D.D.D.D.D.D.D.D.D.D.",
"D.D.D.D.D.D.D.D.D.D.D.D.D.D.D.D.D.D.D.D.D.D.D.D.D.D.D.D.D.D.D.D.2 } J K R ] p.p./ q D.D.D.D.D.D.D.D.",
"D.D.D.D.D.D.D.D.D.D.D.D.D.D.D.D.D.D.D.D.D.D.D.D.D.D.D.D.D.D.D.D g.0.F i.' 7.[ 7.p.' Y D.D.D.D.D.D.D.",
"D.D.D.D.D.D.D.D.D.D.D.D.D.D.D.D.D.D.D.D.D.D.D.D.D.D.D.D.D.w f.r., : H w.~ [ [ [ [ [ [ Q D.D.D.D.D.D.",
"D.D.D.D.D.D.D.D.D.D.D.D.D.D.D.D.D.D.D.D.D.D.D.D.D.D.. o @.%.@ @ r  .#.8.( ) [ [ [ p.p./   D.D.D.D.D.",
"D.D.D.D.D.D.D.D.D.D.D.D.D.D.D.D.D.D.D.D.=.:.D.D.o 5 I I b  .t O o b *.A q.u.' ) [ p.' 9 2 D.D.D.D.D.",
"D.D.D.D.D.D.D.D.D.D.D.D.D.D.D.D.D.D.D.D.-.=.O + j z I 5 & D.  j ! 5 a %.{ t.y.i.' ) 0 5 I o D.D.D.D.",
"D.D.A.A.S.A.S.S.S.C.N.N.n.c.c.x.l.l.l.h.,.;.P U l A < D.D.D.D.D.d j r  .@.e J 9.y.L D.o P o D.D.D.D.",
"D.D.A.A.A.S.Z.V.V.B.v.v.v.z.j.j.k.k.k.5.,.;.z 1 u 6.D.D.D.D.D.D.D.& X t %.4. .p J F D.D.j 2 D.D.D.D.",
"D.D.D.D.D.D.D.D.D.D.D.D.D.D.D.D.D.D.D.D.-.=.O D.D.D.D.D.D.D.D.D.D.D.D.; M +.>.Z X.p D.D.1 j D.D.D.D.",
"D.D.D.D.D.D.D.D.D.D.D.D.D.D.D.D.D.D.D.D.-.:.D.D.D.D.D.D.D.D.D.D.D.D.D.r s s u 4 $.m D.D.O 5 D.D.D.D.",
"D.D.D.D.D.D.D.D.D.D.D.D.D.D.D.D.D.D.D.D.D.D.D.D.D.D.D.D.D.D.D.D.D.D.D.* a a * < X   D.D.D.1 D.D.D.D.",
"D.D.D.D.D.D.D.D.D.D.D.D.D.D.D.D.D.D.D.D.D.D.D.D.D.D.D.D.D.D.D.D.D.D.D.  o o & < & + D.D.D.l & D.D.D.",
"D.D.D.D.D.D.D.D.D.D.D.D.D.D.D.D.D.D.D.D.D.D.D.D.D.D.D.D.D.D.D.D.D.D.D.= d j : : % X X D.D.l & D.D.D.",
"D.D.D.D.D.D.D.D.D.D.D.D.D.D.D.D.D.D.D.D.D.D.D.D.D.D.D.D.D.D.D.D.D.D.D...c > @. .< m = D.D.2 D.D.D.D.",
"D.D.D.D.D.D.D.D.D.D.D.D.D.D.D.D.D.D.D.D.D.D.D.D.D.D.D.D.D.D.D.D.D.D.N 4.4.4.4.#.4 g u D.D.D.D.D.D.D.",
"D.D.D.D.D.D.D.D.D.D.D.D.D.D.D.D.D.D.D.D.D.D.D.D.D.D.D.D.D.D.D.D.D.D.#.4.4.4.#.*.f 5 m D.D.D.D.D.D.D.",
"D.D.D.D.D.D.D.D.D.D.D.D.D.D.D.D.D.D.D.D.D.D.D.D.D.D.D.D.D.D.D.D.D.D.*.4.4.4.N C  .4 - D.D.D.D.D.D.D.",
"D.D.D.D.D.D.D.D.D.D.D.D.D.D.D.D.D.D.D.D.D.D.D.D.D.D.D.D.D.D.D.D.D.m 4.Z *.*.n c #.5 . D.D.D.D.D.D.D.",
"D.D.D.D.D.D.D.D.D.D.D.D.D.D.D.D.D.D.D.D.D.D.D.D.D.D.D.D.D.D.D.D.D.&.#.u >.| x r @.n & D.D.D.D.D.D.D.",
"D.D.D.D.D.D.D.D.D.D.D.D.D.D.D.D.D.D.D.D.D.D.D.D.D.D.D.D.D.D.D.D.> *. .r x x x r O.B <   D.D.D.D.D.D.",
"D.D.D.D.D.D.D.D.D.D.D.D.D.D.D.D.D.D.D.D.D.D.D.D.D.D.D.D.D.D.D.D.Z <.y a x x x a y &.4 + D.D.D.D.D.D.",
"D.D.D.D.D.D.D.D.D.D.D.D.D.D.D.D.D.D.D.D.D.D.D.D.D.D.D.D.D.D.D.D. .4.y a x x x a y #.g + D.D.D.D.D.D.",
"D.D.D.D.D.D.D.D.D.D.D.D.D.D.D.D.D.D.D.D.D.D.D.D.D.D.D.D.D.D.D.D. .<.; a x x x x a v C 5 - D.D.D.D.D.",
"D.D.D.D.D.D.D.D.D.D.D.D.D.D.D.D.D.D.D.D.D.D.D.D.D.D.D.D.D.D.D.D...4.m t x x x x x ; ..4 f c D.D.D.D.",
"D.D.D.D.D.D.D.D.D.D.D.D.D.D.D.D.D.D.D.D.D.D.D.D.D.D.D.D.D.D.D.D. .4.#.; x x x x s t C b 4 O.y D.D.D.",
"D.D.D.D.D.D.D.D.D.D.D.D.D.D.D.D.D.D.D.D.D.D.D.D.D.D.D.D.D.D.D.D.Z 4.<.u a x x x s a u O.< V v D.D.D.",
"D.D.D.D.D.D.D.D.D.D.D.D.D.D.D.D.D.D.D.D.D.D.D.D.D.D.D.D.D.D.D.D.v 4.4.x i x x s s a u $.4 f #.D.D.D.",
"D.D.D.D.D.D.D.D.D.D.D.D.D.D.D.D.D.D.D.D.D.D.D.D.D.D.D.D.D.D.D.D.t >.4.$.r x x s s s r O.m 1 C D.D.D.",
"D.D.D.D.D.D.D.D.D.D.D.D.D.D.D.D.D.D.D.D.D.D.D.D.D.D.D.D.D.D.D.D.r  .4.4.@.x s s x n r .. .1 Z B D.D.",
"D.D.D.D.D.D.D.D.D.D.D.D.D.D.D.D.D.D.D.D.D.D.D.D.D.D.D.D.D.D.D.D.r x %.4.4.+.M s x x ; ..<.: 4 C D.D.",
"D.D.D.D.D.D.D.D.D.D.D.D.D.D.D.D.D.D.D.D.D.D.D.D.D.D.D.D.D.D.D.D.D.t M %.4.4.$.M s s r ..4.b b *.D.D.",
"D.D.D.D.D.D.D.D.D.D.D.D.D.D.D.D.D.D.D.D.D.D.D.D.D.D.D.D.D.D.D.D.D.D.r x +.<.4.*.+.N a %.4.%.#.m D.D.",
"D.D.D.D.D.D.D.D.D.D.D.D.D.D.D.D.D.D.D.D.D.D.D.D.D.D.D.D.D.D.D.D.D.D.D.$ r | +.4.4.*.&.4.4.4.Z D.D.D.",
"D.D.D.D.D.D.D.D.D.D.D.D.D.D.D.D.D.D.D.D.D.D.D.D.D.D.D.D.D.D.D.D.D.D.D.D.D.X r | | | m y y > D.D.D.D.",
"D.D.D.D.D.D.D.D.D.D.D.D.D.D.D.D.D.D.D.D.D.D.D.D.D.D.D.D.D.D.D.D.D.D.D.D.D.D.D.D.D.D.D.D.D.D.D.D.D.D.",
"D.D.D.D.D.D.D.D.D.D.D.D.D.D.D.D.D.D.D.D.D.D.D.D.D.D.D.D.D.D.D.D.D.D.D.D.D.D.D.D.D.D.D.D.D.D.D.D.D.D."
};
