/* XPM */
static char *result[] = {
/* columns rows colors chars-per-pixel */
"50 50 170 2 ",
"   c #020102",
".  c #0B0305",
"X  c #030309",
"o  c #0D0409",
"O  c #05090C",
"+  c #120506",
"@  c #14060B",
"#  c #1A070D",
"$  c #16090A",
"%  c #1C0B0E",
"&  c #100B06",
"*  c #070C10",
"=  c #0B0C17",
"-  c #0E0C19",
";  c #150710",
":  c #180712",
">  c #130C14",
",  c #1D0B14",
"<  c #110E1D",
"1  c #0D1215",
"2  c #12121E",
"3  c #1D121C",
"4  c #13181F",
"5  c #220D0E",
"6  c #2A1701",
"7  c #240D15",
"8  c #290E12",
"9  c #260E1A",
"0  c #280D19",
"q  c #261110",
"w  c #2C1214",
"e  c #26121D",
"r  c #2B111C",
"t  c #321614",
"y  c #371817",
"u  c #33141A",
"i  c #3B161B",
"p  c #351819",
"a  c #3D1C1A",
"s  c #3D2200",
"d  c #151424",
"f  c #151B22",
"g  c #1A1C25",
"h  c #1D1A2E",
"j  c #181426",
"k  c #1F1B31",
"l  c #2F1320",
"z  c #211F28",
"x  c #2A1C28",
"c  c #331522",
"v  c #361A20",
"b  c #3D1922",
"n  c #3D1928",
"m  c #201C31",
"M  c #172027",
"N  c #192027",
"B  c #1C232D",
"V  c #172736",
"C  c #1F2632",
"Z  c #1E2931",
"A  c #1B2A3A",
"S  c #23242E",
"D  c #212233",
"F  c #232B34",
"G  c #25253A",
"H  c #242E3A",
"J  c #2A2B3E",
"K  c #25303B",
"L  c #29323C",
"P  c #411A1E",
"I  c #563108",
"U  c #44211E",
"Y  c #4C231E",
"T  c #543A19",
"R  c #633B0B",
"E  c #421A20",
"W  c #441D2D",
"Q  c #491E25",
"!  c #441B31",
"~  c #4B2124",
"^  c #4F2128",
"/  c #542925",
"(  c #582A26",
")  c #53242A",
"_  c #5E2D2A",
"`  c #512522",
"'  c #4D2132",
"]  c #522333",
"[  c #5C2933",
"{  c #4B3632",
"}  c #593936",
"|  c #602D27",
" . c #602E2A",
".. c #63312B",
"X. c #6A342E",
"o. c #642C34",
"O. c #682E36",
"+. c #6A2E38",
"@. c #6E3533",
"#. c #6B3038",
"$. c #673135",
"%. c #723737",
"&. c #743835",
"*. c #7D3E37",
"=. c #753838",
"-. c #7E3F38",
";. c #744300",
":. c #784500",
">. c #7F4900",
",. c #5B413B",
"<. c #2C3342",
"1. c #2E3A45",
"2. c #2B3948",
"3. c #303A46",
"4. c #32354A",
"5. c #323C4A",
"6. c #323F50",
"7. c #3A3B52",
"8. c #34424E",
"9. c #394554",
"0. c #3B4A57",
"q. c #3B4758",
"w. c #3E4C5A",
"e. c #364452",
"r. c #414E5D",
"t. c #42505F",
"y. c #674A44",
"u. c #7E5852",
"i. c #494E65",
"p. c #455464",
"a. c #465768",
"s. c #4C556A",
"d. c #495969",
"f. c #536274",
"g. c #803E37",
"h. c #823F39",
"j. c #824D00",
"k. c #8B5100",
"l. c #A56006",
"z. c #BA6B0C",
"x. c #B9691C",
"c. c #8F4C29",
"v. c #824139",
"b. c #CF7816",
"n. c #CB7516",
"m. c #D37A12",
"M. c #D97E12",
"N. c #825149",
"B. c #A15D53",
"V. c #876259",
"C. c #936157",
"Z. c #A7645A",
"A. c #5F6D82",
"S. c #656B85",
"D. c #66758C",
"F. c #68748D",
"G. c #6E7B94",
"H. c #717C96",
"J. c #75819A",
"K. c #78849C",
"L. c #7D89A1",
"P. c #939EB6",
"I. c #97A1B8",
"U. c #98A2BA",
"Y. c #DC9787",
"T. c #DA9989",
"R. c #E5A494",
"E. c #EFAE9C",
"W. c #FCB8A6",
"Q. c None",
/* pixels */
"Q.Q.Q.Q.Q.Q.Q.Q.Q.Q.Q.Q.Q.Q.Q.Q.Q.Q.Q.Q.Q.Q.Q.Q.Q.Q.Q.Q.Q.Q.Q.Q.Q.Q.Q.Q.Q.Q.Q.Q.Q.Q.Q.Q.Q.Q.Q.Q.Q.Q.",
"Q.Q.Q.Q.Q.Q.Q.Q.Q.Q.Q.Q.Q.Q.Q.Q.Q.Q.Q.Q.Q.Q.Q.Q.Q.Q.Q.Q.Q.Q.Q.Q.Q.Q.Q.Q.Q.Q.Q.Q.Q.Q.Q.Q.Q.Q.Q.Q.Q.Q.",
"Q.Q.Q.Q.Q.Q.Q.Q.Q.Q.Q.Q.Q.Q.Q.Q.Q.Q.Q.Q.Q.Q.Q.Q.Q.Q.Q.Q.Q.Q.Q.Q.Q.Q.Q.Q.Q.Q.Q.Q.Q.Q.Q.Q.Q.Q.Q.Q.Q.Q.",
"Q.Q.Q.Q.Q.Q.Q.Q.Q.Q.Q.Q.Q.Q.Q.Q.Q.Q.Q.Q.Q.Q.Q.Q.Q.Q.y .. ._  ._ ..~   Q.Q.Q.Q.Q.Q.Q.Q.Q.Q.Q.Q.Q.Q.Q.",
"Q.Q.Q.Q.Q.Q.Q.Q.Q.Q.Q.Q.Q.Q.Q.Q.Q.Q.Q.Q.Q.Q.Q.Q.Q.~ v.v.h.v.v.v.v.-.&./ Q.Q.Q.Q.Q.Q.Q.Q.Q.Q.Q.Q.Q.Q.",
"Q.Q.Q.Q.Q.Q.Q.Q.Q.Q.Q.Q.Q.Q.Q.Q.Q.Q.Q.Q.Q.Q.Q.Q.5 ` / _ =.v.%. .v.@.| ..Q.Q.Q.Q.Q.Q.Q.Q.Q.Q.Q.Q.Q.Q.",
"Q.Q.Q.Q.Q.Q.Q.Q.Q.Q.Q.Q.Q.Q.Q.Q.Q.Q.Q.Q.Q.Q.Q.Q.{ {     b %.X.a / X.U w Q.Q.Q.Q.Q.Q.Q.Q.Q.Q.Q.Q.Q.Q.",
"Q.Q.Q.Q.Q.Q.Q.Q.Q.Q.Q.Q.Q.Q.Q.Q.Q.Q.Q.Q.Q.Q.Q.Q.V.E.y.,.u.r @./ q -.( Q.Q.Q.Q.Q.Q.Q.Q.Q.Q.Q.Q.Q.Q.Q.",
"Q.Q.Q.Q.Q.Q.Q.Q.Q.Q.Q.Q.Q.Q.Q.Q.Q.Q.Q.Q.Q.Q.Q.Q.y.R.Y.R.W.V.8 *.( $ . Q.Q.Q.Q.Q.Q.Q.Q.Q.Q.Q.Q.Q.Q.Q.",
"Q.Q.Q.Q.Q.Q.Q.Q.Q.Q.Q.Q.Q.Q.Q.Q.Q.Q.Q.Q.Q.Q.Q.Q.  $.B.Z.Y.C.q ^ v...q Q.Q.Q.Q.Q.Q.Q.Q.Q.Q.Q.Q.Q.Q.Q.",
"Q.Q.Q.Q.Q.Q.Q.Q.Q.Q.F.F.Q.Q.Q.Q.Q.Q.Q.Q.Q.Q.Q.Q.o } u.*.-.X.5 , %.v.( Q.Q.Q.Q.Q.Q.Q.Q.Q.Q.Q.Q.Q.Q.Q.",
"Q.Q.Q.Q.Q.Q.Q.Q.F.P.U.U.L.G.H.f.d.s.Q.Q.Q.Q.Q.  e , t g.( u q # ' $.( Q.Q.Q.Q.Q.Q.Q.Q.Q.Q.Q.Q.Q.Q.Q.",
"Q.Q.Q.Q.Q.Q.Q.Q.Q.K.K.K.P.U.U.L.J.J.S.f.q.4.4.J X 7 0 : 9 9 r W W u $   $ + Q.Q.Q.Q.Q.Q.Q.Q.Q.Q.Q.Q.",
"Q.Q.Q.Q.Q.Q.Q.Q.Q.Q.Q.Q.H.f.d.d.d.p.D.J.F.S.S.s.7.L x l ; o c r r U ..w ..X.q q Q.Q.Q.Q.Q.Q.Q.Q.Q.Q.",
"Q.Q.Q.Q.Q.Q.Q.Q.Q.Q.Q.Q.Q.Q.Q.Q.Q.Q.Q.t.<.h Q.7.i.i.C s R r a a ( v.v.( + #.v.&.t Q.Q.Q.Q.Q.Q.Q.Q.Q.",
"Q.Q.Q.Q.Q.Q.Q.Q.Q.Q.Q.Q.Q.Q.Q.Q.Q.Q.Q.Q.Q.Q.Q.Q.Q.Q.X j.n.[ v.v.v.*.v.&.U e o.*.X.O H   Q.Q.Q.Q.Q.Q.",
"Q.Q.Q.Q.Q.Q.Q.Q.Q.Q.Q.Q.Q.Q.Q.Q.Q.Q.Q.Q.Q.Q.Q.Q.Q.Q.Q.& k.x.[ v.-.-.-.v...$ W ^ n 1 w.<.Q.Q.Q.Q.Q.Q.",
"Q.Q.Q.Q.Q.Q.Q.Q.Q.Q.Q.Q.Q.Q.Q.Q.Q.Q.Q.Q.Q.Q.Q.Q.Q.Q.Z V >.b.] v.-.-.v.-.-.( o n X 2 d d Q.Q.Q.Q.Q.Q.",
"Q.Q.Q.Q.Q.Q.Q.Q.Q.Q.Q.Q.Q.Q.Q.Q.Q.Q.Q.Q.Q.Q.Q.Q.Q.Q.Z 8.T l.c.#.v.-.-.-.v.@.p 0 Q.Q.Q.Q.Q.Q.Q.Q.Q.Q.",
"Q.Q.Q.Q.Q.Q.Q.Q.Q.Q.Q.Q.Q.Q.Q.Q.Q.Q.Q.Q.Q.Q.Q.Q.Q.Q.B d.A :.m.] v.-.-.-.-.v...  Q.Q.Q.Q.Q.Q.Q.Q.Q.Q.",
"Q.Q.Q.Q.Q.Q.Q.Q.Q.Q.Q.Q.Q.Q.Q.Q.Q.Q.Q.Q.Q.Q.Q.Q.Q.B w.a.A >.m.! o.-.v.-.h.g.*.( Q.Q.Q.Q.Q.Q.Q.Q.Q.Q.",
"Q.Q.Q.Q.Q.Q.Q.Q.Q.Q.Q.Q.Q.Q.Q.Q.Q.Q.Q.Q.Q.Q.Q.Q.Q.B a.p.2.I z...! [ &.&.=.@. .Y Q.Q.Q.Q.Q.Q.Q.Q.Q.Q.",
"Q.Q.Q.Q.Q.Q.Q.Q.Q.Q.Q.Q.Q.Q.Q.Q.Q.Q.Q.Q.Q.Q.Q.Q.Q.1.p.p.a.A ;.M.! ! W e r e B 4 Q.Q.Q.Q.Q.Q.Q.Q.Q.Q.",
"Q.Q.Q.Q.Q.Q.Q.Q.Q.Q.Q.Q.Q.Q.Q.Q.Q.Q.Q.Q.Q.Q.Q.Q.F d.p.p.a.K 6 I # , o   . v F 8.Q.Q.Q.Q.Q.Q.Q.Q.Q.Q.",
"Q.Q.Q.Q.Q.Q.Q.Q.Q.Q.Q.Q.Q.Q.Q.Q.Q.Q.Q.Q.Q.Q.Q.Q.F p.L F t.0.5.H d j =   + o.E O Q.Q.Q.Q.Q.Q.Q.Q.Q.Q.",
"Q.Q.Q.Q.Q.Q.Q.Q.Q.Q.Q.Q.Q.Q.Q.Q.Q.Q.Q.Q.Q.Q.Q.Q.B Z 7 9 - D h d d =   Q.8 o.E Q.Q.Q.Q.Q.Q.Q.Q.Q.Q.Q.",
"Q.Q.Q.Q.Q.Q.Q.Q.Q.Q.Q.Q.Q.Q.Q.Q.Q.Q.Q.Q.Q.Q.Q.Q.O X o 0 > 3 8 7 8 #   + O.^ Q.Q.Q.Q.Q.Q.Q.Q.Q.Q.Q.Q.",
"Q.Q.Q.Q.Q.Q.Q.Q.Q.Q.Q.Q.Q.Q.Q.Q.Q.Q.Q.Q.Q.Q.Q.Q.i i # , r . 8 8 8 % . Q ) 5 Q.Q.Q.Q.Q.Q.Q.Q.Q.Q.Q.Q.",
"Q.Q.Q.Q.Q.Q.Q.Q.Q.Q.Q.Q.Q.Q.Q.Q.Q.Q.Q.Q.Q.Q.Q.. , % .   7 7     # ^ ) +.E Q.Q.Q.Q.Q.Q.Q.Q.Q.Q.Q.Q.Q.",
"Q.Q.Q.Q.Q.Q.Q.Q.Q.Q.Q.Q.Q.Q.Q.Q.Q.Q.Q.Q.Q.L w.w.0.0.w.H 3 0 7 Q ) #.o.P Q.Q.Q.Q.Q.Q.Q.Q.Q.Q.Q.Q.Q.Q.",
"Q.Q.Q.Q.Q.Q.Q.Q.Q.Q.Q.Q.Q.Q.Q.Q.Q.Q.Q.Q.3.p.p.p.p.p.p.p.H : l   + P w Q.Q.Q.Q.Q.Q.Q.Q.Q.Q.Q.Q.Q.Q.Q.",
"Q.Q.Q.Q.Q.Q.Q.Q.Q.Q.Q.Q.Q.Q.Q.Q.Q.Q.g 9.p.p.t.p.t.p.p.p.e.z 7 @ O F g Q.Q.Q.Q.Q.Q.Q.Q.Q.Q.Q.Q.Q.Q.Q.",
"Q.Q.Q.Q.Q.Q.Q.Q.Q.Q.Q.Q.Q.Q.Q.Q.Q.F r.p.p.p.K 2 2.p.p.p.3.* , r f a.5.Q.Q.Q.Q.Q.Q.Q.Q.Q.Q.Q.Q.Q.Q.Q.",
"Q.Q.Q.Q.Q.Q.Q.Q.Q.Q.Q.Q.Q.Q.Q.Q.H t.p.p.w.B - <.w.p.p.p.Z f K # l N 5.Q.Q.Q.Q.Q.Q.Q.Q.Q.Q.Q.Q.Q.Q.Q.",
"Q.Q.Q.Q.Q.Q.Q.Q.Q.Q.Q.Q.Q.Q.Q.Q.8.p.p.9.f d m 4.p.p.w.<.- N 8.3 e 3 F Q.Q.Q.Q.Q.Q.Q.Q.Q.Q.Q.Q.Q.Q.Q.",
"Q.Q.Q.Q.Q.Q.Q.Q.Q.Q.Q.Q.Q.Q.Q.1.p.p.1.d d m z 7.0.4.J m - M d.<.$ c   Q.Q.Q.Q.Q.Q.Q.Q.Q.Q.Q.Q.Q.Q.Q.",
"Q.Q.Q.Q.Q.Q.Q.Q.Q.Q.Q.Q.Q.Q.Q.1.p.p.f - m m m G G k k m - M p.0.S , 9 Q.Q.Q.Q.Q.Q.Q.Q.Q.Q.Q.Q.Q.Q.Q.",
"Q.Q.Q.Q.Q.Q.Q.Q.Q.Q.Q.Q.Q.Q.L t.p.r.f 2 m m m m m k m m < f p.5.* , u   Q.Q.Q.Q.Q.Q.Q.Q.Q.Q.Q.Q.Q.Q.",
"Q.Q.Q.Q.Q.Q.Q.Q.Q.Q.Q.Q.Q.Q.1.p.p.f 2 m m m m m k m m m m - N p.p.<.+ c Q.Q.Q.Q.Q.Q.Q.Q.Q.Q.Q.Q.Q.Q.",
"Q.Q.Q.Q.Q.Q.Q.Q.Q.Q.Q.Q.Q.Q.1.p.p.f < m m m m m m m m m m j d 1.p.e.B 0 , Q.Q.Q.Q.Q.Q.Q.Q.Q.Q.Q.Q.Q.",
"Q.Q.Q.Q.Q.Q.Q.Q.Q.Q.Q.Q.Q.Q.1.p.p.f < m m m m m m m m m m m - f p.a.5.+ c Q.Q.Q.Q.Q.Q.Q.Q.Q.Q.Q.Q.Q.",
"Q.Q.Q.Q.Q.Q.Q.Q.Q.Q.Q.Q.Q.L t.p.p.w.4 2 m m k m k m m m m m h 2 B a.t.L ; c Q.Q.Q.Q.Q.Q.Q.Q.Q.Q.Q.Q.",
"Q.Q.Q.Q.Q.Q.Q.Q.Q.Q.Q.Q.Q.1.p.p.p.p.F 2 h m m m m m m m m m m d 4 e.p.e.3 l o Q.Q.Q.Q.Q.Q.Q.Q.Q.Q.Q.",
"Q.Q.Q.Q.Q.Q.Q.Q.Q.Q.Q.Q.Q.1.p.p.p.p.a.f - m m m k m m m m m k k < 4 p.p.5.o n Q.Q.Q.Q.Q.Q.Q.Q.Q.Q.Q.",
"Q.Q.Q.Q.Q.Q.Q.Q.Q.Q.Q.Q.Q.1.p.p.p.p.p.8.d d m m m k m m m m m J F f p.p.0.F + Q.Q.Q.Q.Q.Q.Q.Q.Q.Q.Q.",
"Q.Q.Q.Q.Q.Q.Q.Q.Q.Q.Q.Q.Q.o * 1.w.0.t.p.w.B < h m m m m m m <.i.w.0.p.p.p.p.Z Q.Q.Q.Q.Q.Q.Q.Q.Q.Q.Q.",
"Q.Q.Q.Q.Q.Q.Q.Q.Q.Q.Q.Q.Q.E o.Q.Q.Q.Z 5.5.0.L C G m k h D 4.p.p.p.a.p.p.t.L @ + Q.Q.Q.Q.Q.Q.Q.Q.Q.Q.",
"Q.Q.Q.Q.Q.Q.Q.Q.Q.Q.Q.Q.Q.) #.Q.Q.Q.Q.Q.Q.f F F g h 4.4.9.p.p.0.F F Z H f + #.^ Q.Q.Q.Q.Q.Q.Q.Q.Q.Q.",
"Q.Q.Q.Q.Q.Q.Q.Q.Q.Q.Q.i [ O.+.Q.Q.Q.Q.Q.Q.Q.Q.Q.Q.1 g f f f f 1 Q.Q.Q.  i u u ^ Q.Q.Q.Q.Q.Q.Q.Q.Q.Q.",
"Q.Q.Q.Q.Q.Q.Q.Q.P ^ o.#.O.O.O.Q.Q.Q.Q.Q.Q.Q.Q.Q.Q.Q.Q.Q.Q.Q.Q.Q.Q.Q.Q.$ %.o.^ ) Q.Q.Q.Q.Q.Q.Q.Q.Q.Q."
};
