/* XPM */
static char *result[] = {
/* columns rows colors chars-per-pixel */
"50 50 170 2 ",
"   c #020102",
".  c #0B0305",
"X  c #030309",
"o  c #0D0409",
"O  c #05090C",
"+  c #120506",
"@  c #14060B",
"#  c #1A070D",
"$  c #16090A",
"%  c #1C0B0E",
"&  c #100B06",
"*  c #070C10",
"=  c #0B0C17",
"-  c #0E0C19",
";  c #150710",
":  c #180712",
">  c #130C14",
",  c #1D0B14",
"<  c #110E1D",
"1  c #0D1215",
"2  c #12121E",
"3  c #1D121C",
"4  c #13181F",
"5  c #220D0E",
"6  c #2A1701",
"7  c #240D15",
"8  c #290E12",
"9  c #260E1A",
"0  c #280D19",
"q  c #261110",
"w  c #2C1214",
"e  c #26121D",
"r  c #2B111C",
"t  c #321614",
"y  c #371817",
"u  c #33141A",
"i  c #3B161B",
"p  c #351819",
"a  c #3D1C1A",
"s  c #3D2200",
"d  c #151424",
"f  c #151B22",
"g  c #1A1C25",
"h  c #1D1A2E",
"j  c #181426",
"k  c #1F1B31",
"l  c #2F1320",
"z  c #211F28",
"x  c #2A1C28",
"c  c #331522",
"v  c #361A20",
"b  c #3D1922",
"n  c #3D1928",
"m  c #201C31",
"M  c #172027",
"N  c #192027",
"B  c #1C232D",
"V  c #172736",
"C  c #1F2632",
"Z  c #1E2931",
"A  c #1B2A3A",
"S  c #23242E",
"D  c #212233",
"F  c #232B34",
"G  c #25253A",
"H  c #242E3A",
"J  c #2A2B3E",
"K  c #25303B",
"L  c #29323C",
"P  c #411A1E",
"I  c #563108",
"U  c #44211E",
"Y  c #4C231E",
"T  c #543A19",
"R  c #633B0B",
"E  c #421A20",
"W  c #441D2D",
"Q  c #491E25",
"!  c #441B31",
"~  c #4B2124",
"^  c #4F2128",
"/  c #542925",
"(  c #582A26",
")  c #53242A",
"_  c #5E2D2A",
"`  c #512522",
"'  c #4D2132",
"]  c #522333",
"[  c #5C2933",
"{  c #4B3632",
"}  c #593936",
"|  c #602D27",
" . c #602E2A",
".. c #63312B",
"X. c #6A342E",
"o. c #642C34",
"O. c #682E36",
"+. c #6A2E38",
"@. c #6E3533",
"#. c #6B3038",
"$. c #673135",
"%. c #723737",
"&. c #743835",
"*. c #7D3E37",
"=. c #753838",
"-. c #7E3F38",
";. c #744300",
":. c #784500",
">. c #7F4900",
",. c #5B413B",
"<. c #2C3342",
"1. c #2E3A45",
"2. c #2B3948",
"3. c #303A46",
"4. c #32354A",
"5. c #323C4A",
"6. c #323F50",
"7. c #3A3B52",
"8. c #34424E",
"9. c #394554",
"0. c #3B4A57",
"q. c #3B4758",
"w. c #3E4C5A",
"e. c #364452",
"r. c #414E5D",
"t. c #42505F",
"y. c #674A44",
"u. c #7E5852",
"i. c #494E65",
"p. c #455464",
"a. c #465768",
"s. c #4C556A",
"d. c #495969",
"f. c #536274",
"g. c #803E37",
"h. c #823F39",
"j. c #824D00",
"k. c #8B5100",
"l. c #A56006",
"z. c #BA6B0C",
"x. c #B9691C",
"c. c #8F4C29",
"v. c #824139",
"b. c #CF7816",
"n. c #CB7516",
"m. c #D37A12",
"M. c #D97E12",
"N. c #825149",
"B. c #A15D53",
"V. c #876259",
"C. c #936157",
"Z. c #A7645A",
"A. c #5F6D82",
"S. c #656B85",
"D. c #66758C",
"F. c #68748D",
"G. c #6E7B94",
"H. c #717C96",
"J. c #75819A",
"K. c #78849C",
"L. c #7D89A1",
"P. c #939EB6",
"I. c #97A1B8",
"U. c #98A2BA",
"Y. c #DC9787",
"T. c #DA9989",
"R. c #E5A494",
"E. c #EFAE9C",
"W. c #FCB8A6",
"Q. c None",
/* pixels */
"Q.Q.Q.Q.Q.Q.Q.Q.Q.Q.Q.Q.Q.Q.Q.Q.Q.Q.Q.Q.Q.Q.Q.Q.Q.Q.Q.Q.Q.Q.Q.Q.Q.Q.Q.Q.Q.Q.Q.Q.Q.Q.Q.Q.Q.Q.Q.Q.Q.Q.",
"Q.Q.Q.Q.Q.Q.Q.Q.Q.Q.Q.Q.Q.Q.Q.Q.Q.Q.Q.Q.Q.Q.Q.Q.Q.Q.Q.Q.Q.Q.Q.Q.Q.Q.Q.Q.Q.Q.Q.Q.Q.Q.Q.Q.Q.Q.Q.Q.Q.Q.",
"Q.Q.Q.Q.Q.Q.Q.Q.Q.Q.Q.Q.Q.Q.Q.Q.Q.Q.Q.Q.Q.Q.Q.Q.Q.Q.Q.Q.Q.Q.Q.Q.Q.Q.Q.Q.Q.Q.Q.Q.Q.Q.Q.Q.Q.Q.Q.Q.Q.Q.",
"Q.Q.Q.Q.Q.Q.Q.Q.Q.Q.Q.Q.Q.Q.Q.  ~ .._ .._ _ ..y Q.Q.Q.Q.Q.Q.Q.Q.Q.Q.Q.Q.Q.Q.Q.Q.Q.Q.Q.Q.Q.Q.Q.Q.Q.Q.",
"Q.Q.Q.Q.Q.Q.Q.Q.Q.Q.Q.Q.Q.Q./ &.*.v.v.v.v.v.v.-.~ Q.Q.Q.Q.Q.Q.Q.Q.Q.Q.Q.Q.Q.Q.Q.Q.Q.Q.Q.Q.Q.Q.Q.Q.Q.",
"Q.Q.Q.Q.Q.Q.Q.Q.Q.Q.Q.Q.Q.Q. . .X.v. .X.v.=._ / ` 5 Q.Q.Q.Q.Q.Q.Q.Q.Q.Q.Q.Q.Q.Q.Q.Q.Q.Q.Q.Q.Q.Q.Q.Q.",
"Q.Q.Q.Q.Q.Q.Q.Q.Q.Q.Q.Q.Q.Q.t a @./ a X.&.i X   { { Q.Q.Q.Q.Q.Q.Q.Q.Q.Q.Q.Q.Q.Q.Q.Q.Q.Q.Q.Q.Q.Q.Q.Q.",
"Q.Q.Q.Q.Q.Q.Q.Q.Q.Q.Q.Q.Q.Q.Q.( v.q / @.r V.} y.E.V.Q.Q.Q.Q.Q.Q.Q.Q.Q.Q.Q.Q.Q.Q.Q.Q.Q.Q.Q.Q.Q.Q.Q.Q.",
"Q.Q.Q.Q.Q.Q.Q.Q.Q.Q.Q.Q.Q.Q.Q.. $ ( *.8 V.W.R.T.R.y.Q.Q.Q.Q.Q.Q.Q.Q.Q.Q.Q.Q.Q.Q.Q.Q.Q.Q.Q.Q.Q.Q.Q.Q.",
"Q.Q.Q.Q.Q.Q.Q.Q.Q.Q.Q.Q.Q.Q.Q.5 ..v.) q C.Y.Z.B.$.  Q.Q.Q.Q.Q.Q.Q.Q.Q.Q.Q.Q.Q.Q.Q.Q.Q.Q.Q.Q.Q.Q.Q.Q.",
"Q.Q.Q.Q.Q.Q.Q.Q.Q.Q.Q.Q.Q.Q.Q.( v.%.7 % ..g.*.N.} . Q.Q.Q.Q.Q.Q.Q.Q.Q.Q.Q.Q.F.F.Q.Q.Q.Q.Q.Q.Q.Q.Q.Q.",
"Q.Q.Q.Q.Q.Q.Q.Q.Q.Q.Q.Q.Q.Q.Q.( $.' # 7 u ( v.y 3 e   Q.Q.Q.Q.Q.d.a.f.H.G.L.U.U.P.F.Q.Q.Q.Q.Q.Q.Q.Q.",
"Q.Q.Q.Q.Q.Q.Q.Q.Q.Q.Q.Q.+ $   $ c W ' e 0 9 % 0 , o J 4.4.q.f.S.J.H.P.I.U.P.J.K.K.Q.Q.Q.Q.Q.Q.Q.Q.Q.",
"Q.Q.Q.Q.Q.Q.Q.Q.Q.Q.5 q X...w ..U r u r o ; l x <.7.s.S.S.F.H.D.a.d.r.p.f.H.Q.Q.Q.Q.Q.Q.Q.Q.Q.Q.Q.Q.",
"Q.Q.Q.Q.Q.Q.Q.Q.Q.t &.v.@.o ( v.v./ a a 0 R s C i.i.7.Q.h <.t.Q.Q.Q.Q.Q.Q.Q.Q.Q.Q.Q.Q.Q.Q.Q.Q.Q.Q.Q.",
"Q.Q.Q.Q.Q.Q.  H X X.-.$.9 ~ &.-.h.v.v.v.[ n.j.X Q.Q.Q.Q.Q.Q.Q.Q.Q.Q.Q.Q.Q.Q.Q.Q.Q.Q.Q.Q.Q.Q.Q.Q.Q.Q.",
"Q.Q.Q.Q.Q.Q.<.r.= b ] W # ..v.v.*.*.v.[ x.k.& Q.Q.Q.Q.Q.Q.Q.Q.Q.Q.Q.Q.Q.Q.Q.Q.Q.Q.Q.Q.Q.Q.Q.Q.Q.Q.Q.",
"Q.Q.Q.Q.Q.Q.2 d 2 X n o ( -.-.-.-.v.v.] b.>.V Z Q.Q.Q.Q.Q.Q.Q.Q.Q.Q.Q.Q.Q.Q.Q.Q.Q.Q.Q.Q.Q.Q.Q.Q.Q.Q.",
"Q.Q.Q.Q.Q.Q.Q.Q.Q.Q.e t @.-.-.-.-.v.#.c.l.T e.B Q.Q.Q.Q.Q.Q.Q.Q.Q.Q.Q.Q.Q.Q.Q.Q.Q.Q.Q.Q.Q.Q.Q.Q.Q.Q.",
"Q.Q.Q.Q.Q.Q.Q.Q.Q.Q.  ..v.-.-.-.-.v.] m.;.A d.B Q.Q.Q.Q.Q.Q.Q.Q.Q.Q.Q.Q.Q.Q.Q.Q.Q.Q.Q.Q.Q.Q.Q.Q.Q.Q.",
"Q.Q.Q.Q.Q.Q.Q.Q.Q.Q.( *.-.v.-.-.-.o.! m.:.A p.t.B Q.Q.Q.Q.Q.Q.Q.Q.Q.Q.Q.Q.Q.Q.Q.Q.Q.Q.Q.Q.Q.Q.Q.Q.Q.",
"Q.Q.Q.Q.Q.Q.Q.Q.Q.Q.Y _ @.%.=.&.] ' ..z.T <.p.p.B Q.Q.Q.Q.Q.Q.Q.Q.Q.Q.Q.Q.Q.Q.Q.Q.Q.Q.Q.Q.Q.Q.Q.Q.Q.",
"Q.Q.Q.Q.Q.Q.Q.Q.Q.Q.4 B l e 9 W ' ! M.;.F p.p.p.1.Q.Q.Q.Q.Q.Q.Q.Q.Q.Q.Q.Q.Q.Q.Q.Q.Q.Q.Q.Q.Q.Q.Q.Q.Q.",
"Q.Q.Q.Q.Q.Q.Q.Q.Q.Q.8.H p .   @ , > I 6 K p.p.p.d.F Q.Q.Q.Q.Q.Q.Q.Q.Q.Q.Q.Q.Q.Q.Q.Q.Q.Q.Q.Q.Q.Q.Q.Q.",
"Q.Q.Q.Q.Q.Q.Q.Q.Q.Q.O P O.+   = d j A 5.0.t.H H p.F Q.Q.Q.Q.Q.Q.Q.Q.Q.Q.Q.Q.Q.Q.Q.Q.Q.Q.Q.Q.Q.Q.Q.Q.",
"Q.Q.Q.Q.Q.Q.Q.Q.Q.Q.Q.b o.8 Q.  = d j h D - 9 7 F B Q.Q.Q.Q.Q.Q.Q.Q.Q.Q.Q.Q.Q.Q.Q.Q.Q.Q.Q.Q.Q.Q.Q.Q.",
"Q.Q.Q.Q.Q.Q.Q.Q.Q.Q.Q.Q.Q +.+   # 7 8 8 3 > 9 @ X X Q.Q.Q.Q.Q.Q.Q.Q.Q.Q.Q.Q.Q.Q.Q.Q.Q.Q.Q.Q.Q.Q.Q.Q.",
"Q.Q.Q.Q.Q.Q.Q.Q.Q.Q.Q.Q.5 ) Q . % w 8 8 . r , $ i p Q.Q.Q.Q.Q.Q.Q.Q.Q.Q.Q.Q.Q.Q.Q.Q.Q.Q.Q.Q.Q.Q.Q.Q.",
"Q.Q.Q.Q.Q.Q.Q.Q.Q.Q.Q.Q.Q.E #.) ^ #     7 9   o % , . Q.Q.Q.Q.Q.Q.Q.Q.Q.Q.Q.Q.Q.Q.Q.Q.Q.Q.Q.Q.Q.Q.Q.",
"Q.Q.Q.Q.Q.Q.Q.Q.Q.Q.Q.Q.Q.Q.E o.#.) ~ 7 r , K 0.0.0.0.0.L Q.Q.Q.Q.Q.Q.Q.Q.Q.Q.Q.Q.Q.Q.Q.Q.Q.Q.Q.Q.Q.",
"Q.Q.Q.Q.Q.Q.Q.Q.Q.Q.Q.Q.Q.Q.Q.w E +   r # F p.p.p.p.p.p.p.5.Q.Q.Q.Q.Q.Q.Q.Q.Q.Q.Q.Q.Q.Q.Q.Q.Q.Q.Q.Q.",
"Q.Q.Q.Q.Q.Q.Q.Q.Q.Q.Q.Q.Q.Q.Q.g F O ; 7 S 8.p.t.p.p.p.p.p.p.0.g Q.Q.Q.Q.Q.Q.Q.Q.Q.Q.Q.Q.Q.Q.Q.Q.Q.Q.",
"Q.Q.Q.Q.Q.Q.Q.Q.Q.Q.Q.Q.Q.Q.Q.1.d.f r , O 5.p.p.p.<.2 K p.p.p.w.F Q.Q.Q.Q.Q.Q.Q.Q.Q.Q.Q.Q.Q.Q.Q.Q.Q.",
"Q.Q.Q.Q.Q.Q.Q.Q.Q.Q.Q.Q.Q.Q.Q.5.M l : H 4 F p.p.p.r.<.< B r.p.p.p.H Q.Q.Q.Q.Q.Q.Q.Q.Q.Q.Q.Q.Q.Q.Q.Q.",
"Q.Q.Q.Q.Q.Q.Q.Q.Q.Q.Q.Q.Q.Q.Q.F g w 3 8.N - <.w.p.a.5.h d f 9.p.p.8.Q.Q.Q.Q.Q.Q.Q.Q.Q.Q.Q.Q.Q.Q.Q.Q.",
"Q.Q.Q.Q.Q.Q.Q.Q.Q.Q.Q.Q.Q.Q.Q.  l # <.d.N - m J 4.q.5.h m d 2 2.p.p.1.Q.Q.Q.Q.Q.Q.Q.Q.Q.Q.Q.Q.Q.Q.Q.",
"Q.Q.Q.Q.Q.Q.Q.Q.Q.Q.Q.Q.Q.Q.Q.e , S w.d.f - m h k G G m m m - f p.p.1.Q.Q.Q.Q.Q.Q.Q.Q.Q.Q.Q.Q.Q.Q.Q.",
"Q.Q.Q.Q.Q.Q.Q.Q.Q.Q.Q.Q.Q.Q.X u > * 5.w.g < D m m m k m m m d d r.p.t.L Q.Q.Q.Q.Q.Q.Q.Q.Q.Q.Q.Q.Q.Q.",
"Q.Q.Q.Q.Q.Q.Q.Q.Q.Q.Q.Q.Q.Q.c @ <.t.a.g - m m m m m z m m m m < f a.a.3.Q.Q.Q.Q.Q.Q.Q.Q.Q.Q.Q.Q.Q.Q.",
"Q.Q.Q.Q.Q.Q.Q.Q.Q.Q.Q.Q.Q., 7 z e.p.5.f j m m m m m k m m m m < 4 p.p.1.Q.Q.Q.Q.Q.Q.Q.Q.Q.Q.Q.Q.Q.Q.",
"Q.Q.Q.Q.Q.Q.Q.Q.Q.Q.Q.Q.Q.c @ 5.p.p.f < m m m m m m m m m m m < f p.p.1.Q.Q.Q.Q.Q.Q.Q.Q.Q.Q.Q.Q.Q.Q.",
"Q.Q.Q.Q.Q.Q.Q.Q.Q.Q.Q.Q.c @ L t.p.B 2 h m m m m m m m m m m d 4 0.p.p.t.L Q.Q.Q.Q.Q.Q.Q.Q.Q.Q.Q.Q.Q.",
"Q.Q.Q.Q.Q.Q.Q.Q.Q.Q.Q.o r 3 8.p.9.2 d m m m m m m m m m m h 2 F p.p.p.p.5.Q.Q.Q.Q.Q.Q.Q.Q.Q.Q.Q.Q.Q.",
"Q.Q.Q.Q.Q.Q.Q.Q.Q.Q.Q.n o 5.p.a.d < m m m m m m m m m m m = f p.p.p.p.p.1.Q.Q.Q.Q.Q.Q.Q.Q.Q.Q.Q.Q.Q.",
"Q.Q.Q.Q.Q.Q.Q.Q.Q.Q.Q.@ H w.p.p.f F J m m m m m k m m m d f e.p.p.p.p.p.1.Q.Q.Q.Q.Q.Q.Q.Q.Q.Q.Q.Q.Q.",
"Q.Q.Q.Q.Q.Q.Q.Q.Q.Q.Q.Z t.p.p.p.q.r.r.<.m m m m m m h < B w.p.p.0.0.1.o o Q.Q.Q.Q.Q.Q.Q.Q.Q.Q.Q.Q.Q.",
"Q.Q.Q.Q.Q.Q.Q.Q.Q.Q.+ $ L w.p.p.p.p.p.p.4.D h k m G B L w.1.5.Z Q.Q.Q.o.E Q.Q.Q.Q.Q.Q.Q.Q.Q.Q.Q.Q.Q.",
"Q.Q.Q.Q.Q.Q.Q.Q.Q.Q.^ #.o f H F F F 9.a.p.9.4.4.k g F F f Q.Q.Q.Q.Q.Q.#.) Q.Q.Q.Q.Q.Q.Q.Q.Q.Q.Q.Q.Q.",
"Q.Q.Q.Q.Q.Q.Q.Q.Q.Q.) u y i   Q.Q.Q.1 f f f g N 1 Q.Q.Q.Q.Q.Q.Q.Q.Q.Q.+.O.[ i Q.Q.Q.Q.Q.Q.Q.Q.Q.Q.Q.",
"Q.Q.Q.Q.Q.Q.Q.Q.Q.Q.^ ) o.+.@ Q.Q.Q.Q.Q.Q.Q.Q.Q.Q.Q.Q.Q.Q.Q.Q.Q.Q.Q.Q.+.O.O.#.o.Q a Q.Q.Q.Q.Q.Q.Q.Q."
};
