/* XPM */
static char *result[] = {
/* columns rows colors chars-per-pixel */
"50 50 171 2 ",
"   c #030203",
".  c #0C0406",
"X  c #05050B",
"o  c #0B040A",
"O  c #09090E",
"+  c #14060C",
"@  c #160A0E",
"#  c #190809",
"$  c #0A0D13",
"%  c #0D0B18",
"&  c #170710",
"*  c #180710",
"=  c #1C0A14",
"-  c #180C18",
";  c #0E151B",
":  c #0C1016",
">  c #111017",
",  c #12111E",
"<  c #12181F",
"1  c #220B0E",
"2  c #301A03",
"3  c #220C16",
"4  c #240E19",
"5  c #290E1A",
"6  c #2C1314",
"7  c #23131D",
"8  c #2C111D",
"9  c #20181A",
"0  c #261114",
"q  c #341816",
"w  c #321519",
"e  c #3C171C",
"r  c #3A1A1A",
"t  c #301513",
"y  c #141522",
"u  c #181526",
"i  c #161D25",
"p  c #1A1B23",
"a  c #171528",
"s  c #191728",
"d  c #1C1B2D",
"f  c #1E1B30",
"g  c #231C26",
"h  c #231F28",
"j  c #2F1223",
"k  c #331523",
"l  c #391726",
"z  c #3B1926",
"x  c #3E1A29",
"c  c #341C28",
"v  c #201C31",
"b  c #1B232B",
"n  c #1D2732",
"m  c #1D2934",
"M  c #1C2B3C",
"N  c #262827",
"B  c #24232E",
"V  c #3F2D28",
"C  c #3A3023",
"Z  c #232236",
"A  c #232B34",
"S  c #27273A",
"D  c #252D39",
"F  c #2A2D39",
"G  c #2A323D",
"H  c #27313C",
"J  c #3B3D3E",
"K  c #411E1D",
"L  c #4D2D04",
"P  c #45240E",
"I  c #45211E",
"U  c #4E391F",
"Y  c #693D00",
"T  c #613702",
"R  c #633C19",
"E  c #441D2D",
"W  c #491F30",
"Q  c #462021",
"!  c #4E2522",
"~  c #572926",
"^  c #592A27",
"/  c #56252B",
"(  c #5C2B2D",
")  c #512A2A",
"_  c #572832",
"`  c #5E2A32",
"'  c #593737",
"]  c #533C36",
"[  c #622F2B",
"{  c #63312D",
"}  c #6D352F",
"|  c #773D2E",
" . c #642C33",
".. c #692E36",
"X. c #6B3237",
"o. c #723733",
"O. c #763935",
"+. c #7B3D37",
"@. c #773A38",
"#. c #7E3F38",
"$. c #7D4D11",
"%. c #584125",
"&. c #7F412D",
"*. c #78443F",
"=. c #2B2E42",
"-. c #2D3443",
";. c #2E3B47",
":. c #2F3F4D",
">. c #303645",
",. c #303A46",
"<. c #303548",
"1. c #333D4B",
"2. c #36414D",
"3. c #364451",
"4. c #394555",
"5. c #3A4957",
"6. c #3D4C5A",
"7. c #3F505E",
"8. c #40424F",
"9. c #414F5F",
"0. c #41505F",
"q. c #4C525D",
"w. c #75544D",
"e. c #445464",
"r. c #465768",
"t. c #4B5263",
"y. c #5A5F6C",
"u. c #5C616F",
"i. c #556376",
"p. c #5B6576",
"a. c #823F38",
"s. c #884F03",
"d. c #9D5C03",
"f. c #985A08",
"g. c #82461E",
"h. c #914F1C",
"j. c #A75F08",
"k. c #A86400",
"l. c #A56008",
"z. c #B36801",
"x. c #894924",
"c. c #965224",
"v. c #83413A",
"b. c #CD7712",
"n. c #8C574F",
"m. c #865F58",
"M. c #835E56",
"N. c #A05E54",
"B. c #B17569",
"V. c #DE8207",
"C. c #B38375",
"Z. c #606B82",
"A. c #67738C",
"S. c #727E97",
"D. c #727E98",
"F. c #74819A",
"G. c #828DA7",
"H. c #8492AF",
"J. c #8B94AF",
"K. c #939FBA",
"L. c #9AA2BC",
"P. c #95A0BB",
"I. c #D89D8E",
"U. c #F1AC9A",
"Y. c #A6AFC5",
"T. c #AFBAD3",
"R. c #B2BBD1",
"E. c #BCC4D9",
"W. c #C2C9DB",
"Q. c #CCD4E2",
"!. c None",
/* pixels */
"!.!.!.!.!.!.!.!.!.!.!.!.!.!.!.!.!.!.!.!.!.!.!.!.!.!.!.!.!.!.!.!.!.!.!.!.!.!.!.!.!.!.!.!.!.!.!.!.!.!.",
"!.!.!.!.!.!.!.!.!.!.!.!.!.!.!.!.!.!.!.!.!.!.!.!.!.!.!.!.!.!.!.!.!.!.!.!.!.!.!.!.!.!.!.!.!.!.!.!.!.!.",
"!.!.!.!.!.!.!.!.!.!.!.!.!.!.!.!.!.!.!.!.!.!.!.!.!.!.!.!.!.!.!.!.!.!.!.!.!.!.!.!.!.!.!.!.!.!.!.!.!.!.",
"!.!.!.!.!.!.!.!.!.!.!.!.r I I I !.!.!.!.!.!.!.!.!.!.!.!.!.!.!.!.!.!.!.!.!.!.!.!.!.!.!.!.!.!.!.!.!.!.",
"!.!.!.!.!.!.!.!.!.!.!.! +.v.v.v.^ !.!.!.!.!.!.!.!.!.!.!.!.!.!.!.!.!.!.!.!.!.!.!.!.!.!.!.!.!.!.!.!.!.",
"!.!.!.!.!.!.!.!.!.!.!.} a.+.*.+.O.q !.!.!.!.!.!.!.!.!.!.!.!.!.!.!.!.!.!.!.!.!.!.!.!.!.!.!.!.!.!.!.!.",
"!.!.!.!.!.!.!.!.!.!.!.I [ I o.e . @ !.!.!.!.!.!.!.!.!.!.!.!.!.!.!.!.!.!.!.!.!.!.!.!.!.!.!.!.!.!.!.!.",
"!.!.!.!.!.!.!.!.!.!.!.r { ~ ( 9 ] w.!.!.!.!.!.!.!.!.!.!.!.!.!.!.!.!.!.!.!.!.!.!.!.!.!.!.!.!.!.!.!.!.",
"!.!.!.!.!.!.!.!.!.!.!.6 I ~ ' C.I.m.!.!.!.!.!.!.!.!.!.!.!.!.!.!.!.!.!.!.!.!.!.!.!.!.!.!.!.!.!.!.!.!.",
"!.!.!.!.!.!.!.!.!.!.!.!.I ( M.U.B.V !.!.!.!.!.!.!.!.!.!.!.!.!.!.!.!.!.!.!.!.!.!.!.!.!.!.!.!.!.!.!.!.",
"!.!.!.!.!.!.!.!.!.!.!.6 O.Q *.N.n.  !.!.!.!.!.!.!.!.!.!.!.!.!.!.!.!.!.!.!.!.!.!.!.!.!.!.!.!.!.!.!.!.",
"!.!.!.!.!.!.!.!.!.!.!.r O.1 I v.) = !.!.!.!.!.!.!.!.!.!.!.!.!.!.!.!.!.!.!.!.!.!.!.!.!.!.!.!.!.!.!.!.",
"!.!.!.!.!.!.!.!.!.!.!.q _ 8 w ( w = !.!.!.!.!.!.!.!.!.!.!.!.!.!.!.!.!.!.!.!.!.!.!.!.!.!.!.!.!.!.!.!.",
"!.!.!.!.!.!.!.!.!.!.!.  8 E 4 = = !.!.!.!.!.!.!.!.!.!.!.!.!.!.!.!.!.!.!.!.!.!.!.!.!.!.!.!.!.!.!.!.!.",
"!.!.!.!.!.!.!.!.!.!.# t 6 8 * 3 P !.!.!.!.!.!.!.!.!.!.!.!.!.!.!.!.!.!.!.!.!.!.!.!.!.!.!.!.!.!.!.!.!.",
"!.!.!.!.!.!.!.!.!.t { v.o.r r L l.z = !.!.!.!.!.!.!.!.!.!.!.!.!.!.!.!.!.!.!.!.!.!.!.!.!.!.!.!.!.!.!.",
"!.!.!.!.!.!.!.!.I o.a.#.v.v.+.d.T b.c.k 3 !.!.!.!.!.!.!.!.!.!.!.!.!.!.!.!.!.!.!.!.!.!.!.!.!.!.!.!.!.",
"!.!.!.!.!.!.!.^ +.a.a.a.&.O.{ d.N L s.V.R -.m 0 = !.!.!.!.!.t.!.!.!.!.!.!.!.!.!.!.!.!.!.!.!.!.!.!.!.",
"!.!.!.!.!.!.. o.#.#.*.a.@.` h.%.2.- r 2 9 Z u k E x l &   o u.!.!.!.!.!.!.!.!.!.!.!.!.!.!.!.!.!.!.!.",
"!.!.!.!.!.!.0 E #.a.@.o.+.x.g.3.,.j W 8 !.!.!.!.x z c E Q k y.2.i.i.p.S.D.D.J.P.P.R.E.E.E.E.E.E.!.!.",
"!.!.!.!.!.+ E 0 ! X.&.c.z.k.,.3.- E E !.!.!.!.!.!.$ p.0 x x u.t.F.S.S.S.F.G.L.L.Y.E.E.W.Q.Q.Q.Q.W.!.",
"!.!.!.!.!.+ x   o x.j.d.C m 0.-.j k * !.!.!.!.!.!.!.8.!.& - u.D e.9.e.9.9.Z.A.A.F.H.H.L.R.R.R.R.!.!.",
"!.!.!.!.!.8 j !.!.Y U M 6.r.3.% + !.!.!.!.!.!.!.!.!.!.!.!.  u.!.!.!.!.!.!.!.!.!.!.!.!.!.!.!.!.!.!.!.",
"!.!.!.!.!.k 3 !.!.m 4.e.t.1.v X !.!.!.!.!.!.!.!.!.!.!.!.!.!.A !.!.!.!.!.!.!.!.!.!.!.!.!.!.!.!.!.!.!.",
"!.!.!.!.!.5 !.!.!.-.G v S Z d X !.!.!.!.!.!.!.!.!.!.!.!.!.!.!.!.!.!.!.!.!.!.!.!.!.!.!.!.!.!.!.!.!.!.",
"!.!.!.!.!.5 !.!.!.$ 4 > a a u X !.!.!.!.!.!.!.!.!.!.!.!.!.!.!.!.!.!.!.!.!.!.!.!.!.!.!.!.!.!.!.!.!.!.",
"!.!.!.!.= l !.!.!.  3 = + & o !.!.!.!.!.!.!.!.!.!.!.!.!.!.!.!.!.!.!.!.!.!.!.!.!.!.!.!.!.!.!.!.!.!.!.",
"!.!.!.!.3 l !.!.  o 3 = 5 5 + !.!.!.!.!.!.!.!.!.!.!.!.!.!.!.!.!.!.!.!.!.!.!.!.!.!.!.!.!.!.!.!.!.!.!.",
"!.!.!.!.!.+ !.!.  * B A D A A b !.!.!.!.!.!.!.!.!.!.!.!.!.!.!.!.!.!.!.!.!.!.!.!.!.!.!.!.!.!.!.!.!.!.",
"!.!.!.!.!.!.!.!.p 4 F r.r.e.e.6.!.!.!.!.!.!.!.!.!.!.!.!.!.!.!.!.!.!.!.!.!.!.!.!.!.!.!.!.!.!.!.!.!.!.",
"!.!.!.!.!.!.!.!.> 7 5.0.e.e.e.e.b !.!.!.!.!.!.!.!.!.!.!.!.!.!.!.!.!.!.!.!.!.!.!.!.!.!.!.!.!.!.!.!.!.",
"!.!.!.!.!.!.!.i 7 g 3.D e.5.D e.,.!.!.!.!.!.!.!.!.!.!.!.!.!.!.!.!.!.!.!.!.!.!.!.!.!.!.!.!.!.!.!.!.!.",
"!.!.!.!.!.!.!.O 3 ,.A Z e.9.u 4.5.!.!.!.!.!.!.!.!.!.!.!.!.!.!.!.!.!.!.!.!.!.!.!.!.!.!.!.!.!.!.!.!.!.",
"!.!.!.!.!.!.X g 7 2.b d 1.4.y 3.e.n !.!.!.!.!.!.!.!.!.!.!.!.!.!.!.!.!.!.!.!.!.!.!.!.!.!.!.!.!.!.!.!.",
"!.!.!.!.!.!.i = h 3., v Z S , 2.e.;.!.!.!.!.!.!.!.!.!.!.!.!.!.!.!.!.!.!.!.!.!.!.!.!.!.!.!.!.!.!.!.!.",
"!.!.!.!.!.!.> 0 -.D s v v f < 3.e.6.: !.!.!.!.!.!.!.!.!.!.!.!.!.!.!.!.!.!.!.!.!.!.!.!.!.!.!.!.!.!.!.",
"!.!.!.!.!.< < 8 3.i d v v v y 3.e.6.$ !.!.!.!.!.!.!.!.!.!.!.!.!.!.!.!.!.!.!.!.!.!.!.!.!.!.!.!.!.!.!.",
"!.!.!.!.!.X 4 B e.d d v v v , 3.e.6.$ !.!.!.!.!.!.!.!.!.!.!.!.!.!.!.!.!.!.!.!.!.!.!.!.!.!.!.!.!.!.!.",
"!.!.!.!.!.B 4 G ;.y v v v d y 4.e.6.% !.!.!.!.!.!.!.!.!.!.!.!.!.!.!.!.!.!.!.!.!.!.!.!.!.!.!.!.!.!.!.",
"!.!.!.!.D g - 7.,.y v v v s A e.e.2.!.!.!.!.!.!.!.!.!.!.!.!.!.!.!.!.!.!.!.!.!.!.!.!.!.!.!.!.!.!.!.!.",
"!.!.!.p 2.7 B 6.A s v v v s Z e.e.b !.!.!.!.!.!.!.!.!.!.!.!.!.!.!.!.!.!.!.!.!.!.!.!.!.!.!.!.!.!.!.!.",
"!.!.!.3.-.3 G e., f v v v y ,.e.e.n !.!.!.!.!.!.!.!.!.!.!.!.!.!.!.!.!.!.!.!.!.!.!.!.!.!.!.!.!.!.!.!.",
"!.!.; 6.g 7 5.7.y f v v d i 7.e.6.y !.!.!.!.!.!.!.!.!.!.!.!.!.!.!.!.!.!.!.!.!.!.!.!.!.!.!.!.!.!.!.!.",
"!.!.G 6.7 h e.6.i d v v s G e.0.-.% !.!.!.!.!.!.!.!.!.!.!.!.!.!.!.!.!.!.!.!.!.!.!.!.!.!.!.!.!.!.!.!.",
"!.!.2.F 3 ,.e.H u v v f =.0.0.1.v % !.!.!.!.!.!.!.!.!.!.!.!.!.!.!.!.!.!.!.!.!.!.!.!.!.!.!.!.!.!.!.!.",
"!.: ;.-.7 4.e.G u f f Z 6.e.-.u y !.!.!.!.!.!.!.!.!.!.!.!.!.!.!.!.!.!.!.!.!.!.!.!.!.!.!.!.!.!.!.!.!.",
"!.. 0 ,.1.r.r.3.d v <.4.9.<.s + 1 !.!.!.!.!.!.!.!.!.!.!.!.!.!.!.!.!.!.!.!.!.!.!.!.!.!.!.!.!.!.!.!.!.",
"!.1 / O b b i S Z Z <.<.=., X 1  .# !.!.!.!.!.!.!.!.!.!.!.!.!.!.!.!.!.!.!.!.!.!.!.!.!.!.!.!.!.!.!.!.",
"!.!.e e   !.!.!.o O O X O !.!.1 ../ 0 !.!.!.!.!.!.!.!.!.!.!.!.!.!.!.!.!.!.!.!.!.!.!.!.!.!.!.!.!.!.!.",
"!.!.( ` . !.!.!.!.!.!.!.!.!.!.1 .... .!.!.!.!.!.!.!.!.!.!.!.!.!.!.!.!.!.!.!.!.!.!.!.!.!.!.!.!.!.!.!."
};
