/* XPM */
static char *result[] = {
/* columns rows colors chars-per-pixel */
"50 50 165 2 ",
"   c #020102",
".  c #0B0304",
"X  c #05050B",
"o  c #0C0409",
"O  c #05090C",
"+  c #130505",
"@  c #12060B",
"#  c #180708",
"$  c #1B0A0D",
"%  c #190706",
"&  c #0A0611",
"*  c #0C0C14",
"=  c #0F0E19",
"-  c #000D1C",
";  c #170710",
":  c #1C0A12",
">  c #160B15",
",  c #0F151B",
"<  c #141113",
"1  c #13131D",
"2  c #1D151D",
"3  c #13181F",
"4  c #230B0C",
"5  c #2B110D",
"6  c #230C15",
"7  c #250D19",
"8  c #290D18",
"9  c #2A0E12",
"0  c #261110",
"q  c #2C1114",
"w  c #2C111C",
"e  c #24131D",
"r  c #331315",
"t  c #371814",
"y  c #351419",
"u  c #371818",
"i  c #3C1B1A",
"p  c #3A171B",
"a  c #0C1926",
"s  c #151222",
"d  c #161C23",
"f  c #1A1E26",
"g  c #1B1C2A",
"h  c #111F2A",
"j  c #1E1C30",
"k  c #2F1420",
"l  c #221821",
"z  c #331421",
"x  c #391726",
"c  c #351821",
"v  c #3C1924",
"b  c #3F1A29",
"n  c #201C31",
"m  c #1B232B",
"M  c #1E2430",
"N  c #1D2933",
"B  c #24252F",
"V  c #222334",
"C  c #222B34",
"Z  c #26273A",
"A  c #252E38",
"S  c #282A3C",
"D  c #282B33",
"F  c #26313A",
"G  c #2A343F",
"H  c #421E1A",
"J  c #5D3D0F",
"K  c #47221F",
"L  c #48211D",
"P  c #683900",
"I  c #451D23",
"U  c #491E24",
"Y  c #411B2D",
"T  c #4C2323",
"R  c #522722",
"E  c #562924",
"W  c #592B25",
"Q  c #53242A",
"!  c #562828",
"~  c #5C2B2B",
"^  c #5B272E",
"/  c #42302C",
"(  c #4C2132",
")  c #5E2A31",
"_  c #533A37",
"`  c #612E2A",
"'  c #63312C",
"]  c #6B342F",
"[  c #642C34",
"{  c #6A2E37",
"}  c #6D3432",
"|  c #6B3038",
" . c #713732",
".. c #753934",
"X. c #7C3C36",
"o. c #7E3E38",
"O. c #794039",
"+. c #2C3343",
"@. c #2D3944",
"#. c #303C47",
"$. c #303548",
"%. c #323D4A",
"&. c #35424E",
"*. c #364451",
"=. c #394554",
"-. c #3B4956",
";. c #3E4C5A",
":. c #3F505E",
">. c #414F5D",
",. c #43475D",
"<. c #41505F",
"1. c #694C45",
"2. c #7A4A42",
"3. c #455464",
"4. c #485768",
"5. c #4A5B6B",
"6. c #515F72",
"7. c #536073",
"8. c #576578",
"9. c #5A677C",
"0. c #813F39",
"q. c #874D00",
"w. c #894E00",
"e. c #865000",
"r. c #945700",
"t. c #85491B",
"y. c #A15D00",
"u. c #AE6600",
"i. c #BD6F00",
"p. c #B36606",
"a. c #B46610",
"s. c #834139",
"d. c #8B453B",
"f. c #8E4934",
"g. c #AD5E2C",
"h. c #BE6A22",
"j. c #C77315",
"k. c #DA7D1D",
"l. c #C87125",
"z. c #8C4B43",
"x. c #8F685E",
"c. c #A56A5F",
"v. c #AF6C61",
"b. c #A7796D",
"n. c #E78517",
"m. c #E38318",
"M. c #CB887B",
"N. c #616E84",
"B. c #67758B",
"V. c #6F7C96",
"C. c #717D97",
"Z. c #77839D",
"A. c #7E89A3",
"S. c #848EA9",
"D. c #8C96B4",
"F. c #8B98B4",
"G. c #909DB8",
"H. c #97A1BA",
"J. c #D79889",
"K. c #F0AF9C",
"L. c #F2B09E",
"P. c #FFBBA8",
"I. c #A5AFC8",
"U. c #A3ADC6",
"Y. c None",
/* pixels */
"Y.Y.Y.Y.Y.Y.Y.Y.Y.Y.Y.Y.Y.Y.Y.Y.Y.Y.Y.Y.Y.Y.Y.Y.Y.Y.Y.Y.Y.Y.Y.Y.Y.Y.Y.Y.Y.Y.Y.Y.Y.Y.Y.Y.Y.Y.Y.Y.Y.Y.",
"Y.Y.Y.Y.Y.Y.Y.Y.Y.Y.Y.Y.Y.Y.Y.Y.Y.Y.Y.Y.Y.Y.Y.Y.Y.Y.Y.Y.Y.Y.Y.Y.Y.Y.Y.Y.Y.Y.Y.Y.Y.Y.Y.Y.Y.Y.Y.Y.Y.Y.",
"Y.Y.Y.Y.Y.Y.Y.Y.Y.Y.Y.Y.Y.Y.Y.Y.Y.Y.Y.Y.Y.Y.Y.Y.Y.Y.Y.Y.Y.Y.Y.Y.Y.Y.Y.Y.Y.Y.Y.Y.Y.Y.Y.Y.Y.Y.Y.Y.Y.Y.",
"Y.Y.Y.Y.Y.Y.Y.Y.Y.Y.Y.Y.Y.Y.Y.Y.Y.Y.Y.Y.Y.Y.Y.Y.Y.Y.Y.W ' ' ' ' ' ' E . o Y.Y.Y.Y.Y.Y.Y.Y.Y.Y.Y.Y.Y.",
"Y.Y.Y.Y.Y.Y.Y.Y.Y.Y.Y.Y.Y.Y.Y.Y.Y.Y.Y.Y.Y.Y.Y.Y.Y.Y.O.d.s.s.s.s.s.s.O.X.] Y.Y.Y.Y.Y.Y.Y.Y.Y.Y.Y.Y.Y.",
"Y.Y.Y.Y.Y.Y.Y.Y.Y.Y.Y.Y.Y.Y.Y.Y.Y.Y.Y.Y.Y.Y.Y.Y.Y.i H K [ ..s.' ~ s...R ..Y.Y.Y.Y.Y.Y.Y.Y.Y.Y.Y.Y.Y.",
"Y.Y.Y.Y.Y.Y.Y.Y.Y.Y.Y.Y.Y.Y.Y.Y.Y.Y.Y.Y.Y.Y.Y.Y.Y.x.,   o (  .} i K ..T 0 Y.Y.Y.Y.Y.Y.Y.Y.Y.Y.Y.Y.Y.",
"Y.Y.Y.Y.Y.Y.Y.Y.Y.Y.Y.Y.Y.Y.Y.Y.Y.Y.Y.Y.Y.Y.Y.Y.Y.L.J.b b.1.u | E 0 ..' Y.Y.Y.Y.Y.Y.Y.Y.Y.Y.Y.Y.Y.Y.",
"Y.Y.Y.Y.Y.Y.Y.Y.Y.Y.Y.Y.Y.Y.Y.Y.Y.Y.Y.Y.Y.Y.Y.Y.Y.b.J.M.L.P.1.0 X.` $ X Y.Y.Y.Y.Y.Y.Y.Y.Y.Y.Y.Y.Y.Y.",
"Y.Y.Y.Y.Y.Y.Y.Y.Y.Y.Y.Y.Y.Y.Y.Y.Y.Y.Y.Y.Y.Y.Y.Y.Y.O c.z.v.M.2.q T s. .u Y.Y.Y.Y.Y.Y.Y.Y.Y.Y.Y.Y.Y.Y.",
"Y.Y.Y.Y.Y.Y.Y.Y.Y.Y.D.F.D.Y.Y.Y.Y.Y.Y.Y.Y.Y.Y.Y.  k _ O.0...R + : | s. .Y.Y.Y.Y.Y.Y.Y.Y.Y.Y.Y.Y.Y.Y.",
"Y.Y.Y.Y.Y.Y.Y.Y.Y.G.I.I.U.A.Z.C.V.C.Y.Y.Y.Y.Y.Y.  v o W  .i y 6 : ( ) ~ Y.Y.Y.Y.Y.Y.Y.Y.Y.Y.Y.Y.Y.Y.",
"Y.Y.Y.Y.Y.Y.Y.Y.Y.Y.D.F.D.H.H.S.A.Z.B.8.6.6.7.6.Y.& 7 : : 8 6 z ( Y w 0 Y.Y.Y.Y.Y.Y.Y.Y.Y.Y.Y.Y.Y.Y.",
"Y.Y.Y.Y.Y.Y.Y.Y.Y.Y.Y.Y.Y.Y.Y.Y.Y.Y.9.N.8.9.8.,.%.$.C e 6 X o 6 6 q R ..t   t . Y.Y.Y.Y.Y.Y.Y.Y.Y.Y.",
"Y.Y.Y.Y.Y.Y.Y.Y.Y.Y.Y.Y.Y.Y.Y.Y.Y.Y.Y.Y.Y.Y.Y.Y.$.+.+.X r.t.! ~ E ' s.s.0.W 5 L W 4 Y.Y.Y.Y.Y.Y.Y.Y.",
"Y.Y.Y.Y.Y.Y.Y.Y.Y.Y.Y.Y.Y.Y.Y.Y.Y.Y.Y.Y.Y.Y.Y.Y.Y.Y.Y.  u.h.d.s.s.s.o.o.o.X.% ` O...4   X Y.Y.Y.Y.Y.",
"Y.Y.Y.Y.Y.Y.Y.Y.Y.Y.Y.Y.Y.Y.Y.Y.Y.Y.Y.Y.Y.Y.Y.Y.Y.Y.Y.    i.l...o.o.o.0.o.o.X.+ W d.5 m #.* Y.Y.Y.Y.",
"Y.Y.Y.Y.Y.Y.Y.Y.Y.Y.Y.Y.Y.Y.Y.Y.Y.Y.Y.Y.Y.Y.Y.Y.Y.Y.Y.m N J p.g.o.o.o.o.s.o.X.. ' R : m ;.G Y.Y.Y.Y.",
"Y.Y.Y.Y.Y.Y.Y.Y.Y.Y.Y.Y.Y.Y.Y.Y.Y.Y.Y.Y.Y.Y.Y.Y.Y.Y.Y.&.5.- y.k.X.o.o.0.o.0.0.` 5 Y.X   X Y.Y.Y.Y.Y.",
"Y.Y.Y.Y.Y.Y.Y.Y.Y.Y.Y.Y.Y.Y.Y.Y.Y.Y.Y.Y.Y.Y.Y.Y.Y.Y.Y.&.4.m q.j.f.o.o.o.o.O.o.s.+ Y.Y.Y.Y.Y.Y.Y.Y.Y.",
"Y.Y.Y.Y.Y.Y.Y.Y.Y.Y.Y.Y.Y.Y.Y.Y.Y.Y.Y.Y.Y.Y.Y.Y.Y.Y.Y.=.3.3.a q.m.X.o.o.X.s.0.o.H . Y.Y.Y.Y.Y.Y.Y.Y.",
"Y.Y.Y.Y.Y.Y.Y.Y.Y.Y.Y.Y.Y.Y.Y.Y.Y.Y.Y.Y.Y.Y.Y.Y.Y.Y.-.3.3.4.a q.m.X.0.o.O.o.o.0.L . Y.Y.Y.Y.Y.Y.Y.Y.",
"Y.Y.Y.Y.Y.Y.Y.Y.Y.Y.Y.Y.Y.Y.Y.Y.Y.Y.Y.Y.Y.Y.Y.Y.Y.Y.=.3.3.4.a q.n.0.s.O... .4 + 1 +.3 Y.Y.Y.Y.Y.Y.Y.",
"Y.Y.Y.Y.Y.Y.Y.Y.Y.Y.Y.Y.Y.Y.Y.Y.Y.Y.Y.Y.Y.Y.Y.Y.Y.=.3.3.3.3.a P a.` ' R . .     C 3.d Y.Y.Y.Y.Y.Y.Y.",
"Y.Y.Y.Y.Y.Y.Y.Y.Y.Y.Y.Y.Y.Y.Y.Y.Y.Y.Y.Y.Y.Y.Y.Y.Y.;.3.3.3.3.+.m d * * &   Y.  Q p B , Y.Y.Y.Y.Y.Y.Y.",
"Y.Y.Y.Y.Y.Y.Y.Y.Y.Y.Y.Y.Y.Y.Y.Y.Y.Y.Y.Y.Y.Y.Y.Y.Y.;.3.C *.3.=.+.S j g X   Y.  Q { # Y.Y.Y.Y.Y.Y.Y.Y.",
"Y.Y.Y.Y.Y.Y.Y.Y.Y.Y.Y.Y.Y.Y.Y.Y.Y.Y.Y.Y.Y.Y.Y.Y.Y.&., k 1 g j = . o     Y.  U [ 4 Y.Y.Y.Y.Y.Y.Y.Y.Y.",
"Y.Y.Y.Y.Y.Y.Y.Y.Y.Y.Y.Y.Y.Y.Y.Y.Y.Y.Y.Y.Y.Y.Y.Y.# : $ z :   . q I I r   Y.+ ) Q . Y.Y.Y.Y.Y.Y.Y.Y.Y.",
"Y.Y.Y.Y.Y.Y.Y.Y.Y.Y.Y.Y.Y.Y.Y.Y.Y.Y.Y.Y.Y.Y.Y.m y y y   z ; $ $       q q [ [ . Y.Y.Y.Y.Y.Y.Y.Y.Y.Y.",
"Y.Y.Y.Y.Y.Y.Y.Y.Y.Y.Y.Y.Y.Y.Y.Y.Y.Y.Y.Y.Y.Y.@.<.F F F G e 7 o   $ i I { { [ 9 Y.Y.Y.Y.Y.Y.Y.Y.Y.Y.Y.",
"Y.Y.Y.Y.Y.Y.Y.Y.Y.Y.Y.Y.Y.Y.Y.Y.Y.Y.Y.Y.d =.3.3.3.4.3.4.d w 6 f D @ 4 ^ Q + Y.Y.Y.Y.Y.Y.Y.Y.Y.Y.Y.Y.",
"Y.Y.Y.Y.Y.Y.Y.Y.Y.Y.Y.Y.Y.Y.Y.Y.Y.Y.X C 3.3.3.3.%.@.>.3.3.3 8 6 m &.* * Y.Y.Y.Y.Y.Y.Y.Y.Y.Y.Y.Y.Y.Y.",
"Y.Y.Y.Y.Y.Y.Y.Y.Y.Y.Y.Y.Y.Y.Y.Y.Y., #.3.3.3.;.C = m ;.3.3.+.l 6 l $.3.=.Y.Y.Y.Y.Y.Y.Y.Y.Y.Y.Y.Y.Y.Y.",
"Y.Y.Y.Y.Y.Y.Y.Y.Y.Y.Y.Y.Y.Y.Y.Y.  F 4.3.3.*.3 s n 3.3.3.3.G O 6 w , 3.=.Y.Y.Y.Y.Y.Y.Y.Y.Y.Y.Y.Y.Y.Y.",
"Y.Y.Y.Y.Y.Y.Y.Y.Y.Y.Y.Y.Y.Y.Y.Y.A >.3.3.3.G X n n >.3.>.$.X m C : k d @.Y.Y.Y.Y.Y.Y.Y.Y.Y.Y.Y.Y.Y.Y.",
"Y.Y.Y.Y.Y.Y.Y.Y.Y.Y.Y.Y.Y.Y.Y.Y.+.3.3.3.+.X g n V 3.=.Z n X F @.2 w o   Y.Y.Y.Y.Y.Y.Y.Y.Y.Y.Y.Y.Y.Y.",
"Y.Y.Y.Y.Y.Y.Y.Y.Y.Y.Y.Y.Y.Y.Y.Y.G 3.3.*.f s n n n $.n n n & C 5.A @ v   Y.Y.Y.Y.Y.Y.Y.Y.Y.Y.Y.Y.Y.Y.",
"Y.Y.Y.Y.Y.Y.Y.Y.Y.Y.Y.Y.Y.Y.Y.C ;.3.4.C X n n n n n n n n X A 4.=.C : e Y.Y.Y.Y.Y.Y.Y.Y.Y.Y.Y.Y.Y.Y.",
"Y.Y.Y.Y.Y.Y.Y.Y.Y.Y.Y.Y.Y.Y.Y.&.4.3.3.A X n n n n n n n V & C <.%.* ; x . Y.Y.Y.Y.Y.Y.Y.Y.Y.Y.Y.Y.Y.",
"Y.Y.Y.Y.Y.Y.Y.Y.Y.Y.Y.Y.Y.Y.Y.#.3.3.3.A X n n n n n n n j n s g &.3.%.. b   Y.Y.Y.Y.Y.Y.Y.Y.Y.Y.Y.Y.",
"Y.Y.Y.Y.Y.Y.Y.Y.Y.Y.Y.Y.Y.Y.Y.%.3.3.3.&.f 1 n j n n n n n n n * d 3.-.C 6 6 Y.Y.Y.Y.Y.Y.Y.Y.Y.Y.Y.Y.",
"Y.Y.Y.Y.Y.Y.Y.Y.Y.Y.Y.Y.Y.Y.F >.3.3.3.3.+.X j n n n n n n n n g 3 C 3.-.X b . Y.Y.Y.Y.Y.Y.Y.Y.Y.Y.Y.",
"Y.Y.Y.Y.Y.Y.Y.Y.Y.Y.Y.Y.Y.Y.=.3.<.3.3.3.3.G X n j n n n n n n n s m 3.:.*.o x X Y.Y.Y.Y.Y.Y.Y.Y.Y.Y.",
"Y.Y.Y.Y.Y.Y.Y.Y.Y.Y.Y.Y.Y.Y.*.3.3.3.3.3.3.#.  n n j n n n n n j +.3.3.3.:.g w : Y.Y.Y.Y.Y.Y.Y.Y.Y.Y.",
"Y.Y.Y.Y.Y.Y.Y.Y.Y.Y.Y.Y.Y.Y.*.3.3.3.3.3.3.;.N = j n n n n n n S =.3.3.3.3.;.X b @ Y.Y.Y.Y.Y.Y.Y.Y.Y.",
"Y.Y.Y.Y.Y.Y.Y.Y.Y.Y.Y.Y.Y.Y.* < #.>.;.;.3.3.<.@.= j n j n g n $.3.3.3.<.3.3.%.2 A O Y.Y.Y.Y.Y.Y.Y.Y.",
"Y.Y.Y.Y.Y.Y.Y.Y.Y.Y.Y.Y.Y.Y.Y.^ Y.Y.Y.m &.%.*.3.;.3.+.n S Z %.3.<.3.3.4.3.4.3.%.2 o Y.Y.Y.Y.Y.Y.Y.Y.",
"Y.Y.Y.Y.Y.Y.Y.Y.Y.Y.Y.Y.Y.Y.Y.Y.Y.Y.Y.Y.Y.Y.X A F F S ,.4.3.3.3.4.;.A A F F A   R | 4 Y.Y.Y.Y.Y.Y.Y.",
"Y.Y.Y.Y.Y.Y.Y.Y.Y.Y.Y.Y.Y.Y.Y.Y.Y.Y.Y.Y.Y.Y.Y.Y.Y.Y.Y.d f d m d d s Y.Y.Y.Y.r p 9 Q 4 Y.Y.Y.Y.Y.Y.Y.",
"Y.Y.Y.Y.Y.Y.Y.Y.Y.Y.Y.Y.Y.Y.Y.Y.Y.Y.Y.Y.Y.Y.Y.Y.Y.Y.Y.Y.Y.Y.Y.Y.Y.Y.Y.Y.Y.Y.) | Q ) 6 Y.Y.Y.Y.Y.Y.Y."
};
