/* XPM */
static char *_435aa38f75e4fd7af5c80bf35409ee4x9e5UuUWwdsKtBp1[] = {
/* columns rows colors chars-per-pixel */
"50 50 152 2 ",
"   c None",
".  c #482335",
"X  c #4F2D34",
"o  c #462439",
"O  c #49233A",
"+  c #4C293F",
"@  c #512C35",
"#  c #533239",
"$  c #58373E",
"%  c #4D2A40",
"&  c #512F44",
"*  c #5D3B47",
"=  c #5E3B49",
"-  c #63434F",
";  c #77564E",
":  c #654552",
">  c #735151",
",  c #7D5D5A",
"<  c #957365",
"1  c #967669",
"2  c #9A7A6B",
"3  c #9C7D75",
"4  c #9D7D79",
"5  c #9E846E",
"6  c #9E8471",
"7  c #9F8975",
"8  c #9F817A",
"9  c #9E8979",
"0  c #A58567",
"q  c #A3846B",
"w  c #AB896D",
"e  c #B28F67",
"r  c #B28F6D",
"t  c #B7966E",
"y  c #BE986C",
"u  c #A28572",
"i  c #A58A73",
"p  c #AC8A72",
"a  c #A1837D",
"s  c #A38C7A",
"d  c #AB8F7C",
"f  c #B28F75",
"g  c #A6907F",
"h  c #AA927E",
"j  c #B49176",
"k  c #BB9574",
"l  c #BF9977",
"z  c #B59379",
"x  c #B9967C",
"c  c #BB987D",
"v  c #BA9A7D",
"b  c #B9987E",
"n  c #BB997E",
"m  c #BC987C",
"M  c #BC997C",
"N  c #BD997C",
"B  c #BC987D",
"V  c #BC997D",
"C  c #BD997D",
"Z  c #BD987C",
"A  c #BD9A7C",
"S  c #BD9A7D",
"D  c #BE9A7C",
"F  c #BE9A7D",
"G  c #BE9B7D",
"H  c #BC997E",
"J  c #BD997E",
"K  c #BC997F",
"L  c #BD997F",
"P  c #BD987F",
"I  c #BE997E",
"U  c #BE997F",
"Y  c #BD9A7E",
"T  c #BD9B7E",
"R  c #BC9A7F",
"E  c #BD9A7F",
"W  c #BC9A7E",
"Q  c #BE9A7E",
"!  c #BE9B7E",
"~  c #BE9A7F",
"^  c #BE9B7F",
"/  c #BD9A7E",
"(  c #C0976D",
")  c #C1986B",
"_  c #C19974",
"`  c #C09A75",
"'  c #C29A75",
"]  c #C89E73",
"[  c #C29D78",
"{  c #C19C7C",
"}  c #C39E7C",
"|  c #DBA96D",
" . c #CCA276",
".. c #D9AB74",
"X. c #DDAD7B",
"o. c #D8AD7F",
"O. c #DAAC7E",
"+. c #DAAC7B",
"@. c #E9B26C",
"#. c #F5B961",
"$. c #F4B96C",
"%. c #FABE6A",
"&. c #E9B472",
"*. c #EBB877",
"=. c #EAB67C",
"-. c #F4BE75",
";. c #F9C17B",
":. c #A79080",
">. c #A49483",
",. c #A39385",
"<. c #A39387",
"1. c #A49385",
"2. c #A49484",
"3. c #A39285",
"4. c #A99383",
"5. c #A39488",
"6. c #A59589",
"7. c #A49589",
"8. c #A4978B",
"9. c #A6978A",
"0. c #A39588",
"q. c #A7998B",
"w. c #B49680",
"e. c #B19A87",
"r. c #B79880",
"t. c #BB9A80",
"y. c #BB9B80",
"u. c #BB9A81",
"i. c #BB9B81",
"p. c #BE9980",
"a. c #BC9A80",
"s. c #BD9B80",
"d. c #BE9A80",
"f. c #BA9C84",
"g. c #B99E87",
"h. c #BA9E87",
"j. c #BD9B81",
"k. c #B99E88",
"l. c #BA9F89",
"z. c #BAA28D",
"x. c #B8A08E",
"c. c #B9A28E",
"v. c #BCA38F",
"b. c #BEA088",
"n. c #BCA591",
"m. c #BCA492",
"M. c #BDA593",
"N. c #BCA696",
"B. c #C19E84",
"V. c #C2A28B",
"C. c #D1AA80",
"Z. c #C2AB9A",
/* pixels */
"                                                                                                    ",
"                                                                z.M.z.k.f.s 4.                      ",
"          <.s s s s s :.g g s s s s s s h e.l.M.Z.N.M.v.k.f.f.t.t.t.t.G v i i s 7 9 9 9             ",
"        8.6 q 5 q q q u i i p p z z x c c v t.p.t.t.p.G G G G G G G G G G w q q u u q 5             ",
"        8.6 q p j x c c P G G G G G G G G G G P v c c x x z j j f x G G G p 2 ; > , 6 5             ",
"        8.6 q x G G G G G G c c x x x z c c f f j z z x x c c v j j G G G p < X . * 3 6             ",
"        8.6 q x G v z z j j j j z x x f x c j G G G G G G G G G j j G G G p < @ O = 3 6             ",
"        8.6 q x G P f v G G G G G G p.z x c j G G G G G G G G G j z G G G p < @ O = 3 6             ",
"        8.6 q x G G f G G G G G G G G z c x z p.G G G G G G G G z z G G G p < @ O = 3 6             ",
"        8.6 q x G G f G G G G G G G G z c x z p.G G G G G G G G z z G G G p < @ O = 3 6             ",
"        5.6 q x G G f G G G G G G G G z x x z p.G G G G G G G G j j G G G p < @ O = 3 6             ",
"        <.6 q x G G f G G G G G G G G z x x f p.G G G G G P P c f j G G G p < @ O = 3 6             ",
"        <.5 w { G m j G G G v c c c x f x c f z z j j j j j j z z c G G G p < @ O = 3 6             ",
"        >.5 y O.` m f z j j j j j z z z G G x x c G G G G G G G G G G G G p < @ O = 3 6             ",
"        2.5 ) X.` G G G G G G G G G G G G G P c x x c x z z z z z x G G G p < @ O = 3 6             ",
"        1.5 ( O.l v x z z z z z z z j f c c f z z z z x x x x c j j G G G p < @ O = 3 6             ",
"        <.5 w [ m c f x c c c P G G G j x x j G G G G G G G G p.z z G G G i < @ O = 3 6             ",
"        <.6 q x p.P f G G G G G G G G j x x f G G G G G G G G p.z z G G m i < @ O = 8 6             ",
"        <.6 q x G G f G G G G G G G G j x c f G G G G G G G G G z z p.G x p 2 $ O = a u             ",
"        <.5 q x G G f G G G G G G G G z x x j G G G G G G G G G j z G G x i 1 $ & - a u             ",
"        <.5 q x G G j G G G G G G G G z x x j p.G G G G G G G G z j G v c p 2 # % : a u             ",
"        <.5 q x G G j G G G G G G G G z x x z p.G G G G G G G p.z j m c p.z 1 X o = 8 i             ",
"        <.5 q x G G j G G G G G G G G z x x z p.G G G G G G G m k '  .` G z 1 # + : 4 6             ",
"        <.5 q x G G j G G G G G G G G z x x z p.G G G G G v m  .=.-.-.*. .p 2 $ & - 3 5             ",
"        <.6 q x G G f G G G G G G G G z c x z p.G G G G G v m +.;.%.#.$...r < @ O = 3 5             ",
"        <.6 q x G G f G G G G G G G G z c x z G m v v p.B.j.B.[ +.&.@.| ] f < X O = 3 6             ",
"        <.6 q x G P f G G G G G G G G z c x f G G j.j.v B.B.B.v j k } { v p < @ O = 3 6             ",
"        <.6 q x G P f G G G G G G G G z x x f p.B.j.c c t.G p.B.x x t.c c p < @ O = 3 6             ",
"        <.6 q x G m f x x x x x x c c f x x p p.B.p.p.j.j.B.p.t.z z v v v p < @ O = 3 6             ",
"        <.6 q x G G x x x z z z z z z j x x j j z z z z z x x j p z G m v p < @ O = 3 6             ",
"        <.6 q x G G c c x c c c c c c x v v v x c c c p.B.j.G c G G G G G p < @ O = 3 6             ",
"        <.6 q x G G f z z z z z z j j j t.t.x z f j f j j j j j j c G G G p < @ O = 3 6             ",
"        <.6 0 x G v j t.G G G G v c G v x t.z t.t.c c v c c c c j z G G v p < @ O = 3 6             ",
"        <.5 t C.m v j v p.G v v p.p.p.c t.t.z f.B.G G G G G G p.z z G G G p < @ O = 3 6             ",
"        1.5 y O.` m f v B.B.j.B.j.j.B.c x t.x j.G G G G G G G G z z G G G p < @ O = 3 6             ",
"        1.5 y +.` m f c c p.B.B.v x p.t.x z f v v G G G G G G G z z G G G p < @ O = 3 6             ",
"        <.5 e  .l x f G p.p.p.j.B.j.j.c x x j G G G G G G G G G z z G G v p < @ O = 3 6             ",
"        <.6 0 j m v x j.p.j.B.p.t.j.j.z z x j G G G G G G G G G z z G G c p < @ O = 3 6             ",
"        <.7 i r.v x c p.c c B.B.c v v z x x j G G G G G G G G G x z G G c p < @ O = 3 6             ",
"        <.6 i i.B.v z B.B.j.B.p.v v p.z x x j G G G G G G G G G x z G G c p < @ O = 3 6             ",
"        <.7 i x p.j.z t.p.G v v G G G z x x z p.G G G G G G G G j z G G G p < @ O = 3 6             ",
"        3.7 i x c t.x j.v v v G G G G z c x z p.G G G G G G G G j j G G G p < @ O = 3 6             ",
"        <.6 i t.B.p.z v v G G G G G G z x x z p.G G G G G G G G j j G G G p < @ O = 3 6             ",
"        q.7 i v G x f x v G G G G G p.z x x f p.G G G G G G G G j j G G G p < @ O = 3 6             ",
"        5.6 q x v G z z z j j j j z x j x x j G G G G G G G G G z j G G G i < @ O = 3 6             ",
"          6 5 w.t.t.p.G G G G c x c x x v v j j j z z z z x c v z j G G G i 2 # o * 4 6             ",
"                            t.t.j.j.j.p.t.p.G G v c c c x z z j f x G G G w d                       ",
"                                            f.f.t.p.p.f.p.p.p.p.p.G v G G w h                       ",
"                                                            b.V.f.t.p.t.v i h                       ",
"                                                                                                    "
};
