/* XPM */
static char *b1231f37c9e347fbcce53d20b238aa7cy69xdrH0tedDySqx[] = {
/* columns rows colors chars-per-pixel */
"50 50 146 2 ",
"   c None",
".  c #472437",
"X  c #492436",
"o  c #4E2B37",
"O  c #47253D",
"+  c #49253F",
"@  c #4D2B39",
"#  c #522D37",
"$  c #542C3A",
"%  c #5E363B",
"&  c #68423F",
"*  c #492540",
"=  c #4D2B44",
"-  c #502E46",
";  c #512E48",
":  c #523046",
">  c #5F3C46",
",  c #533149",
"<  c #5E3C48",
"1  c #613F4C",
"2  c #634041",
"3  c #6E4642",
"4  c #62424D",
"5  c #704641",
"6  c #734942",
"7  c #654450",
"8  c #79585F",
"9  c #7A5760",
"0  c #7A5961",
"q  c #805D66",
"w  c #805F68",
"e  c #836360",
"r  c #9D7E6E",
"t  c #9F7C70",
"y  c #A17D6F",
"u  c #A07B70",
"i  c #9E826E",
"p  c #9E8674",
"a  c #9F8875",
"s  c #9F897A",
"d  c #A3846E",
"f  c #BB946C",
"g  c #A18375",
"h  c #A88272",
"j  c #A18975",
"k  c #AE8B76",
"l  c #A58B7A",
"z  c #A88F7C",
"x  c #A7917E",
"c  c #AC927C",
"v  c #B39177",
"b  c #BA9572",
"n  c #BE9A77",
"m  c #B79479",
"M  c #B79679",
"N  c #B6947A",
"B  c #B7957A",
"V  c #B59479",
"C  c #B59379",
"Z  c #B8937A",
"A  c #B89579",
"S  c #B99579",
"D  c #B89479",
"F  c #B8957A",
"G  c #B9957A",
"H  c #B9957B",
"J  c #B8967A",
"K  c #B9967A",
"L  c #B8967B",
"P  c #BA967A",
"I  c #BA967B",
"U  c #BA977B",
"Y  c #B9957C",
"T  c #B8967C",
"R  c #B9967C",
"E  c #BA977C",
"W  c #BB977C",
"Q  c #BA967D",
"!  c #BB977D",
"~  c #BA977E",
"^  c #BB977E",
"/  c #BB977F",
"(  c #BC977F",
")  c #B9967B",
"_  c #BB987B",
"`  c #BB987C",
"'  c #BB987D",
"]  c #B9997F",
"[  c #BB987E",
"{  c #BC987C",
"}  c #BC987D",
"|  c #BC997D",
" . c #BD997D",
".. c #BC9A7D",
"X. c #BD9A7D",
"o. c #BE9A7D",
"O. c #BC987E",
"+. c #BD997E",
"@. c #BD987F",
"#. c #BD997F",
"$. c #BC9A7E",
"%. c #BD9A7E",
"&. c #BC9B7E",
"*. c #BC9A7F",
"=. c #BD9A7F",
"-. c #BE9A7E",
";. c #BE9A7F",
":. c #BD997E",
">. c #C09666",
",. c #C1996F",
"<. c #C49B72",
"1. c #C79D75",
"2. c #C59D77",
"3. c #C09975",
"4. c #C0997F",
"5. c #C2997F",
"6. c #C59C7F",
"7. c #C29A7A",
"8. c #D0A472",
"9. c #D8A970",
"0. c #E6AE67",
"q. c #E1AD6C",
"w. c #EEB465",
"e. c #E6B069",
"r. c #EEB76F",
"t. c #EBB56E",
"y. c #F2B562",
"u. c #FEBC64",
"i. c #F2B86B",
"p. c #E7B272",
"a. c #A99281",
"s. c #B59B86",
"d. c #BB9B80",
"f. c #BA9B81",
"g. c #BA9B82",
"h. c #BC9A80",
"j. c #BD9B80",
"k. c #BC9A81",
"l. c #BE9B80",
"z. c #BF9B81",
"x. c #B99C86",
"c. c #B99D87",
"v. c #B99B83",
"b. c #B79E88",
"n. c #B99E8A",
"m. c #C49B81",
/* pixels */
"                                                                                                    ",
"          s c n.                                                                                    ",
"          j v h.d.x.                                                                                ",
"          j v o.o.o.h.x.                                                                            ",
"          j v o.v A o.o.d.b.    a a a a a a a a a a l j a l l a a a a a a a a j j j a a a a a s     ",
"          j v W C C v m o.` d.` k d r r r r i r r r g p r p g r r r r r r r r r r r r r r r i i x   ",
"          j v o.A h.o.m C Z W o.h.g 2 > > 4 7 7 4 4 4 7 7 7 1 < < < < < < < > > > > > > < > e g x   ",
"          j v o.A o.o.o.m C C C o.y o + + * ; = ; , ; = * + O O + * * * * + + + + + + + + O 8 g l   ",
"          j v o.A o.o.o.m W o.W W r o + * * = , ; * * * + + + + * * * * * * + + + + + + + + 0 g l   ",
"          j v ` m o.o.o.m W o.o.W r o + * + * ; ; + + + + + + + + + + + + + + + + + + + + + 0 g     ",
"          j v ` m o.o.o.m W o.o.W r o + * + + * = + + + + + + + + + + + + + + + + + + + + + 0 g     ",
"          j v ` m o.o.o.m W o.o.( t o + * + + + + + + + + + + + + + + + + + + + + + * + * + 0 g     ",
"          j v o.v v m W C W o.o.W t o + * * + + + + + + + + + + + + + + + + + + + + * + * + 0 g     ",
"          j v o.o.` A C C C A A A h $ + * + + + + + + + + + + + + + + + + + + + + + * + * + 0 g     ",
"          j v o.C A o.o.o.o.A C v 5.5 X * + + + + + + + + + + + + + + + + + + + + + * + * + 0 g     ",
"          j v o.C C v v m W W o.o.6.6 X + + + + + + + + + + + + + + + + + + + + + + * + * + 0 g     ",
"          j v o.A h.o.` C C C C C 5.3 X * + + + + + + + + + + + + + + + + + + + + + * + * + 0 g     ",
"          j v o.A o.o.o.A A o.o.W h # O * * + + + + + + + + + + + + + + + + + + + + * + * + 0 g     ",
"          j v o.A o.o.o.C A o.o.W t o + * * + + + + + + + + + + + + + + + + + + + + * + * + 0 g     ",
"          j v o.A o.o.o.m W o.o.` t o + * + + + + + + + + + + + + + + + + + + + + + * + * + 0 g     ",
"          j v o.A o.o.o.m W h.o.` t o + * * + + + + + + + + + + + + + + + + + + + + * + * + 0 g     ",
"          g v _ A o.o.o.m W h.o.` t o + * * + + + + + + + + + + + + + + + + + + + + * + * + 0 g     ",
"          l v <.,.2.2.n m A o.o.W r o + * * + + + + + + + + + + + + + + + + + + + + * + * + 0 g     ",
"          j f e.w.i.t.9.b A o.o.W t o + * * + + + + + + + + + + + + + + + + + + + + * + * + 0 g     ",
"          g >.y.u.u.u.t.f A o.o.` r o + * * + + + + + + + + + + + + + + + + + + + + * + * + 0 g     ",
"          j f q.0.t.p.8.b A o.o.W r o + * * + + + + + + + + + + + + + + + + + + + + * * * + 0 g     ",
"          j v 3.b 7.7.{ m W o.o.W r o + + + + + + + + + + + + + + + + + + + + + + + * * * + 0 g     ",
"          j v ` m o.o.o.m W o.o.W r o + + + + + + + + + + + + + + + + + + + + + + + * * + + 0 g     ",
"          j v ` A o.o._ m m A A A r o + + + + + + + + + + + + + + + + + + + + + + + * + + + q l     ",
"          j v o.v v v v A A A A o.r o + + + + + + + + + + + + + + + + + + + + + + + + + + + 0 g     ",
"          j v o.o.` o.` o.A A C W t o O + * + + + + + + + + + + + + + + + + + + + + + + + + 0 g     ",
"          j v o.v v v v C C A A W u $ + * + + + + + + + + + + + + + + + + + + + * = + O = - 0 l     ",
"          j v o.C ` o.o.m W o.o.W k % O * + + + + + + + + + + + + + + + + + + + * ; - * = : 0 p     ",
"          j v o.m o.o.o.C W o.o.A m.6 X * * + + + + + + + + + + + + + + + + + + + = , , = = w l     ",
"          j v ` m o.o.o.m W o.o.A 6.6 . * + + + + + + + + + + + + + + + + + + + * , = = , - 0 g     ",
"          j v ` m o.o.o.m W o.o.A Y & O * * + + + + + + + + + + + + + * = = = * * , ; = : - 0 g     ",
"          j v ` m o.o.o.m W o.o.W y # + + + + + + + + + + + + + + + + * ; , = - - = ; = = + 9 g     ",
"          j v ` m o.o.o.m T o.o.W r o + * + + + + + + + + + + + + + + + * , = , - - = + + + 0 g     ",
"          j v ` m o.o.o.m T o.o.W r o + * + + + + + + + + + + + + + + + + = , = + + + + + + 0 g     ",
"          j v _ m o.o.o.m T o.o.W t o + * + + + + + + + + + + + + + + + + + - = + + + + * + 0 g l   ",
"          j v _ m o.o.o.m W o.o.W t o + * * + + + + + + + + + + + + + + + + * * + + + + * + 0 g z   ",
"          j v _ m o.o.o.m W o.o.W t o + + + + + + + + + + + + + + + + + + + + + + + + + + + 0 g c   ",
"          j v ` m o.o.o.m W o.o.A r o + + + + + + + + + + + + + + + + + + + + + + + + + + + 0 g c   ",
"          j v o.m o.o.o.m m m v ` r @ O O O O O O O O + + + + + + + + + + + + + + + + + + O 0 a a.  ",
"          j v o.A o.o.A C C W d.x.                                                                  ",
"          j v ` m W v C ` d.d.                                                                      ",
"          j v ` v m o.d.d.                                                                          ",
"          j v o.` d.x.                                                                              ",
"          s c v.s.                                                                                  ",
"          s a.                                                                                      "
};
