/* XPM */
static char *ab5b43a160344cbce818e3982d36511dmi7jgZ8WSuw48bGi[] = {
/* columns rows colors chars-per-pixel */
"50 50 182 2 ",
"   c None",
".  c #91755A",
"X  c #94795D",
"o  c #967E65",
"O  c #9A7F66",
"+  c #957F6A",
"@  c #987E69",
"#  c #9A8065",
"$  c #95826E",
"%  c #9D836C",
"&  c #8F8072",
"*  c #968372",
"=  c #9A8573",
"-  c #9E8876",
";  c #9A8678",
":  c #93887E",
">  c #9C8A7C",
",  c #A28467",
"<  c #A3856C",
"1  c #AB876B",
"2  c #A7886F",
"3  c #AC8A6E",
"4  c #B08D67",
"5  c #B28D6C",
"6  c #AF906D",
"7  c #B2906F",
"8  c #BA946D",
"9  c #A18670",
"0  c #A58972",
"q  c #AD8C72",
"w  c #AF8F78",
"e  c #B18E73",
"r  c #AE9071",
"t  c #AF9279",
"y  c #B49176",
"u  c #BC9674",
"i  c #BA9874",
"p  c #B5947A",
"a  c #BA967C",
"s  c #BB977E",
"d  c #B9977C",
"f  c #BC977D",
"g  c #BD977C",
"h  c #B9967B",
"j  c #B7997E",
"k  c #BB987B",
"l  c #BB997A",
"z  c #BC9B7B",
"x  c #BF9C7B",
"c  c #B8987D",
"v  c #BB987C",
"b  c #BA997D",
"n  c #BB997D",
"m  c #BA987C",
"M  c #B99A7D",
"N  c #B9987E",
"B  c #B9997F",
"V  c #B8987F",
"C  c #BB997E",
"Z  c #BB997F",
"A  c #BA997F",
"S  c #B99A7E",
"D  c #B99A7F",
"F  c #B99B7F",
"G  c #BB9B7E",
"H  c #BC997C",
"J  c #BD997C",
"K  c #BC997D",
"L  c #BC9B7C",
"P  c #BC9A7D",
"I  c #BC9A7C",
"U  c #BE9A7D",
"Y  c #BC997E",
"T  c #BD997E",
"R  c #BD987F",
"E  c #BD997F",
"W  c #BF997F",
"Q  c #BC9A7E",
"!  c #BD9A7E",
"~  c #BD9A7F",
"^  c #BD9B7F",
"/  c #BC9A7F",
"(  c #BE9A7E",
")  c #BF9B7E",
"_  c #BE9A7F",
"`  c #BE9B7F",
"'  c #BF9B7F",
"]  c #BE9B7E",
"[  c #BE9C7D",
"{  c #BC9C7F",
"}  c #BD9C7F",
"|  c #BF9D7F",
" . c #BD9A7E",
".. c #C39B74",
"X. c #C99E73",
"o. c #C29F7B",
"O. c #C09B7F",
"+. c #C09C7F",
"@. c #C19A7D",
"#. c #C4A37D",
"$. c #CDA57A",
"%. c #D0A77B",
"&. c #D6AA7D",
"*. c #9E9186",
"=. c #A59282",
"-. c #AB9584",
";. c #A79A89",
":. c #A99A8A",
">. c #AC9C8B",
",. c #AB9B8C",
"<. c #AB9C8C",
"1. c #AB9E8D",
"2. c #AA9E8E",
"3. c #AC9C8C",
"4. c #AC9E8D",
"5. c #AD9D8F",
"6. c #AD9C8C",
"7. c #B79780",
"8. c #B89780",
"9. c #B69982",
"0. c #B99980",
"q. c #B99981",
"w. c #BA9980",
"e. c #B99B81",
"r. c #BA9B80",
"t. c #BB9B82",
"y. c #BD9B80",
"u. c #BD9B81",
"i. c #BC9B81",
"p. c #BE9A80",
"a. c #BE9B80",
"s. c #BF9B80",
"d. c #BF9B81",
"f. c #BC9A83",
"g. c #BD9B82",
"h. c #BB9C81",
"j. c #BC9C80",
"k. c #BD9C81",
"l. c #BE9C80",
"z. c #BF9C80",
"x. c #BE9D80",
"c. c #BE9C81",
"v. c #BD9C82",
"b. c #BE9C82",
"n. c #BF9C82",
"m. c #BE9D82",
"M. c #BF9D82",
"N. c #BE9E82",
"B. c #BE9B81",
"V. c #B09E8B",
"C. c #AF9E90",
"Z. c #BEA082",
"A. c #A9A093",
"S. c #AFA59A",
"D. c #BDA593",
"F. c #BEA895",
"G. c #C09B80",
"H. c #C09C80",
"J. c #C19C80",
"K. c #C09C81",
"L. c #C19D81",
"P. c #C39F81",
"I. c #C09C82",
"U. c #C19D83",
"Y. c #C09E83",
"T. c #C19E83",
"R. c #C2A186",
"E. c #CAA785",
"W. c #C7A886",
"Q. c #CBAA85",
"!. c #C4A288",
"~. c #D6AF87",
"^. c #D8AC80",
"/. c #D0AD88",
"(. c #D6B186",
"). c #DEB383",
"_. c #D4B28E",
"`. c #C1A897",
"'. c #EBBE86",
"]. c #E7BC89",
"[. c #EEC086",
"{. c #EFC18C",
/* pixels */
"                                                                                                    ",
"                                                                                                    ",
"        A.& * = * * $ * * = = = * * = = * * = = $ = = $ = = = = * * * = = = * * * * = - * * :       ",
"        2.$ % % < < % % % % % % < < < < < < < < < < < % % % % % 9 < < < 9 9 % 9 0 < < < % = *       ",
"        :.+ 0 c n n n n h.n r.r.r.n n n n n n n x.n n x.n n h.r.n n n n n n n r.c r.x.y.q % *       ",
"        3.+ 0 n +.Q | n x.Q y.y.y.x.x.x.x.x.x.Q Q n Q x.n Q x.Q Q x.Y.Y.O.Y.x.x.x.n n y.w # =       ",
"        2.$ < n | l n y y y p y p y y y y y y y p Q d y y y y y y y y y y y y y h x.x.x.q % =       ",
"        ;.$ < y.k Q n e y h y.d f d h h f f d h q Q h q h Q h Q h Q k h h Q h y y n n x.q % *       ",
"        3.+ 2 n Q Q y.q k Y.g G.Q y.y.Q Q y.y.f q Y.h e y.f y.Q Y.Q Q +.Q Q Y.y y Y.Q y.q % *       ",
"        2.+ < n Q Q y.q n Q f Q f Q y.Q Q y.y.d q y.e e y.Q y.Q Q Q Q Q Q Q Y.y e Q n x.w % *       ",
"        3.% 2 Q y.n y.q Q Q f Q Q Q y.Q Q y.Q d q Y.p e Y.Q f Q Q Q Q l Q Q y.e p y.n x.w % *       ",
"        ,.o , i n n y.q d Q Q Q Q Q Q y.Q y.Q d 3 y.p e y.Q Q Q Q Q Q Q Q Q y.e p x.n r.q % *       ",
"        >.o 6 o.x Q Y.q d Q | Q | Q Q x.| | | n q x.h e Q | | x.x.x.x.Q y.y.x.p y r.x.r.q % *       ",
"        3.# #.(.u l Q q y y h y h y y h y y y y q n h q y y h y h p h y p p p q y n x.r.0 + ;       ",
"        3.X Q.(.u @.O.h h h h h h h h d h h d h n x.Q h d h d h h h h h h h h p h Q | x.q @ >       ",
"        V.. /.~.u @.O.O.Q Q h Q n n Q Q f f Q Q y.Q Q Q y.f Q Q n n Q Q Q h Q k n Q x.!.p % =       ",
"        >.# y E.l g G.3 y y e y y y y y y y p e q x.h q p y e y y y y e e e h y h n n Z.t 9 *       ",
"        >.o , h Q Q Y.e n y.Q Q Q Q Q y.Q Q y.d q x.h e y.y.y.y.k x.y.f y.Y.R.y q n k n q = >       ",
"        3.@ 3 h Q Q Q q h Q Q Q Q Q Q y.Q y.G.f q y.p e y.Q Q Q x.Q y.y.f y.!.y y.!.x.!.t % =       ",
"        3.@ 2 n x.Q Q q h Q Q l Q Q Q Q Q Q y.h q y.p e y.y.f f y.f Q y.d d n.c w d h Y.y % *       ",
"        3.@ 2 n Q n y.q n Q Q Q Q Q Q O.Q Q Y.d q y.p e y.y.y.Q p y.Q n Q d n e y Y.P.T.q % *       ",
"        3.% 2 y.Q n Q q h Q Q Q Q Q Q Q Q Q y.h q x.p e Q Q d d y.Y.x.x.!.x.n e e O.O.Q q % $       ",
"        :.o < n | Q y.q n Q Q Q Q O.Q O.Q Q y.d q y.h q y.y.Q y.Y.y.x.x.x.F n r 7 l u l q % *       ",
"        3.% 2 n Q n n 3 h Q Q Q Q O.Q Q Q Q y.d q y.p q n n d d y.Y.!.| n x.R.4 8 $.X...3 # =       ",
"        3.o 2 n | n Q q h x.Q Q Q Q Y.Q Q Q Q h q !.y.q Y.!.Y.R.Y.Q | Y.Y.+.8 %.'.'.'.).4 < *       ",
"        3.o 2 n | n Q q h x.Q Q Q Q Q Q Q n n n , y.n h !.n h h !.x.l i i u ..^.{.'.[.].4 O *       ",
"        3.o 2 n n n y.3 n x.Q Q Q l l Q Q Q r.h q x.p q Y.x.y.d R.y.h h Q l u u X.).&.$.5 # *       ",
"        3.o 2 n n n Q 3 n | Q Q Q Q Q n h n y.r.y !.d y x.x.!.!.y.n Q n Q g Q e 5 ..u @.3 # *       ",
"        >.o 2 n | | x.q n | x.Y.y.Y.T.Y.d d x.!.q d p c Y.h n x.r.r.y.Q Y.Q Y.y y O.g Q q % *       ",
"        >.o 2 n n n n w h y h h y y d G.n p h n e c p y y.h h y h p p p h h h 1 e Y.y.d w % *       ",
"        >.o 2 n | | Q h h h h h y p f G.y.n d d r.Y.R.c h p h h p d h h y h h h y.d y.!.q @ *       ",
"        >.o 2 n Q k Q Q p h h h y Q G.h y d y.y.d c n h d h p n h d p d h k h h x.r.y.r.q % *       ",
"        >.# , | Q Q n q c c p y e p y.n p p d y.q y.p q h h y y h p p y y y h 3 y x.n x.q % =       ",
"        >.o , y l k n y !.Y.x.Y.Y.y.y.x.Y.!.Y.n q x.h e G.Q Q Q O.Q y.Q Q Q x.y y x.n y.q # =       ",
"        >.o z E.i i k q y.y.y.y.!.Y.!.Y.y.n n h q y.h e G.Q Q Q O.Q y.Q Q Q Q y y Y.Q y.w % =       ",
"        V.o W._.i x | 3 d Y.Y.Y.Q Q Q Q n n n n q x.h e O.Q Q Q Q Q Q n Q Q Q y y Y.Q x.q % =       ",
"        >.o W._.i l l 1 h x.Y.Y.Q h h Q n x.y.n q x.h e Q Q O.O.Q Q y.Q Q Q Q y y x.Q x.q % =       ",
"        >.o R._.l x Q 5 h n Q Y.Q Q O.Q n n n d 3 y.h e Q Q Q Q Q Q Q Q Q Q Q e y x.Q x.q % =       ",
"        V.o 3 | k k Q 5 n n l Q Q Q Q Q Y.x.Q n q y.h e Q Q Q Q Q Q y.Q Q Q Q y y y.Q Y.q < =       ",
"        >.O , k Q Q Y.3 n Q Q l Q Q Q Q Q Q Q n 3 Q h e Q Q Q Q Q Q Q Q Q Q Q e y x.Q Y.q < =       ",
"        3.o , | n Q Q q h Q k +.Q Q Q Q Q O.O.h 3 Y.h e Q Q x.Q Q n Q x.Q Q Q e y y.Q x.q % =       ",
"        3.+ < h y.Q y.q d x.Q Q Q Q Q Q Q O.Q h 3 x.p e Q Q Q Q Q Q Q y.n Q Q y p x.Q x.w % =       ",
"        3.% 2 n | Q x.q n x.Q Q Q Q Q Q Q Q y.d q x.p e Y.Q Q Q Q Q Q y.Q Q Q e p x.y.y.w % *       ",
"        3.+ < n n n y.q d y.y.Q Q Q Q Q Q Q y.d q x.h e y.Q n Q Q Q Q Q n Q Q e y x.Q y.w % *       ",
"        C.% 2 n x.r.x.e 8.r.y.Q Y.y.y.Y.y.x.y.y.q n.d e r.y.y.y.y.x.x.x.Q y.y.p y y.n x.q % *       ",
"        2.+ < j r.r.r.w p p p p p y y p p y y y e r.c e c p p y y p y y y p y q p n.y.n.q % ;       ",
"        ,.+ = 9.9.9.9.p p p c c c c c 7.c c 7.7.7.r.r.c c p c p c c p c c c c c c r.c f.0 % *       ",
"        S.> =.D.D.D.D.D.D.F.D.D.D.D.D.D.D.D.D.D.D.D.D.D.D.D.D.D.D.D.D.D.D.D.D.D.D.D.D.`.-.=.*.      ",
"                                                                                                    ",
"                                                                                                    "
};
