/* XPM */
static char *_84c447c44654b84f47331649ee92da3tW6T7Xz7YcMLsOjy[] = {
/* columns rows colors chars-per-pixel */
"50 50 147 2 ",
"   c None",
".  c #472536",
"X  c #482537",
"o  c #47263D",
"O  c #49253F",
"+  c #4B2A3D",
"@  c #512F37",
"#  c #522F3F",
"$  c #51303E",
"%  c #492540",
"&  c #4D2B44",
"*  c #512E44",
"=  c #512F49",
"-  c #523043",
";  c #53314A",
":  c #714F4F",
">  c #6A4753",
",  c #674854",
"<  c #6B4953",
"1  c #6F4E59",
"2  c #714E50",
"3  c #735250",
"4  c #70505A",
"5  c #947567",
"6  c #947569",
"7  c #9A7B6A",
"8  c #A07F77",
"9  c #9D836D",
"0  c #9E8371",
"q  c #9E837A",
"w  c #9F8E7D",
"e  c #A2846B",
"r  c #A9856F",
"t  c #AE8C6E",
"y  c #B9906A",
"u  c #A38474",
"i  c #A88574",
"p  c #A28875",
"a  c #AD8E74",
"s  c #A2827A",
"d  c #A48C7B",
"f  c #B38F76",
"g  c #B28F78",
"h  c #A5907F",
"j  c #AE917A",
"k  c #B59276",
"l  c #B99574",
"z  c #BC9875",
"x  c #B69379",
"c  c #B9957D",
"v  c #BA957C",
"b  c #B9967C",
"n  c #B8977C",
"m  c #BB977D",
"M  c #BA967C",
"N  c #B9977E",
"B  c #B9967B",
"V  c #BE9878",
"C  c #BE997A",
"Z  c #BB987D",
"A  c #BA987C",
"S  c #B9987F",
"D  c #BB997E",
"F  c #BD997D",
"G  c #BC997D",
"H  c #BE9A7C",
"J  c #BE9A7D",
"K  c #BD997E",
"L  c #BC997F",
"P  c #BD997F",
"I  c #BD9A7E",
"U  c #BC9A7F",
"Y  c #BD9A7F",
"T  c #BE9A7E",
"R  c #BE9A7F",
"E  c #BE9B7F",
"W  c #BD9A7E",
"Q  c #C4945E",
"!  c #FCBA5E",
"~  c #C19360",
"^  c #CB9E6D",
"/  c #C49E76",
"(  c #CA9E73",
")  c #C49F7D",
"_  c #C19D7C",
"`  c #DBA76C",
"'  c #DCA86C",
"]  c #CDA374",
"[  c #C7A27B",
"{  c #CAA17B",
"}  c #C8A17C",
"|  c #C8A27B",
" . c #D0A374",
".. c #DDAC74",
"X. c #EDB064",
"o. c #F4B562",
"O. c #F7B966",
"+. c #FDBD64",
"@. c #F7BB6C",
"#. c #F8BC6B",
"$. c #E1AD72",
"%. c #EBB671",
"&. c #F3BB72",
"*. c #A08F81",
"=. c #A19083",
"-. c #AF9682",
";. c #AA9786",
":. c #AB9989",
">. c #AE9888",
",. c #AC9B8B",
"<. c #AF9B8D",
"1. c #AC9C8D",
"2. c #AE9D8D",
"3. c #AC9E8D",
"4. c #AE9D8E",
"5. c #AF9C8E",
"6. c #AD9D8D",
"7. c #B79A81",
"8. c #B69C86",
"9. c #BB9A82",
"0. c #BD9A80",
"q. c #BD9B81",
"w. c #BE9A80",
"e. c #BE9B81",
"r. c #BC9C81",
"t. c #BD9C82",
"y. c #BD9D83",
"u. c #BF9E83",
"i. c #BB9F87",
"p. c #BC9E85",
"a. c #BE9F87",
"s. c #BC9A81",
"d. c #B09B8C",
"f. c #B69F8A",
"g. c #B99E89",
"h. c #BA9F88",
"j. c #BB9F8C",
"k. c #AC9D91",
"l. c #B8A08C",
"z. c #ADA093",
"x. c #BCA493",
"c. c #BEA793",
"v. c #BCA695",
"b. c #BCA596",
"n. c #BFA897",
"m. c #BFA898",
"M. c #C2A087",
/* pixels */
"                                          1.=.                                                      ",
"                                      x.j.x p :.                                                    ",
"                                x.g.7.S S f p                                                       ",
"                            l.g.p.r.S m F f p ,.                                                    ",
"        z.w h d p d -.g.i.p.r.r.m x f k q.f r p p p p p p p p p p p p p p p p p p p p p p d         ",
"        ,.9 p a x 9.r.r.r.q.x f k B B k F g r 7 5 6 6 5 5 5 5 5 5 5 5 5 5 6 6 6 6 5 5 7 e p v.      ",
"        1.9 e S M.q.x x k x k m F F F k F g i 3 @ $ * * * * # # # # # # # * * * * - # 1 s p n.      ",
"        1.9 e x q.m x x x x B F F F F x F f i : . O O % % % % % % % % % % % % % % % o < s p m.      ",
"        1.9 e x x m F F m x B F F F F x q.f p : X O O % % % % % % % % % % % % % O O o > s p v.      ",
"        1.9 e x B F F F B x B F F F F x q.f p : X O O O O O O O O O O O O O O O O O o > s p         ",
"        1.9 e x B F F F m x B F F F F x q.f p : X O O O O O O O O O O O O O O O O O o > s p         ",
"        1.9 e x B F F F B x B F F F m x q.f p : . O O O O O O O O O O O O O O O O O O < s u         ",
"        1.0 e x B F F F B x x x x k k B F f p : . O O O O O O O O O O O O O O O O O O < s u         ",
"        1.9 t C B B x x k m x B S F F F F f p : . O O O O O O O O O O O O O O O O O O < s u         ",
"        <.9 l } l l B S F F F S B x k x F f p : . O O O O O O O O O O O O O O O O O O < s u         ",
"        <.9 l { C S m B x m x x x x B k F f p : . O O O O O O O O O O O O O O O O O O < 8 u         ",
"        <.9 k ) l k x B x x B F F F F x F f p : . O O O O O O O O O O O O O O O O O O < s u         ",
"        d.9 e B B F F F B x B F F F F x F f p : . O O O O O O O O O O O O O O O O O O < s u         ",
"        1.9 e x B F F F B x m F F F F x F f p : X O O O O O O O O O O O O O O O O O O > s 0         ",
"        1.9 e x B F F F m x m q.F F F x F k p : . O % % O O O O O O O O O O O O O O O > s 0         ",
"        1.9 e x B F F F m x m q.q.q.F x F k p : . O % % O O O O O O O O O O O O O O O > s 0         ",
"        1.9 e x B F F F m x m F F F F k F x i : X O O O O O O O O O O O O O O O O O O > s 0         ",
"        1.9 e x B F F F m x l / ]  .^ ^ ( f p : X O O O O O O O O O O O O O O O O O O > 8 9         ",
"        1.9 e x B F F F B k ( %.@.#.O.o.X.~ r : X O % O O O O O O O O O O O O O O O o > s p         ",
"        1.9 e x B F F F B k ] &.+.+.+.! o.Q r : . O % O O O O O O O O O O O O O O O o > s p         ",
"        1.9 e x B F F F B k z ] ..$.' ` ` y i : . O % O O O O O O O O O % & & % % & & 1 s p         ",
"        1.9 e x B F F F B x B F F C C l F f i : . O O O O O O O O O O O % & ; ; ; = & 1 s p         ",
"        1.9 e x B F F F B k B F F F S x q.f i 2 X O % % O O O O O O O O % % % & ; = O < s p         ",
"        1.9 e x x k x x x x x B m m B k F f i 2 X O O O % O % % O O O & = = = = & = - 4 s 9         ",
"        1.9 e x F m m m m S x x x k k l F f i 2 X O O O O % = = % o % ; & O % = ; % + < q 9         ",
"        1.9 e x x k x x x S m m S F S F F f i 2 . O O O O O & ; ; & & = ; & & = = O o > q 9         ",
"        1.9 e x B S S m x x x x k k k x q.f i 2 . O O O o O & ; & = ; & & & & & % O O > s e         ",
"        1.9 a _ B F F F m x m q.F F S x q.f i : X % O o o % ; ; % % = ; = % O O O O O < s e         ",
"        1.9 l [ l F F F B x B F F F F x q.f p 3 # ; = = & % & = ; = = & % O O O O O O > s 0         ",
"        1.9 l { l C F F B x B F F F F k q.f p : + ; & & ; ; = = & % % O O O O O O O O > s 0         ",
"        1.9 t _ B F F F B x B F F F F k F f p : . & ; ; = & % & % O O O O O O O O O O > s 0         ",
"        k.0 e x B F F F B x B F F F F x F f p : . O & ; & O O O O O O O O O O O O O O > s 0         ",
"        1.0 e x B F F F m x B F F F F x q.f p : X O % * & O O O O O O O O O O O O O O < s u         ",
"        1.0 e x B F F F m x B F F F F x q.f p : X O O O O O O O O O O O O O O O O O O < 8 u         ",
"        1.0 e x B F F F m x B F F F F x q.f p : X O O O O O O O O O O O O O O O O O O < 8 u         ",
"        1.0 e x B F F F B x m F F F F x q.f p : X O O % % O O O O O O O O O O % % O O < s p         ",
"        1.9 e x B F F F B x m F F F F x q.k p : . O O % % O O O O O O O O O O % % O X < s p         ",
"        1.9 e x x B F F m x m F F F F x q.f p : . O O O O O O O O O O O O O O % % O X < q 0         ",
"        k.0 e n 9.x k x x x B F F F F x q.f p 3 . o o o o o o o o o o o o o o o o o o , q 0         ",
"                f.i.9.S B B k B F F S x q.f p q                                                     ",
"                      8.9.9.S x k k x x q.k p                                                       ",
"                            8.9.9.m k x q.f p                                                       ",
"                                f.8.9.F F g p                                                       ",
"                                      f.i.j p <.                                                    ",
"                                          ;.*.                                                      "
};
