/* XPM */
static char *d561043c57174ecdce67322eece0e6d3AaPXVo0fVtt9kyJW[] = {
/* columns rows colors chars-per-pixel */
"50 50 123 2 ",
"   c None",
".  c #9A353F",
"X  c #B8521C",
"o  c #A24525",
"O  c #AE4B25",
"+  c #AC4C2A",
"@  c #BA5823",
"#  c #B45A29",
"$  c #BB6126",
"%  c #B86C24",
"&  c #BA7324",
"*  c #BB7923",
"=  c #B2643E",
"-  c #D7520E",
";  c #CB620F",
":  c #D7740F",
">  c #D9740A",
",  c #DA7912",
"<  c #F56703",
"1  c #FF6600",
"2  c #FF6B00",
"3  c #E97406",
"4  c #FF7400",
"5  c #FF7B00",
"6  c #FF7D08",
"7  c #C16F28",
"8  c #C07F21",
"9  c #C0762D",
"0  c #D27024",
"q  c #CC783B",
"w  c #9F3F53",
"e  c #CB7740",
"r  c #C9921F",
"t  c #CD9A1E",
"y  c #E58109",
"u  c #ED8F0F",
"i  c #FF8401",
"p  c #FE8B02",
"a  c #FF8309",
"s  c #FF8B0C",
"d  c #FF9400",
"f  c #FF9D01",
"g  c #FF930E",
"h  c #FF9E0E",
"j  c #E39A1D",
"k  c #FF9C13",
"l  c #D3A51D",
"z  c #DCB61C",
"x  c #FFA402",
"c  c #FFAB05",
"v  c #FFA70A",
"b  c #FFAD0C",
"n  c #FFB30C",
"m  c #EFAD18",
"M  c #FFA414",
"N  c #FFAE14",
"B  c #F6B216",
"V  c #FFB713",
"C  c #FFBB13",
"Z  c #F6B219",
"A  c #FFB11A",
"S  c #FFBC1B",
"D  c #C28320",
"F  c #CD8022",
"G  c #C58820",
"H  c #CC8A25",
"J  c #DA9427",
"K  c #D7942B",
"L  c #C18230",
"P  c #D38C38",
"I  c #D69536",
"U  c #DFB323",
"Y  c #E5AA29",
"T  c #EEB523",
"R  c #E8B826",
"E  c #F2B821",
"W  c #E6CA1B",
"Q  c #E8CF19",
"!  c #FFC116",
"~  c #FFC41A",
"^  c #FFCA1F",
"/  c #EAD21A",
"(  c #EEDB19",
")  c #FDD616",
"_  c #F6DC14",
"`  c #FFD911",
"'  c #FFD41E",
"]  c #F2DF1A",
"[  c #FFE410",
"{  c #F7EC17",
"}  c #FCED16",
"|  c #F4E519",
" . c #FFE019",
".. c #FFEF1D",
"X. c #FAF217",
"o. c #FFFD16",
"O. c #FFF21C",
"+. c #FFF919",
"@. c #FEC622",
"#. c #FECC22",
"$. c #F1C229",
"%. c #FED226",
"&. c #FEDA25",
"*. c #FFD629",
"=. c #FFD729",
"-. c #FFD72A",
";. c #FFD528",
":. c #FFD729",
">. c #FFD829",
",. c #FFD82A",
"<. c #FFDA2A",
"1. c #FFE024",
"2. c #FFE325",
"3. c #FFE026",
"4. c #FFE226",
"5. c #FFE822",
"6. c #FFED20",
"7. c #BF7E83",
"8. c #C28080",
"9. c #D1A09F",
"0. c #C98FA2",
"q. c #DBB9BE",
"w. c #D6AFC0",
/* pixels */
"                                                                                                    ",
"                                                                                                    ",
"                                                                                                    ",
"                                                                                                    ",
"                                                                                                    ",
"                                                                                                    ",
"                                                      2                                             ",
"                                                      M g 4                                         ",
"                                                          N i                                       ",
"                                                          g M                                       ",
"                                                          M h                                       ",
"                                                        i S 4                                       ",
"                                                      i b k                                         ",
"                                      4 a s s   4   p N s 2                                         ",
"                                    5 b M k M V M M N a 1                                           ",
"                                    p S 6     4 a a 4                                               ",
"                                  4 N g 1                                                           ",
"                                4 v ! i 2                                                           ",
"                                4 n ! d 4 2                                                         ",
"                                4 b ;.C f d 4 2                                                     ",
"                                4 x ~ -.~ c f 5 2 2                                                 ",
"                                2 5 n %.-.%.~ x f 5 2                                               ",
"                              2 2 5 x ~ -.-.-.^ c f i 2                                             ",
"                              2 5 f x ~ -.-.-.-.%.n x p 2                                           ",
"                            2 4 f x n %.-.-.-.-.-.#.x x d 2                                         ",
"                          1 i x x x C >.-.-.-.-.-.-.C c x 5 2                                       ",
"                        2 5 f x c x C -.-.-.-.-.-.-.#.#.n f 4                                       ",
"                        4 f x n ^ c ~ -.-.-.-.-.-.-.-.>.%.c d                                       ",
"                        5 y ; m -.#.@.N  .O.O.O.1.&.@.T 7 Z x p                                     ",
"                        x > w 8.P N b ` o.o.o.o.o._ e 7.. E x i                                     ",
"                      2 x B q q.0.@ / { o.o.o.o./ = w.9.I %.C f                                     ",
"                      2 x ;.%.0 9 * 8 / o.o.o.o.t & L U &.>.~ x 5                                   ",
"                      2 x -.>.g [ o.o.o.o.o.o.o.o.o.o.o.1.>.~ x 5                                   ",
"                      2 x ;.-.A } o.o.o.o.o.o.o.o.o.o.o.&.K ! d 4                                   ",
"                      2 d C -.>.O.W D X.o.o.o.o.( o.o.+.R # C i 2                                   ",
"                        < , @.-.1.z o r | o.o.z D l o.) O T f 5                                     ",
"                          - X J $.% ] ( G / { & Q z H F J b i 2                                     ",
"                          4 p : $ + 1.6.| r G W ..5.Y j C i 2                                       ",
"                              5 3 u #.#.' %.$.1.-.~ n c d 2                                         ",
"                                2 4 i i f C C C V f i i 4                                           ",
"                                      2 4 4 4 4 4 4 2                                               ",
"                                                                                                    ",
"                                                                                                    ",
"                                                                                                    ",
"                                                                                                    ",
"                                                                                                    ",
"                                                                                                    ",
"                                                                                                    ",
"                                                                                                    ",
"                                                                                                    "
};
