/* XPM */
static char *b14bc292dd3f4914e94ed7ea8964b3c7e8hO3EAxGr4jXez8[] = {
/* columns rows colors chars-per-pixel */
"50 50 217 2 ",
"   c None",
".  c #B6351C",
"X  c #A03D3C",
"o  c #A04026",
"O  c #AB4928",
"+  c #A85125",
"@  c #AA5424",
"#  c #AE5E23",
"$  c #B45F28",
"%  c #B45F29",
"&  c #B95F28",
"*  c #AA4B33",
"=  c #BB6729",
"-  c #B87221",
";  c #BE7426",
":  c #BD7B21",
">  c #B9742A",
",  c #DA4F0D",
"<  c #DC4F0C",
"1  c #CE4611",
"2  c #CA4E19",
"3  c #C75813",
"4  c #E35409",
"5  c #EA6D0B",
"6  c #FB6701",
"7  c #FF6800",
"8  c #FF6900",
"9  c #FF6A00",
"0  c #FF6B00",
"q  c #FF6C00",
"w  c #F37300",
"e  c #FF7000",
"r  c #FF7100",
"t  c #FF7200",
"y  c #FF7500",
"u  c #FF7600",
"i  c #FF7900",
"p  c #FF7A00",
"a  c #FF7B00",
"s  c #FC7D01",
"d  c #FF7C00",
"f  c #FF7D00",
"g  c #FF7E00",
"h  c #FF7F00",
"j  c #FF7F02",
"k  c #CC7E27",
"l  c #DA7C2F",
"z  c #B9634E",
"x  c #DD8113",
"c  c #C9921F",
"v  c #FF8000",
"b  c #FF8100",
"n  c #FF8200",
"m  c #FF8400",
"M  c #FF8900",
"N  c #FD8A01",
"B  c #FF8A00",
"V  c #FF8B00",
"C  c #FF8802",
"Z  c #FF8902",
"A  c DarkOrange",
"S  c #FF8D00",
"D  c #FF8E00",
"F  c #FF8906",
"G  c #FF9300",
"H  c #FF9700",
"J  c #FF9702",
"K  c #FF9707",
"L  c #FF9801",
"P  c #FF9902",
"I  c #FF9A03",
"U  c #FF9C00",
"Y  c #FF9E00",
"T  c #FF9F00",
"R  c #FF9D04",
"E  c #FF9E05",
"W  c #FF960B",
"Q  c #FF9D09",
"!  c #FF9D0D",
"~  c #E89B1B",
"^  c #FF9410",
"/  c #D4A71E",
"(  c #D6AC1D",
")  c #D7AE1C",
"_  c #D7AE1D",
"`  c #DCB61C",
"'  c #DCB71C",
"]  c #FFA200",
"[  c #FFA201",
"{  c #FFA303",
"}  c #FFA401",
"|  c #FFA503",
" . c #FAA006",
".. c #FFA504",
"X. c #FFA507",
"o. c #FFAB06",
"O. c #FFAE06",
"+. c #FFAF06",
"@. c #FFA00B",
"#. c #FFAE09",
"$. c #FFAD0A",
"%. c #FFAE0A",
"&. c #FFAF0C",
"*. c #FFAD0F",
"=. c #FFB20C",
"-. c #FFB30D",
";. c #FFB40E",
":. c #FFB70F",
">. c #FFB80F",
",. c #F1A413",
"<. c #FFA610",
"1. c #FFA514",
"2. c #FFAE16",
"3. c #FDB010",
"4. c #FFB710",
"5. c #FDB114",
"6. c #FFBB13",
"7. c #FFBC12",
"8. c #FFBC13",
"9. c #FFBC17",
"0. c #F5B71D",
"q. c #FFB31B",
"w. c #FFB91B",
"e. c #C78127",
"r. c #C48820",
"t. c #CB822A",
"y. c #D59725",
"u. c #DF9C25",
"i. c #D78930",
"p. c #D7AD24",
"a. c #DBAC21",
"s. c #E0A328",
"d. c #E3B324",
"f. c #EDBD24",
"g. c #E8B029",
"h. c #EEBB29",
"j. c #FFD50F",
"k. c #E2C31B",
"l. c #E9C71F",
"z. c #E8CF1A",
"x. c #FFC017",
"c. c #FFC117",
"v. c #FFC218",
"b. c #FFC219",
"n. c #FFC31A",
"m. c #FFC51A",
"M. c #FFC51B",
"N. c #FFC61B",
"B. c #FFC51D",
"V. c #FFC71C",
"C. c #FFC81D",
"Z. c #FDC81F",
"A. c #FFC91F",
"S. c #FFCA1E",
"D. c #FFCA1F",
"F. c #EAD319",
"G. c #ECD719",
"H. c #EFDC19",
"J. c #FDD010",
"K. c #F6EB17",
"L. c #F7EB17",
"P. c #F7EC17",
"I. c #FFEF13",
"U. c #F2E418",
"Y. c #F3E518",
"T. c #F6EA18",
"R. c #F9EE18",
"E. c #FBF416",
"W. c #FCF716",
"Q. c #FFF716",
"!. c #FFFF15",
"~. c #FFFC16",
"^. c #FFFD16",
"/. c #FFFE16",
"(. c #FFFF16",
"). c #FFF31B",
"_. c #FFF41B",
"`. c #FFF61B",
"'. c #FFF818",
"]. c #F6CC27",
"[. c #FCC821",
"{. c #FFC923",
"}. c #FFCC21",
"|. c #FFCD21",
" X c #FFCE22",
".X c #F9CC25",
"XX c #FFCF25",
"oX c #FCCE27",
"OX c #FFCF26",
"+X c #F1C028",
"@X c #F3C228",
"#X c #FACF2A",
"$X c #FFD024",
"%X c #FFD225",
"&X c #FFD326",
"*X c #FFD426",
"=X c #FCDE22",
"-X c #FFDE25",
";X c #FFD428",
":X c #FFD529",
">X c #FFD629",
",X c #FFD729",
"<X c #FFD62A",
"1X c #FFD72A",
"2X c #FFD829",
"3X c #FFD82A",
"4X c #FFD92A",
"5X c #FFDC28",
"6X c #FFDC2A",
"7X c #FFE223",
"8X c #FFE720",
"9X c #FFE522",
"0X c #FFE622",
"qX c #C5836C",
"wX c #C38A97",
"eX c #C68C9A",
"rX c #D2A599",
/* pixels */
"                                                                                                    ",
"                                                                                                    ",
"                                                                                                    ",
"                                                                                                    ",
"                                                                                                    ",
"                                                                                                    ",
"                                                                                                    ",
"                                                                                                    ",
"                                                                                                    ",
"                                                                                                    ",
"                                                                                                    ",
"                                                                                                    ",
"                                                                                                    ",
"                                      d d                                                           ",
"                                      U                                                             ",
"                                    &.L           ^ W                                               ",
"                                    OX2.  d v ! {.6.K V i                                           ",
"                                                      d <.e                                         ",
"                                                    q F B.V 0                                       ",
"                                                  m Q A.m.%.i                                       ",
"                                              A J -.B.>Xn.&.y                                       ",
"                                            V o.m.>X>XA.| v 0                                       ",
"                                          i [ n.>X>X>XA.L 0                                         ",
"                                        d U 4.>X>X>X>X X[ v e 0 0                                   ",
"                                      0 A 7.&X>X>X>X>XA.x.;.U A d q 0                               ",
"                                    0 i %.&X3X>X>X3X>X>X>X>Xn.>.| d 0 6                             ",
"                                    0 V x.#Xs..XOXq.A.0X0X-X>X>Xm.X.w 1 <                           ",
"                                  0 i %.&X+XX qXl J.I././.'.).7X5X~ z . q                           ",
"                                  0 J 7.>XOXi.rXeX> k.L./././.R.d.* wX2 0                           ",
"                                  0 E *X>X1.j.z.p./ ( Y./././.P.( y.x V 0                           ",
"                                  0 E &X>Xw.Q././././././././././.0XO.A 0                           ",
"                                  0 G ;.3X5X'././.H.' T./././.G.r.f.O.A 0                           ",
"                                    y -.g.h.=X/./.' + c ( Q.L.@ o &  .d                             ",
"                                    e L ,.k t.a.F.- Y.E.# c : = ].O 3 ,                             ",
"                                        A %.0.u.e.; _._.l.% % +X9.5 4                               ",
"                                            [ X.3.A. X X X{.5.@.y 0                                 ",
"                                                v V V V V V y 0                                     ",
"                                                                                                    ",
"                                                                                                    ",
"                                                                                                    ",
"                                                                                                    ",
"                                                                                                    ",
"                                                                                                    ",
"                                                                                                    ",
"                                                                                                    ",
"                                                                                                    ",
"                                                                                                    ",
"                                                                                                    ",
"                                                                                                    ",
"                                                                                                    "
};
