/* XPM */
static char *_01ffaf5db4f4d6afde1325fce96c067VSdXglL3Zll4Fdu3[] = {
/* columns rows colors chars-per-pixel */
"50 50 252 2 ",
"   c None",
".  c #B54A1A",
"X  c #A8482D",
"o  c #B35823",
"O  c #B2572B",
"+  c #B36724",
"@  c #BB7221",
"#  c #D64F0E",
"$  c #C24A1B",
"%  c #C05D1B",
"&  c #C75C1C",
"*  c #EA5907",
"=  c #EF5D06",
"-  c #E3560A",
";  c #DD7A0C",
":  c #D06815",
">  c #DF6C11",
",  c #E66409",
"<  c #FF6600",
"1  c #FE6700",
"2  c #FF6800",
"3  c #FF6900",
"4  c #FF6A00",
"5  c #FF6B00",
"6  c #FF6C00",
"7  c #FF6D00",
"8  c #FF6E00",
"9  c #FF6F00",
"0  c #FF7000",
"q  c #FF7100",
"w  c #FF7200",
"e  c #FF7400",
"r  c #FF7600",
"t  c #FF7700",
"y  c #FF7605",
"u  c #FF7800",
"i  c #FF7900",
"p  c #FF7A00",
"a  c #FF7C00",
"s  c #FF7E00",
"d  c #FF7F00",
"f  c #FF7805",
"g  c #FF7C06",
"h  c #FF7F08",
"j  c #B06164",
"k  c #B86E6C",
"l  c #B56971",
"z  c #BB777F",
"x  c #D98017",
"c  c #C9941F",
"v  c #CA941F",
"b  c #CD991E",
"n  c #E4860C",
"m  c #FF8100",
"M  c #FF8001",
"N  c #FF8300",
"B  c #FF8400",
"V  c #FF8500",
"C  c #FF8600",
"Z  c #FF8402",
"A  c #FF8205",
"S  c #FF8306",
"D  c #FF8307",
"F  c #FF8800",
"G  c #FF8900",
"H  c #FF8B00",
"J  c #FF8902",
"K  c #FF8F00",
"L  c #FF8806",
"P  c #FF8D09",
"I  c #FF9000",
"U  c #FF9103",
"Y  c #FF9500",
"T  c #FF9401",
"R  c #FF9700",
"E  c #FF9601",
"W  c #FF9402",
"Q  c #FF9305",
"!  c #FF9707",
"~  c #FF9C00",
"^  c #FF9D00",
"/  c #FF9E00",
"(  c #FF9B05",
")  c #FF970C",
"_  c #FF940E",
"`  c #FF9F08",
"'  c #FF9A0F",
"]  c #E89711",
"[  c #FF9310",
"{  c #FF9610",
"}  c #FF9A12",
"|  c #FF9E11",
" . c #FF9D12",
".. c #D0A01E",
"X. c #D2A41F",
"o. c #D4A81D",
"O. c #D9B21E",
"+. c #DBB41C",
"@. c #DCB71C",
"#. c #DEBB1B",
"$. c #DEBC1B",
"%. c #DDB81C",
"&. c #DDBA1C",
"*. c #DEBB1C",
"=. c #DEB91E",
"-. c #DEBB1E",
";. c #FFA000",
":. c #FFA300",
">. c #FFA400",
",. c orange",
"<. c #FFA600",
"1. c #FFA204",
"2. c #FFA707",
"3. c #FFA904",
"4. c #FFAB07",
"5. c #FFAC06",
"6. c #FEA10B",
"7. c #FFA30B",
"8. c #FFA408",
"9. c #FFA40B",
"0. c #FFA50B",
"q. c #FFA10D",
"w. c #FFA30C",
"e. c #FFA10F",
"r. c #FFA30F",
"t. c #FFAD08",
"y. c #FFAF09",
"u. c #F8A90D",
"i. c #FFB10A",
"p. c #FFB10B",
"a. c #FFB10C",
"s. c #FFB30C",
"d. c #FFB70F",
"f. c #FFB80F",
"g. c #ECA51B",
"h. c #EFA819",
"j. c #FFA113",
"k. c #FFA812",
"l. c #F1AC1A",
"z. c #F0AF1E",
"x. c #FDA919",
"c. c #FFB214",
"v. c #FFB910",
"b. c #FFBA11",
"n. c #FFBF12",
"m. c #FFBB17",
"M. c #FFBD14",
"N. c #FFBE15",
"B. c #FFBE17",
"V. c #FFBE18",
"C. c #FFBB1C",
"Z. c #FFBA1D",
"A. c #C18121",
"S. c #C68B20",
"D. c #C68C20",
"F. c #CC8D24",
"G. c #CF8F27",
"H. c #D09E20",
"J. c #D79728",
"K. c #D7952A",
"L. c #E2982B",
"P. c #DDA733",
"I. c #E2A629",
"U. c #E7BE21",
"Y. c #EEB926",
"T. c #EAB42B",
"R. c #E2C11B",
"E. c #E8CF1A",
"W. c #ECCB1F",
"Q. c #FFC017",
"!. c #FFC117",
"~. c #FFC317",
"^. c #FFC21A",
"/. c #FFC41A",
"(. c #FFC61A",
"). c #FFC61C",
"_. c #FFC71C",
"`. c #FFCA1A",
"'. c #FFCD18",
"]. c #FFC91C",
"[. c #FFC91E",
"{. c #FFC81F",
"}. c #FFC91F",
"|. c #FFCA1F",
" X c #ECD719",
".X c #ECD819",
"XX c #FFD410",
"oX c #F0DE19",
"OX c #FFDF19",
"+X c #F7EC17",
"@X c #F8EE17",
"#X c #F1E018",
"$X c #F5E918",
"%X c #F8EE18",
"&X c #FDE91E",
"*X c #FAEC1C",
"=X c #F9F017",
"-X c #FFF317",
";X c #FDF816",
":X c #FFFF15",
">X c #FFFC16",
",X c #FFFD16",
"<X c #FFFC17",
"1X c #FFFE16",
"2X c #FFFF16",
"3X c #FCF218",
"4X c #FDF21A",
"5X c #FFF41C",
"6X c #FFFC1A",
"7X c #F7C523",
"8X c #FBC623",
"9X c #FFC722",
"0X c #FFCB20",
"qX c #FFCC21",
"wX c #FFCC23",
"eX c #FFCE22",
"rX c #FFCE23",
"tX c #F8C926",
"yX c #FFCE27",
"uX c #F7D325",
"iX c #FFD023",
"pX c #FFD225",
"aX c #FFD226",
"sX c #FFD327",
"dX c #FFD527",
"fX c #FFD626",
"gX c #FFDC21",
"hX c #FFDF24",
"jX c #FFDF26",
"kX c #FFD228",
"lX c #FFD428",
"zX c #FFD528",
"xX c #FFD529",
"cX c #FFD628",
"vX c #FFD629",
"bX c #FFD729",
"nX c #FFD62A",
"mX c #FFD72A",
"MX c #FFD828",
"NX c #FFD829",
"BX c #FFD929",
"VX c #FFD82A",
"CX c #FFD82B",
"ZX c #FFE720",
"AX c #FFE622",
"SX c #FFE820",
"DX c #CD8D53",
"FX c #CC8B5E",
"GX c #CA8E78",
"HX c #CB9071",
"JX c #D6ACB0",
"KX c #D5ABB4",
/* pixels */
"                                                                                                    ",
"                                                                                                    ",
"                                                                                                    ",
"                                                                                                    ",
"                                                                                                    ",
"                                                                                                    ",
"                                                                                                    ",
"                                                                                                    ",
"                                                                                                    ",
"                                                                                                    ",
"                                                                                                    ",
"                                                  M 8.e.) M t f                                     ",
"                                              9 ' c.C.j.)   W  .[ 1                                 ",
"                                            d W Q g y            .L P Z F 9                         ",
"                                            d m.{ 3             9 D D                               ",
"                                            3 h 9Xe.i 3                                             ",
"                                              3 e.rX2.Z 9                                           ",
"                                                9 } }.b.F 3 3                                       ",
"                                                3 t t.}.}.! 9                                       ",
"                                              9 Z 1.!.}.V.3.F 9                                     ",
"                                          3 t W _.iXpXe.0 t F 9 3 3                                 ",
"                                      d M W ^ !.vXpXd.^ Z 9 3 3                                     ",
"                                  3 I a./.p.3.rXvXvX}.t.3.W I i 3                                   ",
"                                0 F B.vX_.p.rXvXvXvXvXvX0Xa.5.^ 0 3                                 ",
"                              9 I n.dXvXrX}.MXvXvXvXvXvXvXvXpXB.^ M 9                               ",
"                              M !.J.Y.tXvXyXC.rXAXSXAXSXhXMXMX7X] ; Z 3                             ",
"                            d :./.X k HXL.k.XX-X>X>X>X>X>X4XP.GXj . >.i                             ",
"                            F f.pXT.FXKXl @ -.$X>X>X>X>X.X+ z JXDXh.>.d                             ",
"                            :.B.MXMX8X> -.@.-.$X>X>X>X>X X+.-.R.&X/.>.d 3                           ",
"                          9 F b.vXvXkX^.>X>X>X>X>X>X>X>X>X>X>X>X*Xl.>.d 3                           ",
"                            0 W !.vXvXhX4X#.-.;X>X>X>X=X@X>X>X>XO.% W 0                             ",
"                            3 , n }.dXMXJ.A.$.S.+X>XoXD.b E.>XE.o u.Z 1                             ",
"                              = # : x I.O uX6Xv ..#Xv o.%XX.H.F.z.K 9                               ",
"                                3 * - $ & }.`.gXU.F.W.5XOX'.g.x.D i                                 ",
"                                    3 1 9 i F ` 8.7.8.7.( M d 9                                     ",
"                                            3 3 3 3 3 3                                             ",
"                                                                                                    ",
"                                                                                                    ",
"                                                                                                    ",
"                                                                                                    ",
"                                                                                                    ",
"                                                                                                    ",
"                                                                                                    ",
"                                                                                                    ",
"                                                                                                    ",
"                                                                                                    ",
"                                                                                                    ",
"                                                                                                    ",
"                                                                                                    ",
"                                                                                                    "
};
