/* XPM */
static char *b42cf4edec684c04e86c4dfb726124d7GgcFDcbJFPzc49NT[] = {
/* columns rows colors chars-per-pixel */
"50 50 242 2 ",
"   c None",
".  c #A64D25",
"X  c #AC5A24",
"o  c #B95122",
"O  c #B15A27",
"+  c #B25A36",
"@  c #B16224",
"#  c #B26425",
"$  c #BF7F21",
"%  c #B66F35",
"&  c #B76F36",
"*  c #CA6715",
"=  c #DB6D18",
"-  c #E76008",
";  c #FF6600",
":  c #FF6800",
">  c #FF6900",
",  c #FF6A00",
"<  c #FF6B00",
"1  c #FF6C00",
"2  c #FF6D00",
"3  c #FF6E00",
"4  c #FF6F00",
"5  c #E37209",
"6  c #E3740A",
"7  c #FF7000",
"8  c #FF7100",
"9  c #FF7200",
"0  c #FF7302",
"q  c #FF7800",
"w  c #FF7900",
"e  c #FF7A00",
"r  c #FF7D00",
"t  c #FF7E00",
"y  c #FF7F00",
"u  c #FF7805",
"i  c #FF7D08",
"p  c #C47126",
"a  c #C37F24",
"s  c #CC7A24",
"d  c #C1712B",
"f  c #C47629",
"g  c #C67929",
"h  c #C77B2A",
"j  c #CA7F2A",
"k  c #D16730",
"l  c #B56D7E",
"z  c #C68D1F",
"x  c #C78E1F",
"c  c #CB941F",
"v  c #FF8000",
"b  c #FF8100",
"n  c #FF8300",
"m  c #FF8500",
"M  c #FF8600",
"N  c #FF8800",
"B  c #FF8900",
"V  c #FF8A00",
"C  c #FF8B01",
"Z  c #FF8E00",
"A  c #FF8D04",
"S  c #FF8209",
"D  c #FF850B",
"F  c #FF8A0C",
"G  c #FF8F0E",
"H  c #FF9000",
"J  c #FF9301",
"K  c #FF9103",
"L  c #FF9500",
"P  c #FF9702",
"I  c #FF9305",
"U  c #FF9404",
"Y  c #FF9A00",
"T  c #FF9C00",
"R  c #FF9D00",
"E  c #FF9906",
"W  c #FF9807",
"Q  c #FF9F07",
"!  c #FF900E",
"~  c #FF920F",
"^  c #FF930F",
"/  c #FF960C",
"(  c #FF9A08",
")  c #FF9B09",
"_  c #FF9D08",
"`  c #E68910",
"'  c #E39B1F",
"]  c #E59B1E",
"[  c #D2A41D",
"{  c #D3A51D",
"}  c #D5AA1D",
"|  c #D7AC1D",
" . c #D9B21C",
".. c #DFBE1B",
"X. c #FFA000",
"o. c #FFA300",
"O. c #FEA402",
"+. c #FFA007",
"@. c #FFA306",
"#. c #FFA307",
"$. c #FFA407",
"%. c #FFA905",
"&. c #FFAD07",
"*. c #FFA00C",
"=. c #FFA30F",
"-. c #F8A60C",
";. c #FFA908",
":. c #FEAA09",
">. c #FFAA09",
",. c #FFA80B",
"<. c #FFA90B",
"1. c #FFAC08",
"2. c #FFAF08",
"3. c #FFAA0C",
"4. c #FFAB0C",
"5. c #FFAD0F",
"6. c #FFB00A",
"7. c #FFB10A",
"8. c #FFB00B",
"9. c #FFB10B",
"0. c #FFB30C",
"q. c #FFB50D",
"w. c #FFB40E",
"e. c #FFA316",
"r. c #FFA414",
"t. c #FFA415",
"y. c #FFA416",
"u. c #FFAA11",
"i. c #FFAA14",
"p. c #FFB713",
"a. c #FFB014",
"s. c #FFBA11",
"d. c #FFBB13",
"f. c #FFBA16",
"g. c #FFBB16",
"h. c #FFBD14",
"j. c #FFBE15",
"k. c #FFBC16",
"l. c #FFBD16",
"z. c #FFBE16",
"x. c #FFBB19",
"c. c #FFBF1B",
"v. c #FFBA1E",
"b. c #C28420",
"n. c #C48421",
"m. c #CD8F24",
"M. c #CE832A",
"N. c #C68D29",
"B. c #D18C29",
"V. c #D38D2A",
"C. c #CB9823",
"Z. c #DD9926",
"A. c #DD9D25",
"S. c #E1A324",
"D. c #E0A22F",
"F. c #E1A92B",
"G. c #E5AA29",
"H. c #FBBF22",
"J. c #E4C71A",
"K. c #E5CA1A",
"L. c #FFC017",
"P. c #FFC01B",
"I. c #FFC31A",
"U. c #FFC41A",
"Y. c #FFC51A",
"T. c #FFC51B",
"R. c #FFC31C",
"E. c #FFC81D",
"W. c #FFC91E",
"Q. c #FFCA1F",
"!. c #EAD319",
"~. c #E9D21A",
"^. c #EFDC19",
"/. c #FFD018",
"(. c #F7EC17",
"). c #FFEB14",
"_. c #FCE71B",
"`. c #F5E918",
"'. c #FEEF1C",
"]. c #FCF516",
"[. c #FDF916",
"{. c #FEFB16",
"}. c #FFFB16",
"|. c #FFFD15",
" X c #FFFE15",
".X c #FFFC16",
"XX c #FFFD16",
"oX c #FFFE16",
"OX c #FFFF16",
"+X c #FFFF17",
"@X c #FFF31B",
"#X c #FFF41A",
"$X c #FFF11C",
"%X c #FFFC19",
"&X c #EFCB22",
"*X c #F7C122",
"=X c #FFC122",
"-X c #FAC421",
";X c #FFC722",
":X c #FFC920",
">X c #FFCC20",
",X c #FFCC22",
"<X c #FFCE22",
"1X c #FFCF22",
"2X c #F9CC27",
"3X c #FFCE27",
"4X c #F3C429",
"5X c #FBCF29",
"6X c #FFD125",
"7X c #FFD325",
"8X c #FFD326",
"9X c #FFD427",
"0X c #FFD727",
"qX c #FFDB22",
"wX c #F9DD20",
"eX c #FFDE27",
"rX c #FCD428",
"tX c #FFD528",
"yX c #FED429",
"uX c #FFD529",
"iX c #FFD728",
"pX c #FFD629",
"aX c #FFD729",
"sX c #FFD62A",
"dX c #FFD72A",
"fX c #FFD928",
"gX c #FFD829",
"hX c #FFDA29",
"jX c #FFD82A",
"kX c #FFE323",
"lX c #FFE621",
"zX c #FFE422",
"xX c #FFE523",
"cX c #FFE722",
"vX c #FFE024",
"bX c #FFE225",
"nX c #CE8C49",
"mX c #B87180",
"MX c #D09E94",
"NX c #D39E9F",
"BX c #CEA0A9",
"VX c #D3A8B5",
/* pixels */
"                                                                                                    ",
"                                                                                                    ",
"                                                                                                    ",
"                                                                                                    ",
"                                                                                                    ",
"                                                                                                    ",
"                                                                                                    ",
"                                    F !                                                             ",
"                                  G t.  e.t.W                                                       ",
"                                S v.        R.!                                                     ",
"                                            q.i.                                                    ",
"                                            y f.D                                                   ",
"                                            A c.i                                                   ",
"                                        < ! k.5.0                                                   ",
"                                      u u.:X) 0 <                                                   ",
"                                  < y a.x.*.                                                        ",
"                                1 0 ;.p.y                                                           ",
"                                0 ;.>X/ ;                                                           ",
"                              1 t.>Xs.M                                                             ",
"                              v Q.aX2.M                                                             ",
"                            < v Q.aX7.L 1                                                           ",
"                            0 Y 7.aXQ.%.y 1                                                         ",
"                          < v 2.L.aXaXs.o.H 1                                                       ",
"                          w o.k.jXaXk.7.I.Q.+.y 1                                                   ",
"                        1 V q.6XaXaX6X6XaXaX:X0.L 0                                                 ",
"                        1 ;.6XaXaXaXaXaXaXaXaX6X&.H 1                                               ",
"                        w f.aXaXaXaXaXaXaXaXaXaX6X0.Z                                               ",
"                      < U 6XaXjXjXaXaXaXaXaXaXaXjXY.O.y                                             ",
"                      1 _ 6Xg S.H.=XqX#X#X@XvXjX2XA.* T                                             ",
"                      y I.aX+ mXk ;.).OXOXOXOX_.nXl o T 0                                           ",
"                      y Y.jXD.NXBXC.`.}.OXOX].N.VXMX] T 1                                           ",
"                      y Y.jX;X= & @ x }.OXOX!.# & F.0X;.1                                           ",
"                      v Y.jX3X/.OXOXOXOXOXOX}.OXOXcXaX3.1                                           ",
"                        I.jXaXcXOXOXOXOXOXOX}.OXOXkXaX3.1                                           ",
"                        *.aXaXcXOXJ.^.OXOX}.}...(.cX>X+.1                                           ",
"                        H *X5XeX%Xx . [ }.OXK.b.a aXZ.5 0                                           ",
"                        w ` g G.wXx !. .| }.$ c O B.s -                                             ",
"                          I ' j M.n.OXOX} [ X &X4Xp 6 0                                             ",
"                            W -Xd B.vX$X'.m.f jX6X-.M                                               ",
"                              ) k.0XaXaXaXaXaXY.7.Z                                                 ",
"                                y Q $.k.>Xs.+.L w                                                   ",
"                                  < 0 V V V 0 <                                                     ",
"                                                                                                    ",
"                                                                                                    ",
"                                                                                                    ",
"                                                                                                    ",
"                                                                                                    ",
"                                                                                                    ",
"                                                                                                    ",
"                                                                                                    "
};
