/* XPM */
static char *_a04099cebb64c8c9dd229e6aac9fceal9IkrRW6pqlmuPui[] = {
/* columns rows colors chars-per-pixel */
"50 50 246 2 ",
"   c None",
".  c #B03D28",
"X  c #BC771F",
"o  c #A74F25",
"O  c #A84B28",
"+  c #AB5824",
"@  c #AF552B",
"#  c #B2562A",
"$  c #B36723",
"%  c #BA7521",
"&  c #CF5F0F",
"*  c #D8530E",
"=  c #D65411",
"-  c #C5671E",
";  c #D27316",
":  c #FF6600",
">  c #FF6700",
",  c #FE6800",
"<  c #FF6800",
"1  c #FF6900",
"2  c #FC6A00",
"3  c #FF6A00",
"4  c #FF6B00",
"5  c #FF6C00",
"6  c #FF6D00",
"7  c #FF6E00",
"8  c #FF6F00",
"9  c #F17505",
"0  c #FF7000",
"q  c #FF7100",
"w  c #FF7300",
"e  c #FF7202",
"r  c #FF7400",
"t  c #FF7500",
"y  c #FF7700",
"u  c #FF7800",
"i  c #FF7900",
"p  c #FF7901",
"a  c #FF7A00",
"s  c #FF7B00",
"d  c #FF7903",
"f  c #FF7C00",
"g  c #FF7C01",
"h  c #FF7E00",
"j  c #FF7F00",
"k  c #FF7F01",
"l  c #FF7C02",
"z  c #FF7906",
"x  c #FF7E04",
"c  c #C26F28",
"v  c #C17B24",
"b  c #C47828",
"n  c #C87C29",
"m  c #C16532",
"M  c #D56C31",
"N  c #A54D57",
"B  c #BE7357",
"V  c #AE5A6B",
"C  c #B05F63",
"Z  c #C68C1C",
"A  c #CA941F",
"S  c #CB961F",
"D  c #E98407",
"F  c #FD8100",
"G  c #FF8000",
"H  c #FF8002",
"J  c #FF8400",
"K  c #FF8700",
"L  c #FF8601",
"P  c #FF8900",
"I  c DarkOrange",
"U  c #FF8D01",
"Y  c #FF8F00",
"T  c #FF8D02",
"R  c #FF8D03",
"E  c #FF8904",
"W  c #FF8E04",
"Q  c #FF8E0D",
"!  c #FF9200",
"~  c #FF9300",
"^  c #FF9400",
"/  c #FF9600",
"(  c #FF9506",
")  c #FF9800",
"_  c #FF9B00",
"`  c #FF9A03",
"'  c #FF9F00",
"]  c #FF9F06",
"[  c #FF9408",
"{  c #FF9F08",
"}  c #E4991D",
"|  c #F09511",
" . c #FF9810",
".. c #D9AC1F",
"X. c #DCB71A",
"o. c #DAB41C",
"O. c #DBB51C",
"+. c #DBB61C",
"@. c #DBB81B",
"#. c #DEBC1B",
"$. c #FFA000",
"%. c #FFA200",
"&. c #FFA300",
"*. c #FFA400",
"=. c orange",
"-. c #FFA701",
";. c #FFA602",
":. c #FFA205",
">. c #FFA505",
",. c #FFAC06",
"<. c #FFAE07",
"1. c #FFA008",
"2. c #FFA108",
"3. c #FEAD09",
"4. c #FFAC0A",
"5. c #FFAE0F",
"6. c #FFB00A",
"7. c #FEB20A",
"8. c #FFB00D",
"9. c #FFB60F",
"0. c #EFA312",
"q. c #E4A914",
"w. c #FBA514",
"e. c #FFAB17",
"r. c #FFAA19",
"t. c #FFB010",
"y. c #FFB614",
"u. c #FFB912",
"i. c #FFBB13",
"p. c #FFB814",
"a. c #FFB815",
"s. c #FFB915",
"d. c #FFBD14",
"f. c #FFBD15",
"g. c #FFBE14",
"h. c #FFBE15",
"j. c #FFBD16",
"k. c #FEBD17",
"l. c #F3B21B",
"z. c #FFB118",
"x. c #FFB11B",
"c. c #FFB31B",
"v. c #FFBE19",
"b. c #FFBA1E",
"n. c #C38720",
"m. c #C58920",
"M. c #C58A20",
"N. c #D28928",
"B. c #D28D2A",
"V. c #DA9A29",
"C. c #DE9F2A",
"Z. c #DFA333",
"A. c #E4AA2A",
"S. c #E5B127",
"D. c #EDB123",
"F. c #EBB527",
"G. c #E9B229",
"H. c #E8B329",
"J. c #F0BD28",
"K. c #E6C21E",
"L. c #E4C91B",
"P. c #FFC117",
"I. c #FFC219",
"U. c #FFC31A",
"Y. c #FFC51C",
"T. c #FFC61C",
"R. c #FFC61D",
"E. c #FFCC19",
"W. c #FFC81C",
"Q. c #FFCA1D",
"!. c #FFC81E",
"~. c #FFCA1F",
"^. c #FFCB1F",
"/. c #EAD21A",
"(. c #ECD719",
"). c #ECD819",
"_. c #EEDA19",
"`. c #EEDB19",
"'. c #EFDD19",
"]. c #FFE612",
"[. c #FFE514",
"{. c #F9E817",
"}. c #F2E218",
"|. c #F5E31A",
" X c #F4E618",
".X c #FCEE1A",
"XX c #FFF917",
"oX c #FEFB16",
"OX c #FFFB16",
"+X c #FFFA17",
"@X c #FFFF15",
"#X c #FFFC16",
"$X c #FFFD16",
"%X c #FFFE16",
"&X c #FFFF16",
"*X c #FFF719",
"=X c #FFF41B",
"-X c #EBC621",
";X c #FDC121",
":X c #F3CC24",
">X c #FCC921",
",X c #FFCC20",
"<X c #FFCE21",
"1X c #FFCD22",
"2X c #FFCC23",
"3X c #FFCE22",
"4X c #FFCE26",
"5X c #FACE2A",
"6X c #FFD022",
"7X c #FFD023",
"8X c #FFD024",
"9X c #FFD225",
"0X c #FFD326",
"qX c #FBD427",
"wX c #FFD427",
"eX c #FFD527",
"rX c #FFD727",
"tX c #FFDA27",
"yX c #FFDC27",
"uX c #FFDD27",
"iX c #FDD128",
"pX c #FCD228",
"aX c #FFD428",
"sX c #FFD528",
"dX c #FFD529",
"fX c #FFD628",
"gX c #FFD728",
"hX c #FFD629",
"jX c #FFD729",
"kX c #FFD72A",
"lX c #FFD829",
"zX c #FFD929",
"xX c #FFDA29",
"cX c #FFD92A",
"vX c #FFD82B",
"bX c #FFE621",
"nX c #FFE523",
"mX c #FFE723",
"MX c #FFE026",
"NX c #FFE920",
"BX c #FFEB20",
"VX c #C4815D",
"CX c #CA8B64",
"ZX c #CC9592",
"AX c #D1A6AB",
"SX c #DEC0CD",
/* pixels */
"                                                                                                    ",
"                                                                                                    ",
"                                                                                                    ",
"                                                                                                    ",
"                                                                                                    ",
"                                                                                                    ",
"                                                                                                    ",
"                                                                                                    ",
"                                                                                                    ",
"                                                                                                    ",
"                                        0 L t 1                                                     ",
"                                     .x.b.~.5.P 7                                                   ",
"                                  jX2X      eX9.I 7                                                 ",
"                                jXjX          R.` 0                                                 ",
"                                            z 4XQ :                                                 ",
"                                        t x x.P.H :                                                 ",
"                                    1 i t.~.e.I                                                     ",
"                                  0 ! p.2Xp.k                                                       ",
"                                7 ^ h.~.>.i                                                         ",
"                              1 k h.jXu.k 1                                                         ",
"                            1 i p.jX2X;.! I t                                                       ",
"                            7 ( 7X8X6.&.;.<.` i 1                                                   ",
"                            I h.vXI.u.I.R.2XP.:.i                                                   ",
"                          1 ] 8XjXeXjXjXjXjXjX8Xy.i 1                                               ",
"                          k 4.jXjXjXjXjXjXjXjXjXjXy.k 1                                             ",
"                        1 L ~.jXjXjXjXjXjXjXjXjXjXjX8.i                                             ",
"                        1 I >X5XvXjXvXvXtXtXtXjXjXvX0.& i                                           ",
"                        0 u.G.# V.;Xr.E.XXXX*XmXuXJ.B . H 7                                         ",
"                      1 i h.F.C AXM 6.].@X@X@X@X{.VXSXm ' t                                         ",
"                      7 ^ h.jXZ.ZXV X L.@X@X@X_.Z N CXl.&.t                                         ",
"                      7 ` <.7Xx.q.@.O./.@X@X@X}.O.X.:X~.' 0                                         ",
"                      1 P ;.2Xb.[.@X@X@X@X@X@X@X@X@XmXR.&.L                                         ",
"                        t &.R.vX*X@X X@X@X@X@X@X XXXmXR.;.I                                         ",
"                        t ^ 4.jXBXXX$ m._.@X@X(.n...MXD.D i                                         ",
"                          H ; A.qX|.% O.A '.@Xm.A O C.N.* 0                                         ",
"                            9 - B.n O.@X_.+ #.o -XG.c = 1                                           ",
"                            1 W } @ S.BX.XK.v b uX7X| 1                                             ",
"                                E w.h.eXeXtXiXiXv.I i                                               ",
"                                    k { 2.2.2.[ i 1                                                 ",
"                                          1 1                                                       ",
"                                                                                                    ",
"                                                                                                    ",
"                                                                                                    ",
"                                                                                                    ",
"                                                                                                    ",
"                                                                                                    ",
"                                                                                                    ",
"                                                                                                    ",
"                                                                                                    ",
"                                                                                                    "
};
