/* XPM */
static char *_fc2faa860514e6bf7816ade3bb6093bQY6Ka7Rp5RAzhYvx[] = {
/* columns rows colors chars-per-pixel */
"50 50 242 2 ",
"   c #0A0101",
".  c #0b040b",
"X  c #030B0E",
"o  c #0D0A0D",
"O  c #070507",
"+  c #140303",
"@  c #190604",
"#  c #150A04",
"$  c #1C0B03",
"%  c #140B0C",
"&  c #1C0B0B",
"*  c #17060A",
"=  c #1D110E",
"-  c #17100A",
";  c #040B16",
":  c #0C0C14",
">  c #020C1C",
",  c #060A17",
"<  c #120E14",
"1  c #1B0F12",
"2  c #150F19",
"3  c #0D1116",
"4  c #0E121B",
"5  c #04121B",
"6  c #141214",
"7  c #1C1314",
"8  c #1D1B15",
"9  c #14141B",
"0  c #1C161A",
"q  c #1D1A1C",
"w  c #14191C",
"e  c #230D0C",
"r  c #280D01",
"t  c #22110E",
"y  c #2A140C",
"u  c #2B1708",
"i  c #361904",
"p  c #250E11",
"a  c #231413",
"s  c #2A1614",
"d  c #241916",
"f  c #2B1A15",
"g  c #231619",
"h  c #241B1C",
"j  c #2B1C1C",
"k  c #2D1518",
"l  c #321B15",
"z  c #3A1C15",
"x  c #321D1C",
"c  c #371917",
"v  c #310F03",
"b  c #24211E",
"n  c #2C221D",
"m  c #2B2414",
"M  c #332214",
"N  c #34231D",
"B  c #3A251C",
"V  c #3A2717",
"C  c #3B200D",
"Z  c #141622",
"A  c #151A23",
"S  c #1D1C24",
"D  c #1C1E29",
"F  c #231D23",
"G  c #2B1E22",
"H  c #321E22",
"J  c #381F23",
"K  c #1C222B",
"L  c #1C2021",
"P  c #252224",
"I  c #2C2323",
"U  c #2E2925",
"Y  c #24232A",
"T  c #2C252A",
"R  c #242B2D",
"E  c #2D292C",
"W  c #332424",
"Q  c #3B2625",
"!  c #342A26",
"~  c #3B2A25",
"^  c #32252A",
"/  c #3B262A",
"(  c #342B2C",
")  c #3C2C2B",
"_  c #33302C",
"`  c #3B312D",
"'  c #2C2B33",
"]  c #262932",
"[  c #332C32",
"{  c #3B2E32",
"}  c #353233",
"|  c #3C3333",
" . c #33333B",
".. c #3D3539",
"X. c #3E3A3A",
"o. c #3A3937",
"O. c #293231",
"+. c #431F09",
"@. c #442916",
"#. c #49311B",
"$. c #523116",
"%. c #4C2A09",
"&. c #442B25",
"*. c #422D2C",
"=. c #4A2E2C",
"-. c #482921",
";. c #44322D",
":. c #4A332E",
">. c #483627",
",. c #563828",
"<. c #422D32",
"1. c #443433",
"2. c #4A3434",
"3. c #453835",
"4. c #4C3A35",
"5. c #443539",
"6. c #4B363A",
"7. c #453A3B",
"8. c #4C3B3C",
"9. c #533B35",
"0. c #5B3C34",
"q. c #533D3C",
"w. c #5A3E3C",
"e. c #533636",
"r. c #613E28",
"t. c #613A35",
"y. c #6D481D",
"u. c #5C4429",
"i. c #4C413D",
"p. c #46413E",
"a. c #53413D",
"s. c #5C423D",
"d. c #584537",
"f. c #674529",
"g. c #79552A",
"h. c #674938",
"j. c #69543C",
"k. c #78553A",
"l. c #734E2C",
"z. c #3C3A42",
"x. c #453C44",
"c. c #4B3E42",
"v. c #4A3B45",
"b. c #543E41",
"n. c #583E45",
"m. c #4D4343",
"M. c #4D4449",
"N. c #4A4647",
"B. c #544443",
"V. c #5B4443",
"C. c #554946",
"Z. c #5B4A45",
"A. c #534449",
"S. c #554A4B",
"D. c #5C4B4C",
"F. c #5C474B",
"G. c #5E5149",
"H. c #5B4E53",
"J. c #544951",
"K. c #5B5255",
"L. c #464E51",
"P. c #644341",
"I. c #624D4C",
"U. c #664A49",
"Y. c #774E48",
"T. c #63524E",
"R. c #6D544B",
"E. c #6F5848",
"W. c #7C5343",
"Q. c #755849",
"!. c #664E52",
"~. c #645453",
"^. c #6B5654",
"/. c #6B5956",
"(. c #65595B",
"). c #6D5A5A",
"_. c #675857",
"`. c #745D5C",
"'. c #775A54",
"]. c #79645E",
"[. c #736357",
"{. c #685D61",
"}. c #5C6467",
"|. c #746363",
" X c #7A6664",
".X c #786A69",
"XX c #6E6E73",
"oX c #776C71",
"OX c #7A7274",
"+X c #776D66",
"@X c #835E39",
"#X c #8C673A",
"$X c #90682E",
"%X c #845A4A",
"&X c #865B54",
"*X c #804E45",
"=X c #836142",
"-X c #886649",
";X c #8B6856",
":X c #966B58",
">X c #89745B",
",X c #977458",
"<X c #8E714C",
"1X c #A87E54",
"2X c #846A67",
"3X c #887566",
"4X c #987866",
"5X c #867A7D",
"6X c #987B75",
"7X c #9C6C60",
"8X c #B27C70",
"9X c #A8855C",
"0X c #95867B",
"qX c #9E826A",
"wX c #AE8963",
"eX c #A88A6A",
"rX c #B08C6C",
"tX c #B18B67",
"yX c #BD9869",
"uX c #AB8C75",
"iX c #B98878",
"pX c #A89476",
"aX c #B8A07C",
"sX c #C5966F",
"dX c #C9A374",
"fX c #D4AD76",
"gX c #DCAE75",
"hX c #928387",
"jX c #AE9F82",
"kX c #BCA685",
"lX c #C69786",
"zX c #D1B58D",
"xX c #DCBF93",
"cX c #E5B881",
"vX c #DDC094",
"bX c #F2C993",
"nX c #EBCBA1",
"mX c #FCD4A4",
"MX c #FCDBAA",
"NX c #F4D5A9",
"BX c #FFE2AE",
"VX c #FFE2B1",
/* pixels */
"x.P I U I m.~.&.9.4XuX,XrXtXwXg.f.=X-XrX,X:X:XW.Y.Y.'.&.V.) 8.1.;.:.4.C.8.B.G ( { I 1.1.~ ~ *.9.0.t.",
"0 < h h % d ) B ,.Q.=Xk.-X-X#Xy.$.l.@X=Xk.l.%Xf.r.,.:.l *.W ) Q N s N ~ k g   % ( h j d * s e y z z ",
": 6 F F 7 % a M l C i r.k.@Xg.g.#Xl.f.l.k.i +.,.v z &.9.I.q./ x x $ ~ 4.1.1.m.S.| ( j I k Z.a.9.>.&.",
"S Y Y [ ..^ f ~ d.,.$.rXnXMXmXVXmXsX1XwXrXf.r.;Xs.s.2.U.U.V.;.q.q.s 8.a.8.1.B.A.7.7.^ W k [.~.Z.9.4.",
": 6 : F ..I a B h.#.+.eXnXVXmXBXgXgXsX9X<Xk.,.E.9.9.Q q.:.2.&.s.^.~ B.B.8.) | ( 7.8.( Q a ).T.F.V.s.",
"Z K R } x.| 1.Z.E.,.$.9XnXmXmXMXcXbXgXdX-Xl.@.d.a.V.8.I.V.P.9.R.q.N 1.8.B.B.B.8.) ) ^ W = a.4.q.q.9.",
", 9 Z S F h I 2.M i i g.yXdXfXfXmXgXfXdX<Xf.@.d.Z.a.Q x k c c =.N d j j j ) n W ) k k d + = @ & d 8 ",
"D A 9 9 q h I W &.>.u.l.,X#X#Xg.sX$X$Xy.f.u.,.B j j k x *.&.&.&.N ) W j d ) d W 1.j ) ) ~ ~ ! ` P b ",
" .Z ' S < | m.a.4.E.-XeXzXnXNXBXbXMXMXvXkXpX3XZ.1.8.B.W 4.R.&.w./.D.1.1.;.Z.3.D..XZ.G.~.) 1.1.1.1.) ",
" .A ' S o E 8.B.4.d.j.j.>XeXzXxXnXMXNXaX-Xj.Z.Z.;.c.D.) q.`.e.e.8.7.1.1.1.i.1.B. XB.B.T.1.B.) j W H ",
"' Y  .E 6 T 7.m.a.4.d.#.u.k.kXkX<XpXkXjX>Xd.~ N ;.1.8.k H I.q.*.B.1.) W 8.B.*.~ I.q.Z.D.) ` j g g 8 ",
"9 6 P F 6 0 I I t # y @ $ u >X[.  # V d.G.d.4.4.;.*.1.k s 6.2.) ) d d + / / s $ @ @ k j + d 7 g 7 6 ",
"P b I U F h G j j a W N N M 0X].8 . . 8 n n f f l l *.) W Q j g g ^ B.) 8.1.2.q.F.4.) ) Q B.5.1.8.B.",
"7.i.| 7.7.} 5...^ j W 1.;.~ 0X+XX X X L ( ( ;.9.9.9.V.F.B.5.) { I 8.|.{..X X^.`.].^.q.) W m.| { I.!.",
"( 7.| m.m.| 7.7.[ ^ G S.S.8.5XoX5 5 > ; : 7 ) s.9.s.2.1.8.{ I T 7 ( B.G.`. X9.>.&.:.*.W j B.7.m.W W ",
"6 } X.H.K.X.c.c.T ^ h {.(.S.5XXX> > > 5 9 S ( 5.I. X^.~.|.(.5.^ 7 ) B._._. Xa.4.;.;.N n | (.7.{ ) ) ",
"X ; 3 w R 8 h . # % h m.7.S.hXXX> > > 5 5 4 Z Y X.| M.m.8.) a a @ N N n 1.` d d 8 d n 8 7 ( | 7 j j ",
"K K A 3 w o U ! 3.( I ( h ( 5XOX4 ; ; ; , Z A A D 0 q 6 g ) W N >.a.q.3.8.3.n d U 8 h U U I ^ Q 1.) ",
"[ [ T F G 1 c.H.6.1.V.^.`.~.hXoX2 4 , ; 4 K K A ] R E I 1.~.Z.a.2X2X X/.I.Z.i.! 8.` ` m.D.5.{ 8.D.B.",
"..{ [ T [ G H.oXH.c.B.V.).V.6X/.  O o X : S Y Z 6 < q g ( B.8.;.^.s.w.q.;.a.B.W W ) ) 8.~.D.6.5.B.8.",
"X._ q 6 S w L.}. .o.N.N._.i.OX_.% % O O 6 T E T [ h h j | F.I.`.2XU.I.V.2.V.F./ W ) ) 8./.).F.F.I.B.",
"U b 6 O 3 ; R R R O.R 8 m m 3X0XZ.! #   - P I 0 G % 6 7 j ) *.b.n.=.2.=.l / *.t W j a j / Q J / *.Q ",
"c Q W j ( F ] 9 : F 7 f f u f.h.E.>.#     # % % g 7 G j G W p e + e *.2./ *.q.1.2.8.8.) j W ) Q ) / ",
"0.P.V.2.A.M.K.x.x.x.k &.0.h.:X;Xh.#.u u e $ d ` 7.c.D.c.B.D.1.H k 1.).).q.4.q.8.) I.|.8.j 8.D.) ;.*.",
"t.P.U.e.<.x.x.J.v.^ a B h.;XrXlXeX>X#.M B $ B.a.B.~._.D.A.A.8.) j d K.~.` 7.i.8.8.D.~.3.t C.i.;.) <.",
"P.U.I.b.8.v.v.M.x.G f :.h.h.-XeXuXqXj.#.M $ a.B.B._.|.)._.H.8.W 7 b m.m.i.S.C.~.m.C.C.` = m.i.3.1.8.",
"~ ~ ( I U P P P 7 . $ M @.@.u.=Xk.k.h.@.u r >.;.1.B.S.m.c.c.| I . 8 P h U ( h ( a d I h # ! n a ) / ",
"a d d 7 h % h h f N V l C ,.f.h.$.i ,.@.C u y t & 7 1 + * 1 0 6 h P b 0 I ! j d d j ! ! N ~ _ ` ) ) ",
"*.2.6.6.q.Q U.R.'.&X&X%X7XiXlXiX:Xf.:X>XQ.9.~ Q W ! ^ G I ( { { } I ( | | S._.1.1.1.) ~ ~ ~ i.T.~.I.",
"/ 1.6.6.w.z '.;X&XW.*X:X8XiXsXlX;X,.;X4XQ.,.>.2.1.` ^ h h ^ | X.7.( | m.1.D.|.2.2.4.*.~ 1.N 2.B.2.1.",
"N.M.H.D./.&.3X6X4X;X%X;X;XW.W.;XW.%.k.;X'.s.T.Z.8.| T 0 0 I } ..7.c.1.8.2.q.U.Q =.q.2.4.T.2.9.2.2.2.",
"q P ( ( 3.# P.E.E.R.h.,.-.-.0.h.0.r @.0.s.4.a.j j n h g 0 0 0 0 0 | G j { ) <.H k x e a q.W ) j j H ",
"j d j j d d g * # a t t k N *.x x ~ / Q j I ) h h } ( h I ^ h h % h F h j h h ^ I j ) + & H <.H I ^ ",
"B.8.a.a.7.7.c.7.( 6 I 1.B.c.c.5.c.S.c...( | M.| ( m.m.c.J.H.A.S.[ [ P P o.p.p.m.m.i.A.Q ^ c.n.5.T E ",
"Z.i.m.m.| ^ ( ( 7.0 m.m.B.5.1./ ) 1.^ g 7 ( A.5.U ( ^ I ( { 7.S.P T P P ( o.( ^ 1.8.B.) g 1.5.<.I I ",
"i.7.m.S...I F F I 7 {.B.1.V.T.V.m.S.1.I j | K.B.7.1.| ( ( ) m.(.0 | 7.| } ( ! ) i.~.).F.G 6.6.A.8.1.",
"h h ( ..T F F I T 7 (.c.~ a.U.V.8.m.) j 7 k | I ^ Q ) | ) Q | 7.7 ( ( I j n ! 1.1.a.B.1.& / H / <.) ",
"o o 6 9 o < F P T   d W & s e y k j d k a d ) j k d j k & & a - 7 I h a n W j a N f k e * W H a j k ",
"T R E S 9 F [ E m.| 1./.U.`.R.'.~ ) 1.D.I.Z.^.T.V.a.q.1.N ~ 1.! | 7.1.| B.Z.;.s 4.~ 2./ 2.I.!.B.2.2.",
"S Y R Z : S E q T M.8.).a.`.R.R.Q Q ) Z.a.*.1.*.1.1.q.8.) 1.4.n | 7.) W 4.B.2.N B l ;.s x / 5.2.1.2.",
"D Y K A 4 9 Y ' < ^ 8.1.s.].].].~ 1.i.4.*.1.q.2.q.4.q.1.1.3.) ` 8.7.m.` ~ ). X~ :.:.2.~ / 8.B.*.q.q.",
"A K Y D A A S S 0 g | 1.4.s.9.q.t ! B.Z.8.4.4.*.*.Q ;.) ) 1.( | 3.1.m.3.) q.a.x &.&.2.1.1.8.S.8.*.*.",
"X : : : : 4 3 : <   7 W f s y l j ( 3.) e & p e p e j a = g % d 7 d j j a e e e l s x x a 7 g g a a ",
"] Y K K ]  .z.z.M.I 7.F.4.q.V.I.OX.X|.S.) 1.b.V.6.2.B.8.7.3.( o.6 U { 7.B.B.V.`.^.I.I.D.7.( ( } 8.8.",
"S Z 9 6 S '  . . .F { 5.) q.F.B.` U U h 1 k / *.<.) 8.8.| ( h P % E ( ( 8.q.8.F.F.8.8.7.I 6 0 P ( ) ",
"S Y S S R '  .' Y F ..1.5._./.T.X._ ( ( G ) 8.b.V.5.B.c.5.( 6 0 0 } ..| B.B.1.<.b.1.1.| h 6 q F ( ( ",
"q S S S S Y Y S F F [ { 8.I.I.~.N.X.} T h H 5.6.F.6.c.7...( q q 6 F T { m.B.B.B.b.8.c.7.( E } } [ ( ",
"6 9 9 9 6 9 9 9 9 < %   * a e j 8 7 d 7 + * k x j * & 1 0 0 o 6 P q 0 0 g a d j & & g d 6 q P h 7 g ",
"0 q q P 9 3 S 3 S q F h 8.1.2.2.= i.8.q.V.e.w.=.=.4.8.) ( ..( ..7.x.| 7.m.5.{ g 1.G 8.8.A.| ( 7.*.2.",
"Y T Y ' Y Z R A S q F h 8.1.2.2.a a.a.h.P.0.P.=.:.q.B.| } } I ^ ( } ( 1.8.1.| h ) d { { 8.^ Q 1.e.w."
};
