/* XPM */
static char *a81aee1d16134c90f6653c7cff78d104bnyjuAdkJSj8nHyH[] = {
/* columns rows colors chars-per-pixel */
"50 50 242 2 ",
"   c #794126",
".  c #7B452A",
"X  c #8D3918",
"o  c #983E1C",
"O  c #9E451C",
"+  c #97431D",
"@  c #8E401C",
"#  c #A5441C",
"$  c #854A2E",
"%  c #8B4D2D",
"&  c #894427",
"*  c #934322",
"=  c #9C4623",
"-  c #9B4925",
";  c #934D2C",
":  c #9D4B2A",
">  c #984728",
",  c #8E522F",
"<  c #97522A",
"1  c #844E32",
"2  c #8B4E33",
"3  c #8C4D3B",
"4  c #914C32",
"5  c #8B5233",
"6  c #8C553A",
"7  c #875537",
"8  c #935435",
"9  c #9A5435",
"0  c #915439",
"q  c #935B3C",
"w  c #9B5B3D",
"e  c #965936",
"r  c #A24623",
"t  c #A34B23",
"y  c #AB4C25",
"u  c #A44C2A",
"i  c #AA4D2B",
"p  c #A64728",
"a  c #A4532C",
"s  c #AC532D",
"d  c #A55C2C",
"f  c #AB5B2D",
"g  c #A85725",
"h  c #B15125",
"j  c #B2532D",
"k  c #B5582C",
"l  c #A84F30",
"z  c #A55432",
"x  c #AC5432",
"c  c #A35B31",
"v  c #AC5B34",
"b  c #A35C3C",
"n  c #AB5D3A",
"m  c #B25533",
"M  c #B25B34",
"N  c #B45C3B",
"B  c #B95C38",
"V  c #B34C2B",
"C  c #9C633D",
"Z  c #8B603E",
"A  c #AC612D",
"S  c #B3642D",
"D  c #B9682E",
"F  c #AC6432",
"G  c #AD6A33",
"H  c #A2643D",
"J  c #AB643C",
"K  c #AD6A3B",
"L  c #A56636",
"P  c #B36534",
"I  c #BB6535",
"U  c #B46A35",
"Y  c #BA6B35",
"T  c #B4633C",
"R  c #B56C3B",
"E  c #BA6C3B",
"W  c #B9613B",
"Q  c #B6723C",
"!  c #BC733D",
"~  c #BE7236",
"^  c #C36F3A",
"/  c #C2733C",
"(  c #C9743D",
")  c #8C5E41",
"_  c #925E42",
"`  c #9C5C42",
"'  c #905B49",
"]  c #A65F41",
"[  c #A95E42",
"{  c #8B6144",
"}  c #8D6249",
"|  c #946245",
" . c #9C6344",
".. c #94654B",
"X. c #9B644B",
"o. c #95694C",
"O. c #9C6B4C",
"+. c #9D6A45",
"@. c #9E704E",
"#. c #9C6D53",
"$. c #986A54",
"%. c #9E7254",
"&. c #9F755B",
"*. c #A46343",
"=. c #AA6443",
"-. c #A46B45",
";. c #AC6A45",
":. c #A4644A",
">. c #AA644B",
",. c #A26C4C",
"<. c #AC6B4B",
"1. c #B46A45",
"2. c #B26549",
"3. c #B36C4C",
"4. c #BA6D4C",
"5. c #B76643",
"6. c #AC7245",
"7. c #A4724B",
"8. c #AC734C",
"9. c #AD7A4D",
"0. c #A4794A",
"q. c #B37245",
"w. c #BC7342",
"e. c #BE7A45",
"r. c #B3744C",
"t. c #BA754D",
"y. c #B47A4D",
"u. c #BA7C4D",
"i. c #A36D55",
"p. c #AC6C51",
"a. c #A36C5A",
"s. c #B26E52",
"d. c #B96C51",
"f. c #A47354",
"g. c #AC7554",
"h. c #A57955",
"j. c #AC7A53",
"k. c #A3735A",
"l. c #AB765B",
"z. c #A57A5B",
"x. c #AB7C5C",
"c. c #B47454",
"v. c #BB7251",
"b. c #B37C53",
"n. c #BB7D54",
"m. c #B4755A",
"M. c #B37D5C",
"N. c #BC7C5B",
"B. c #BB7359",
"V. c #9C7C61",
"C. c #A47C62",
"Z. c #AC7C63",
"A. c #AA7B68",
"S. c #B27D61",
"D. c #BB7D64",
"F. c #C37443",
"G. c #C37A45",
"H. c #C37C4B",
"J. c #C87946",
"K. c #C37E53",
"L. c #C37856",
"P. c #C06D41",
"I. c #C17A64",
"U. c #B8814E",
"Y. c #AC815C",
"T. c #B48255",
"R. c #BC8355",
"E. c #B4825B",
"W. c #BB845B",
"Q. c #BC895B",
"!. c #BF8C57",
"~. c #9D816C",
"^. c #A48162",
"/. c #AC8263",
"(. c #A6836B",
"). c #AC846B",
"_. c #AC8A6C",
"`. c #AE8966",
"'. c #B48464",
"]. c #BA8464",
"[. c #B38B65",
"{. c #BC8A63",
"}. c #B3856B",
"|. c #BC856A",
" X c #B48B6B",
".X c #BC8D6B",
"XX c #BC926D",
"oX c #B8916C",
"OX c #AD8B72",
"+X c #AB8B76",
"@X c #B38C73",
"#X c #BB8D72",
"$X c #B48875",
"%X c #B39274",
"&X c #BC9474",
"*X c #BD9875",
"=X c #B4947B",
"-X c #BB957B",
";X c #BC9B7C",
":X c #B69C7C",
">X c #AE9378",
",X c #BEA07E",
"<X c #C7834B",
"1X c #C28355",
"2X c #C2845B",
"3X c #C38B5C",
"4X c #C58858",
"5X c #C38561",
"6X c #C28B63",
"7X c #C88C62",
"8X c #C28D6A",
"9X c #C68768",
"0X c #C19366",
"qX c #C4936B",
"wX c #C89469",
"eX c #C39573",
"rX c #C49A75",
"tX c #C39B7A",
"yX c #C99A79",
"uX c #C99274",
"iX c #C7A17D",
"pX c #B49B83",
"aX c #BC9B83",
"sX c #B79785",
"dX c #BA9E92",
"fX c #BDA183",
"gX c #BCA38B",
"hX c #B8A68A",
"jX c #BCA698",
"kX c #C39D85",
"lX c #C69A84",
"zX c #C09E92",
"xX c #C3A282",
"cX c #CBA484",
"vX c #C3A38A",
"bX c #C5AB8C",
"nX c #CBAA8B",
"mX c #C4AA94",
"MX c #C7A896",
"NX c #C6B398",
"BX c #D1AA87",
"VX c #CDB4A0",
/* pixels */
"|.4.3.5.5.5.4.1.4.d.4.5.gX$Xk.f.,.f.i.a.f.f.i.i.k.xXu.y.n.t.n.n.E.q.t.y.q.oX%.X.O.X.| | | _ ) ) 7 o.",
"N.j N M v s i x s x v f zX}. . .` `  .9 w w q e X.-XK R R F F f F J F L A /. .5 7 6 1 1 1 $       7 ",
"sX).$X).OX$XsX;X[. X[.'.MX-X`._.$X X_.>XA.}.}.Z.C.sX/.S.h.z.z.`.OXx.S./.x.=X X^.z.x.z.z.OX_.(.).(.+X",
"w X.*.-.:.:.=X6XY E E R D I Y Y R Y Q kXI m M M h y s s j m y g.rXg P P M g f g a g d c 7.:.O. .] ` ",
"z.k.k.f.#.k.sXeXy.b.b.g.9.8.8.g.b.y.b.jXc.p.2.<.<.,.:.:.:.>.b ).gX6.j.9.g.9.7.7.7.-.7.g.^.k.&.k.z.k.",
"|.5.d.2.<.3.d.4.3.v.m.3.gX.Xn.2XW.T.R.W.T.E.n.b.&XpXi.#.#.#.#.%.$.o.$.#.o.=XeX5X{.2XW.6X{.N.W.2XW.XX",
"D.h x s x i y s i i l y kXR.G U I P I S A A A A b.@X9 0 5 % 5 % 5 1 2 6 $ ).1XY R F.E R G R U U K n.",
"sX}.}.'.'.D.@X Xb.l.x.9.kX&X'. X{.E./.%XM.g.M.S.}.=XO.#.i.o. .k._.f.x.&.,.@X'.b.E.M.x./..X'.'. X].eX",
"j v j j N m |.0Xw.E Y E Y Y Y I Y I R ,XB m y s i # s u s i # h.rXS E S P S f F v d f F l.N M M v m ",
"*.b =.=.:.=.#XtXq.;.6.6.x.b.y.9.r.r.c.vXc.<.*.*.*.:.*.*.=.>.*.^.aX8.8.g.8.h.8.8.7.8.7.f.^.<.=.<.=.<.",
"sX:.i.k.k.f.A.A.z.k.Z.x.dXqXR.{.R.R.n.{.b.u.N.y..X-X=.>.=.>.>.<.<.:.>.p.*.-XeXW.W.n.n.N.T.c.n.b.y.{.",
"pXX.X.:.X.C  . .X.:.,.w %X1XY E F K w.P U S R P b.8X# p r O - O # r r + # x.6Xe.1.R E Y Y Y R P K b.",
"aXA.Z.Z.Z.Y.>X Xx.S./.Z.fXtXoX.X*XXXXXpX_./.).^.@XpXl.Z.k.%.f.+X_.z.Z.x.x.=XaX`. X[.'.[.pX|.'.}. X#X",
"m N N W m j |.wX/ / / F./ E E R Y E w.vX,.w b ` w 8 q 6 w w 9 A.qX! E Y E Y I R I S A L aX5.W W 5.N ",
"c.g.<.g.m.s.-XxXW.Q.W.b.E.b.n.b.b.c.b.jX&.$.X...X.o.#.o.O.o.| +XeXK t.9.b.9.9.9.6.6.8.z.mXm.g.<.<.8.",
"].t.L.v.c.4.m.N.m.v.m.m.bX0X3X8XQ.{.3X0XK.W.W.R.;X-X>.2.;.:.>.8.s.>.<.p.;.kX.XW.W.6X5X6X6XQ.n.R.n.qX",
"v.h k h i i j h j k j s yXH./ Q ! w./ Y Q R Q / .X'.r p = u t O r y O p u &Xu.w.F.e.G./ ^ w.w.~ P.3X",
"$X'.}.}.}.x.@X}.m.M.M.S.aX&X}.'.[.'.'.sX.X'..XE..X&Xg.,.g.j.<.@X_.f.f.k.C.pX%X_. X_.}.[.=Xx./..X#X-X",
"`  .,.g.,.C  X].j m m m s s x x x x 9 vX3Xt.R E ! Y Q E ! R P rXz.% 8 8 5 % 5 2 2 7 3 5 sX:.` :. . .",
"f.h.f.i.k.,.@X#Xb ;.;.=.-.H =.=.=.=.>.MX6XW.b.9.b.b.y.c.y.9.y.:X)._ | .._ ..| X.} } } { dXx.f.k.f.z.",
"rX1XQ.2XW.2XwX6XW.4XR.2XvXm.s.s.3.<.3.N.m.s.s.2.}.cXn.n.y.b.n.W.W.t.y.c.r.;Xc.1.v.4.5.1.v.v.v.v.B.8X",
"qXF.e.! ! ! Q w.F./ ! F.lXn y z s a s t a i i y r.yXE E Q R U I F R G J v =X=.u x s s x i i x v N n.",
"-Xb.E.E.W.Q.*X%X}. X%X}.gX).x.z.z.z.Z.@Xg.S.M.g.}.kX{.].'.{.E.-XE.y.b.j.g.=X'.M.x.E.'./.sX'.'..X].oX",
"/ ! F.F.F.! eX#X]  .*.` *.*.` q ` w :.-Xq.T v N M s s i m x s lX2Xf R U U U Y P P U R 6.bX<XG.H.G.J.",
"W.W.].W.W.n.xXaXx.z.f.f.f.:.,.%.O.,.%.aX'.m.8.g.g.<.m.h.,.p.-.pXtXj.T.j.j.E.E.M.c.j.c.M.NXT.M.n.T.W.",
".X4.m.4.;.<.B.m.c.v.c.3.bX7X!.3X2XW.2X6XR.b.2XR.iXaXl.l.f.i.O.a.a.k.#.k.X.gXqX1XR.W.W.6X5XR.y.n.n.tX",
"N.j x s s s i y u l x s tXH.! J.~ Y E S U P E S {.=X0 q e 0 q 0 2 8 e ` 8 sX<X~ ! w.! I I ;.U R Y &X",
"-XM.M.'.'.m.#X XW.[.].{.bXrXqXeXqXqX&XiX9X|.|.{.eXlXY.x.g.f.,._._.j.j.M.j.aX{.T.E.E.E.E.:X]..X.X6XvX",
"m v m M m y 8XwX( G.F.J.F.F.F./ G.F.1XlXk s x f j V a u r p # ].6XP S I F f f v f A v K #Xk B B W N ",
"8.<.<.3.<.;.kXiXn.E.W.n.Q.n.T.U.T.R..XMXy.8.3.<.<.<.*.<.g.l.8.sXeXj.9.8.,.0.8.g.y.9.9.x.kXq.<.r.4.3.",
"@Xg.k.l.l.x.}./.x.x.x.l.NX8XW.R.4XR.2X8XR.2X1Xn.rX[.b *.<.<.=.:.>.] b b b iX7XK.1XN.R.7X].n.R.2X5XtX",
"k.< q e 8 9 ; , 9 9 e w mXH.Y E E T R S R R Q Y qX|.p u u u u = > - u u : aXH.Q w.Q Q D R I U U S .X",
"aXS.S.x.'.S.=X*X.X#X&X XxXqX{.{..X6X.XvX'.}./.A.@X X#.%.#.k.+.OX X-.f.l.g.|.E.g.M.x.8.,.=X.X X&X#XlX",
"v v M T T x 8XBX<XF.J.J./ Y R ~ ! E w.nXb 8 e ; 8 8 2 5 2 $ $ OXI.O : r - o * + * > o * '.B N N T N ",
";.;.<.;.<.b &XnXR.W.n.u.{.2XW.W.W.W.'.NXz.&.h.7.#.#.O.@.f.h.#.=X#XH C H C O.| X.| i.X...=X<.2.=.J >.",
"yX1X].u.R.W.2X7X5X2X1X4XMX4.4.s.3.r.3.4.<.1.<.N |.iXw.n.2X1Xt.K.2XW.t.r.u.sXk.#.o.i.i.$.$.} o.O.} /.",
"qXQ t.F.w.F.! w.F.! G.<XnXM f z x f s h a s v l '.yXR e.q.R R P R R R 1.Q @X` e 5 2 2 , 4 , 5 2 1 k.",
"eX'.m.M.g.y.-X-XM.'.'.^.aX}.^.'.}.x.Y.vX6X|.XX{.eXBX.XXX8X0X{.;X&Xj.x./.C._.$.o.X.$.....(.f.l.A.C. X",
"u t = = = # ].|.; 4 9 e ; 5 5 , 5 % % ;XH.F.! ! ^ E E R I Y I qXZ.; q 5 6 ; 2 % 1 1 . 6 %XN l u u u ",
":.*.,.-.8.=.-XfX@.l.f.,.@.7.,.k.@.#.#.bX{.R.R.W.E.T.W.T.E.W.b.vXgXx.^.C.l./.V.C.C.V.&.~.mX<.J =.=.<.",
"S.c.b.B.L.m.m.m.2.3.;.1.nX3X1X2X1X1X1X3X2XR.1X<XnX.Xn *.:.[ b :.>.] [ ` H vX{.T.R.W.E.Q.E.y.c.E.9.oX",
"2.i x x s s u + : : > z nXR P F S P R Y U F E Y yXD.: z : > > * * > * * ; .XR K F P v d v A S P d M.",
"%X}. X XoX/.%X*XM.'.].'.nX0X.X0X6X{.oXxX].|..X].*X-X'.'.'.'.x.&X*XM.E.j.Y.&Xb.j.0.j.j.j.=XOX_._. XaX",
"2 8 2 2 5 $ ^.yXJ.u.G.u.J.K.u.G.J.w.U.cXi z g p u r a = o > X S..Xh d f f a v z f f d n %X_ 0 0 q 7 ",
"| { _ ) Z 6 %XrXq.E.U.n.R.M.W.1XQ.Q.qXVXc.h.r.p.8.H  .,.,.i.*.sXfXc.E.b.b.E.T.b.M.x.h.M.hX$...o.O.$.",
"l.b :.:.;.J <.;.*.:.<.>.bX4X1XK.1X3X4X5X1XR.K.r.tXaXX.#.%.%.o.#...} ..} ' :XQ.T.W.W.T.R.].n.t.u.r.XX",
"p.- > > = = - > a : z z nXG.Y ! w.w.E P G F J A '.aX2 6 5 1 . $ $ .       _.w.L F P M A v F F F c E.",
"-Xx.Y.M.x.x.;X}.f.}.'./.MX#XoX@X X'.[.cX].|.'.E..XeXf.Z.x.z.l.=X;X}. X X[.kX.XY.Y.'.'.[.;XXX*X-XeXfX",
"w.w.R R R F cXC.$ 6 6 5 5 5 $ 5 5 % _ &X: : > : > + X * * * @ S.2Xg d v c d c < a < < c oXR Q w.w.w.",
"R K K K J F iX(.6 | q q q q 6 q 6 7 o.fXb =.*.*.C w 8 e 8 w 5 @XoXC -.-.-.H ,. .-.+. .O.=X6.-.;.L K "
};
