/* XPM */
static char *_b2a5c0f1f0640c7e7363c30785f6cb5RmRhFky8Yo2FXfcc[] = {
/* columns rows colors chars-per-pixel */
"50 50 215 2 ",
"   c None",
".  c #693500",
"X  c #7D3900",
"o  c #784700",
"O  c #7D5A00",
"+  c #674500",
"@  c #862B00",
"#  c #9D2900",
"$  c #873A07",
"%  c #943D00",
"&  c #8A4400",
"*  c #964602",
"=  c #895400",
"-  c #9A5700",
";  c #8A4217",
":  c #AB521A",
">  c #866400",
",  c #936700",
"<  c #9A6E00",
"1  c #9E6700",
"2  c #897300",
"3  c #9E7600",
"4  c #B16204",
"5  c #B16725",
"6  c #D44D00",
"7  c #FD7601",
"8  c #F47C02",
"9  c #FA7A00",
"0  c #FF7D0D",
"q  c #F57805",
"w  c #E47B1E",
"e  c #ED7C1C",
"r  c #EB771D",
"t  c #F97B18",
"y  c #FA6D13",
"u  c #D47B2E",
"i  c #F97727",
"p  c #F57C32",
"a  c #CD7C48",
"s  c #9C8400",
"d  c #AA8602",
"f  c #AA830E",
"g  c #B68B00",
"h  c #B99300",
"j  c #BEA000",
"k  c #C58700",
"l  c #C48F17",
"z  c #E68100",
"x  c #E98807",
"c  c #FD8300",
"v  c #F68C00",
"b  c #FC8B00",
"n  c #F1800F",
"m  c #E59D00",
"M  c #EF9100",
"N  c #FF9300",
"B  c #FF9C01",
"V  c #FF910C",
"C  c #FF9A0C",
"Z  c #F29600",
"A  c #EC8619",
"S  c #F38113",
"D  c #F4841C",
"F  c #F9891D",
"G  c #E99516",
"H  c #FF9A14",
"J  c #FF951D",
"K  c #F99A17",
"L  c #C2A000",
"P  c #D3AD10",
"I  c #DBBA18",
"U  c #E2A100",
"Y  c #FFA201",
"T  c #FEAC01",
"R  c #FFAA0C",
"E  c #FBA606",
"W  c #FFB302",
"Q  c #FFBC01",
"!  c #FFB30C",
"~  c #FFBD0E",
"^  c #FEA314",
"/  c #FFAC14",
"(  c #FEA11B",
")  c #FFAD1F",
"_  c #FFB314",
"`  c #FFBD13",
"'  c #FFBF1C",
"]  c #FFB21D",
"[  c #DB8527",
"{  c #E68323",
"}  c #EA8429",
"|  c #F68828",
" . c #FF9D24",
".. c #FC952D",
"X. c #F59D2A",
"o. c #E78A3B",
"O. c #FD843C",
"+. c #F8883C",
"@. c #E69138",
"#. c #FB9636",
"$. c #DDA42F",
"%. c #DEA23B",
"&. c #DDB337",
"*. c #FFAD29",
"=. c #FDA429",
"-. c #FFB623",
";. c #FFBD25",
":. c #FFB329",
">. c #FFBB2A",
",. c #F7AB3B",
"<. c #E0B632",
"1. c #FFBA3D",
"2. c #FFB632",
"3. c #FFC205",
"4. c #FED300",
"5. c #FFDC03",
"6. c #FFD60D",
"7. c #FFDD0F",
"8. c #FFC41C",
"9. c #FFCC1C",
"0. c #FFCC14",
"q. c #FFD314",
"w. c #FFD41D",
"e. c #FFDA1C",
"r. c #FFDE17",
"t. c #FEF502",
"y. c #F5FD00",
"u. c #FDFD02",
"i. c #FBF20E",
"p. c #FCFB0A",
"a. c #FFE21D",
"s. c #FFF513",
"d. c #FCFB13",
"f. c #FFF51D",
"g. c #FFFC1C",
"h. c #FFC324",
"j. c #FFCB23",
"k. c #FFC42A",
"l. c #FFCD2C",
"z. c #FFD423",
"x. c #FFDB24",
"c. c #FFD42B",
"v. c #FFDB2B",
"b. c #F4DB22",
"n. c #EFCB39",
"m. c #FFC533",
"M. c #FFCD33",
"N. c #FFC33C",
"B. c #FFCD3B",
"V. c #FFD433",
"C. c #FFDA33",
"Z. c #FED43A",
"A. c #FFDC39",
"S. c #F4D831",
"D. c #FEE522",
"F. c #FFEA29",
"G. c #FEF522",
"H. c #FFFC24",
"J. c #FFF42B",
"K. c #FFFB2B",
"L. c #FEED33",
"P. c #FFE333",
"I. c #FFF433",
"U. c #FFFC33",
"Y. c #FFF43C",
"T. c #FFFB3A",
"R. c #D28547",
"E. c #E68A47",
"W. c #ED9549",
"Q. c #FF9A4C",
"!. c #E99B5C",
"~. c #E39254",
"^. c #FA9C5A",
"/. c #FFA44E",
"(. c #FFAC4D",
"). c #FFBA49",
"_. c #FBB748",
"`. c #FFA254",
"'. c #F8A558",
"]. c #EDB158",
"[. c #FFBE56",
"{. c #ECAC4D",
"}. c #F09667",
"|. c #FBA669",
" X c #FFB070",
".X c #E9A472",
"XX c #FFC445",
"oX c #FFCA45",
"OX c #FFCC4B",
"+X c #F0C444",
"@X c #FFD345",
"#X c #F7D84A",
"$X c #FFCE5C",
"%X c #FFC05B",
"&X c #FFD956",
"*X c #FFE545",
"=X c #FFED43",
"-X c #FFE64B",
";X c #FFEC4B",
":X c #FFF245",
">X c #FFFA43",
",X c #FFF64C",
"<X c #FFFA49",
"1X c #FFE75C",
"2X c #FFEB54",
"3X c #FFF354",
"4X c #FFF75A",
"5X c #FFD966",
"6X c #FFDD73",
"7X c #FFE169",
"8X c #FFEB66",
"9X c #FFF06B",
"0X c #F8AE84",
"qX c #FFC6A2",
"wX c #FFD4C7",
/* pixels */
"                                                                                                    ",
"                                                                                                    ",
"                                                                                                    ",
"                                                                                                    ",
"                                                                                                    ",
"                                                                                                    ",
"                                        a .X                                                        ",
"                                    0Xu `.                                                          ",
"                                      @.=.*.G [                                                     ",
"                                        %.$X).[.(.W..X                                              ",
"                                            }.E.#._.1.,.o.                                          ",
"                                                /.9 v T H }                                         ",
"                                                /.c T h.( S                                         ",
"                                              `.q b W 9./ c w  X                                    ",
"                                            O.q v 8.w.z.l.:.F |.                                    ",
"                                        E.p ..C 8.w.x.x.V.) F ^.                                    ",
"                                        F H ) >.l.c.e.c.B.( (.                                      ",
"                                  !.[ G ] M.l.l.c.v.z.c.M.:.X.'.                                    ",
"                                }  .*.>.V.v.q.x.z.c.c.A.Z.Z._ N x E.                                ",
"                              { ( Y ;.Z.c.z.x.e.z.9.c.C.c.j.Q T Y J o.                              ",
"                            A ( R h.M.V.C.C.v.z.v.x.v.c.l.` ' k.B.R ^ A  X                          ",
"                        !.| ( ! l.W 8.Z.c.c.c.z.e.x.x.z.C.c.c.C.j.c.j.-...!.                        ",
"                      ~.A N ] l.w.w.c.8.h.l.j.v.x.D.x.e.e.e.q.6.D.4.w.' v #.                        ",
"                      D N E >.OXOXoXB.T M x m e.Y.I.J.J.5.7.e.v.S.Z.N.N.2.=.o.                      ",
"                    i 7 B ;.$X{.; $ 4 1.=XD.J.K.J.H.g.t.i.T.P.&X].& @ o.[.J D                       ",
"                    i 7 B ;.G - wXwX5 k ;XY.G.G.g.p.u.y.K.Y.-X$.* qX: o.).*. .w                     ",
"                    y V ` V.oX,.* $ X . + 2 L.K.d.H.t.K.>Xs o & X * ,.OXM.' N |                     ",
"                    t H 8.x.T m 5X6X7X8X-X=XI.H.g.y.p.K.Y.;X1X&X5XOXZ.c.v.j.B t                     ",
"                    t H 9.4.3.U =X<XI.I.K.K.G.H.p.d.u.u.g.K.I.>XY.<Xz.c.c.k.B n                     ",
"                  o.7 B 8.x.4.5.s.u.K.t.g.f.K.s.d.y.y.y.t.s.T.J.H.i.F.z.V.h.^ S                     ",
"                  e 7 ^ ;.l.c.a.p.u.i.I.,X=X:X>Xg.u.u.u.p.J.;X;XT.f.a.e.Q T C t                     ",
"                  w 0 H Y l.M.v.d.u.K.,XI O #X3XI.p.t.u.U.4Xh < *X=Xq.q.3.B 9 p                     ",
"                    p c B ~ V.C.K.d.G.,X<.. o +X=XK.u.t.,X9Xl . - &XV.Q T B |                       ",
"                      e N _ V.C.I.K.U.:X&.= $X, P ;XK.U.;X3 l {.& %XXX_ B J E.                      ",
"                      ~.S N W w.J.J.I.j , 7X4X;X3 d 3Xb.> I 3X1X{.% # 6 0 Q.                        ",
"                        ^.F -.9.r.D.,Xg < 9XF.<Xd f n.> Z.-XL.A._.% i O.p }.                        ",
"                          '.V T 0.v.@Xk 1 2XT.I.4XL < A.-X*Xx.c.B.XX#.O.0X                          ",
"                            } 8 Y h.N.oX@XV.x.L.Y.=XC.A.C.j.c.l.k.*.|                               ",
"                              } 9 E >.m.V.c.V.V.6.e.z.c.j.l.! /  .@.                                ",
"                                +.S z Z / R oXm.0.0.j.E ^ K z A W.                                  ",
"                                    |.{ 8 c H H Y B J F [ R.                                        ",
"                                          +.r | { } `.                                              ",
"                                                                                                    ",
"                                                                                                    ",
"                                                                                                    ",
"                                                                                                    ",
"                                                                                                    ",
"                                                                                                    ",
"                                                                                                    ",
"                                                                                                    "
};
