/* XPM */
static char *_28a95a2533d490ffbaa173cbc22287cWTYA3Tl3ccYZy7aj[] = {
/* columns rows colors chars-per-pixel */
"50 50 211 2 ",
"   c None",
".  c #010101",
"X  c #0C0302",
"o  c #020509",
"O  c #090C0B",
"+  c #140404",
"@  c #1C0505",
"#  c #17070A",
"$  c #001709",
"%  c #1C110B",
"&  c #030511",
"*  c #080B17",
"=  c #0D1214",
"-  c #05131B",
";  c #13121C",
":  c #15191D",
">  c #220504",
",  c #210B0B",
"<  c #2C0A08",
"1  c #2B0A02",
"2  c #340E0C",
"3  c #390D0C",
"4  c #281608",
"5  c #37140B",
"6  c #2A0D13",
"7  c #240C11",
"8  c #2D1216",
"9  c #341413",
"0  c #3B1519",
"q  c #3B241C",
"w  c #0F1B24",
"e  c #1B1C22",
"r  c #181A2A",
"t  c #1B1E33",
"y  c #3D1F28",
"u  c #13232C",
"i  c #1B2D39",
"p  c #142E38",
"a  c #1B323E",
"s  c #003735",
"d  c #23212A",
"f  c #252737",
"g  c #302D35",
"h  c #451513",
"j  c #4E1914",
"k  c #471A1A",
"l  c #571C17",
"z  c #4D1A0A",
"x  c #4C281A",
"c  c #4F321B",
"v  c #63221C",
"b  c #6A2617",
"n  c #742B17",
"m  c #66270F",
"M  c #481D22",
"N  c #4D2123",
"B  c #45252A",
"V  c #562627",
"C  c #553529",
"Z  c #4B2632",
"A  c #562D3A",
"S  c #5C3838",
"D  c #692A29",
"F  c #792C2A",
"G  c #67342B",
"H  c #7A312E",
"J  c #683A33",
"K  c #753735",
"L  c #692E35",
"P  c #005D38",
"I  c #006038",
"U  c #5B4B29",
"Y  c #684A2A",
"T  c #744527",
"R  c #644736",
"E  c #6A5431",
"W  c #7B7539",
"Q  c #1C3441",
"!  c #1A3C42",
"~  c #282B48",
"^  c #3E3E49",
"/  c #343757",
"(  c #2A314C",
")  c #363D60",
"_  c #00534C",
"`  c #2F4456",
"'  c #006743",
"]  c #006153",
"[  c #3D4366",
"{  c #2A4C65",
"}  c #49404D",
"|  c #7A5647",
" . c #494B69",
".. c #484E74",
"X. c #525473",
"o. c #63596E",
"O. c #736374",
"+. c #83321C",
"@. c #8A332A",
"#. c #983A27",
"$. c #9A3934",
"%. c #833F39",
"&. c #874439",
"*. c #8B5432",
"=. c #935A35",
"-. c #B94A33",
";. c #B24531",
":. c #9C633A",
">. c #867C3D",
",. c #856836",
"<. c #A9673D",
"1. c #843D45",
"2. c #8B4144",
"3. c #994A49",
"4. c #875D4B",
"5. c #855B4B",
"6. c #92534F",
"7. c #A54E53",
"8. c #AB5355",
"9. c #BC5C5D",
"0. c #B25558",
"q. c #A85449",
"w. c #996A57",
"e. c #8D7448",
"r. c #B46945",
"t. c #BA7546",
"y. c #A2725D",
"u. c #AD6C51",
"i. c #8E7076",
"p. c #A97A67",
"a. c #B77A65",
"s. c #A17C7B",
"d. c #C57B4A",
"f. c #CA675C",
"g. c #D47659",
"h. c #CA6861",
"j. c #D36B63",
"k. c #D76C62",
"l. c #D27A6B",
"z. c #E57A65",
"x. c #E57966",
"c. c #978944",
"v. c #9E914B",
"b. c #AA914B",
"n. c #B6A555",
"m. c #B68169",
"M. c #B9887A",
"N. c #D59054",
"B. c #E3895A",
"V. c #E79359",
"C. c #F1975C",
"Z. c #C5A859",
"A. c #C6B55D",
"S. c #D3AA5C",
"D. c #F1A05F",
"F. c #D68474",
"G. c #D39479",
"H. c #EC8365",
"J. c #FD9469",
"K. c #FD9C68",
"L. c #EF917E",
"P. c #F5947A",
"I. c #EC8B74",
"U. c #D0BC61",
"Y. c #CEBC60",
"T. c #FFAD6C",
"R. c #FCA767",
"E. c #FFB16D",
"W. c #FFB86F",
"Q. c #FFB571",
"!. c #FFBD72",
"~. c #FFAF70",
"^. c #DDC868",
"/. c #EBCD6D",
"(. c #EAD46E",
"). c #FFC473",
"_. c #FFCA73",
"`. c #FFD777",
"'. c #FFE87B",
"]. c #3A6080",
"[. c #545C84",
"{. c #5A638E",
"}. c #5D6792",
"|. c #537194",
" X c #4A6C8F",
".X c #646E9B",
"XX c #606995",
"oX c #68739F",
"OX c #687388",
"+X c #6F78A3",
"@X c #9A7B80",
"#X c #7C8BA5",
"$X c #BB8D87",
"%X c #8E9CBA",
"&X c #949BB6",
"*X c #DC9C81",
"=X c #FA9C86",
"-X c #F59782",
";X c #DCA394",
":X c #E9A689",
">X c #FFA48B",
",X c #E7AA96",
"<X c #FBAD91",
"1X c #FFBC9C",
"2X c #F8B397",
"3X c #FFBFA0",
"4X c #FFC09F",
"5X c #FFC4A2",
"6X c #FFC9A6",
"7X c #FFCDA9",
"8X c #FFD3AD",
/* pixels */
"                                                                                                    ",
"                                                                                                    ",
"                                                                                                    ",
"                                                                                                    ",
"                                    . d.K./.(.(.^.O                                                 ",
"                                v.(.R.`.'.!.W.W.W./.U..                                             ",
"                              c.).W.`.).W.E.E.E.E.W.W.D.Z..                                         ",
"                              v._.`.).E.T.E.E.E.E.E.T.H.W.d.                                        ",
"                              % 4 A.).E.E.E.T.z.x.x.8., 4 @ 5 r..                                   ",
"                              4.:XR 4 4 f.x.x.8.6 @ 6 B.B.V.n.Y v.                                  ",
"                            w  .o.M.*X*XB 3.9 , A.U.V.E.E.).A.x N.                                  ",
"                            5.2XO.g q :X:Xq n.Y.).!.E.E.E.).A.. 4                                   ",
"                            y.w.o :.r.C :X*XU E.E.T.E.T.E.Q.N.. * &                                 ",
"                          4.5.e.N.T 9 . *X5X% K.E.T.H.T.E.T.r.. & *                                 ",
"                          % e._.:.d p.} :X5XG.G R.T.9.T.E.R.q., K .                                 ",
"                          x Y c d s.| M.i.2X5X% g.H.J.E.T.z.q.6 0.u.>.                              ",
"                          K l.m. .;Xq G.o.,XL.+ 7.k.E.T.z.j.2.. D J.t.                              ",
"                          K <X8X2X@Xp.i.$X1XG K 0 9.T.H.j.3.6   @ x x                               ",
"                          + C S R ; *X,X3X-X+ B.&.N z.9.7.8                                         ",
"                        E b.r.r.<.<.E R F.G <.H.f.X 7.0 9                                           ",
"                        >.Z.T T C.!.d.:.V =.H.9.f.L 6 .                                             ",
"          + n l         >.W . # C V.Q.Q.t.R.J.f.0.V w.y.y.4.                                        ",
"          > -.#.m z     >.W . + . t.Q.T.Q.E.J.k.7.X 4X6X6X2Xw.|                                     ",
"          + 3 v -.#.m 1 >.S.=.=.=.C.E.T.J.H.k.9.V w.1X5X5X5X7X<X4.R                                 ",
"              + 3 b -.l W `.Q.Q.Q.E.E.E.j.h.9.V K 4X5X5X5X5X5X6X7X:X4.S           2 @               ",
"                  @ h + ,.).T.E.E.E.E.J.K 8.7.X f.1X5X5X4X=X=X=X>X6X8X:XC         v <               ",
"                        *.W.E.E.E.K.T.j.# 1.V N f.1X5X1Xl.G D D 6.>XF.a.r.1     < j @               ",
"                        *.Q.E.E.K.3.g.9.+ k M 0.L.4X5X2X7.0 k N M G V b ;.+.1 > F <                 ",
"                        C V.E.K.x.9 2.K M V 0.L.5X5X5X1Xk.F.F.-Xa.J j j D ;.+.j l @                 ",
"                          &.~.H.h.9 0 + V h.x.>X5X5X5X=X-X6X6X5X6X3Xh., @ l @.+.X                   ",
"                          k g.x.1.,       K %.&.=X>X=XL.5X5X6X6X<Xp.w.k . . > n 1                   ",
"                            V K ,         . . < K &.L.6X6X1Xp.p.5.> > 5 5 . + X .                   ",
"                                            6 D < 2 p.m.m.w.> > h $.$.#.z X j 2                     ",
"                                            . 0 F F > > @ 3 $.$.@.l v 0 . j h                       ",
"                                            . 7 6 8 F H H F v v k o o - : h 2                       ",
"                                            $ o o o 6 6 6 7 o o - Q p ; l h                         ",
"                                          $ ' ! Q a o o o * Q Q Q i ; l @.2                         ",
"                                        $ ' _ Q a a a Q Q a a i u - 6 F 2             d             ",
"                                      $ ' _ Q a a a a a a a a w . ; t                 OX`           ",
"                                      I ] Q i i i i i a a a w * ~ / [                 { %Xe         ",
"                                      P ] p : = = = : i i u o ~ ) X.{.~               { %Xe         ",
"                                      P _ O = .   . = = = = O o / }.XX{.f           ( ].%Xe         ",
"                                      s O Z .               . O & ~ / .X[.[ t     ~ }. X%Xe         ",
"                                      . B A +                     . * ...XoX..( ( [..X|.#Xe         ",
"                                        y A A                         & [ .X.X.X.X.X|.#Xd           ",
"                                        . Z A                         . * ..oX.XoX|.#Xf             ",
"                                          B Z                           r X.+X|.#X&Xg               ",
"                                                                      ^ &X&X&X&X^ .                 ",
"                                                                        . . . . y #                 ",
"                                                                              8 S #                 "
};
