/* XPM */
static char *e98d06ae02234725c4efff8011ca2d7eVDEKE3eLAsOEZcHu[] = {
/* columns rows colors chars-per-pixel */
"50 50 213 2 ",
"   c None",
".  c #020101",
"X  c #0B0202",
"o  c #03060D",
"O  c #150404",
"+  c #1B0403",
"@  c #1B0A0C",
"#  c #1B0808",
"$  c #1D1408",
"%  c #060C13",
"&  c #090D19",
"*  c #070814",
"=  c #1D0D12",
"-  c #0A1617",
";  c #17161A",
":  c #00110D",
">  c #250A09",
",  c #27150C",
"<  c #36150D",
"1  c #240D13",
"2  c #2C0F13",
"3  c #2C1517",
"4  c #321313",
"5  c #3B1514",
"6  c #321B14",
"7  c #3C1A1C",
"8  c #38151B",
"9  c #022213",
"0  c #00371D",
"q  c #29220D",
"w  c #342219",
"e  c #392814",
"r  c #131D23",
"t  c #16172A",
"y  c #1F1F37",
"u  c #042624",
"i  c #132B2A",
"p  c #192D39",
"a  c #172634",
"s  c #003835",
"d  c #1B323E",
"f  c #18383F",
"g  c #003E24",
"h  c #22232A",
"j  c #2B2229",
"k  c #2D2B36",
"l  c #4C1914",
"z  c #421B1D",
"x  c #491714",
"c  c #551A16",
"v  c #5A1E1A",
"b  c #551E17",
"n  c #611F1B",
"m  c #59211C",
"M  c #57341C",
"N  c #4F2A1C",
"B  c #62201D",
"V  c #461D21",
"C  c #4C2224",
"Z  c #492729",
"A  c #5A2727",
"S  c #453226",
"D  c #53362B",
"F  c #4A2531",
"G  c #4D2833",
"H  c #542C39",
"J  c #593E31",
"K  c #543E37",
"L  c #682826",
"P  c #762A25",
"I  c #69342A",
"U  c #673431",
"Y  c #773738",
"T  c #713F29",
"R  c #004326",
"E  c #084A3E",
"W  c #5B492E",
"Q  c #6D4225",
"!  c #79462D",
"~  c #655C2C",
"^  c #61532A",
"/  c #664739",
"(  c #6C5638",
")  c #716434",
"_  c #1E3441",
"`  c #2A2C49",
"'  c #363E5D",
"]  c #2D3251",
"[  c #613443",
"{  c #0C4B47",
"}  c #084E4E",
"|  c #006A47",
" . c #3D4467",
".. c #444352",
"X. c #484A5D",
"o. c #40434F",
"O. c #7A5546",
"+. c #774F41",
"@. c #454B71",
"#. c #4C557C",
"$. c #504D67",
"%. c #62576D",
"&. c #7C6774",
"*. c #83331C",
"=. c #843128",
"-. c #853F3C",
";. c #943731",
":. c #A63F32",
">. c #88413B",
",. c #8D5538",
"<. c #995B38",
"1. c #804E2E",
"2. c #A35D3E",
"3. c #8F6B3B",
"4. c #A5633C",
"5. c #A0723E",
"6. c #8D4246",
"7. c #984948",
"8. c #994751",
"9. c #A7544A",
"0. c #A24E50",
"q. c #AC5354",
"w. c #A85952",
"e. c #B8585B",
"r. c #A04E47",
"t. c #866349",
"y. c #9A6A58",
"u. c #BD7547",
"i. c #A56857",
"p. c #AD6B56",
"a. c #9C7B7D",
"s. c #906C68",
"d. c #A87965",
"f. c #C17747",
"g. c #C8675A",
"h. c #D36D5E",
"j. c #D1735A",
"k. c #C15E60",
"l. c #C66461",
"z. c #D56B63",
"x. c #DB7A6A",
"c. c #CC796E",
"v. c #E57966",
"b. c #8E8442",
"n. c #978944",
"m. c #A8984D",
"M. c #A58E49",
"N. c #B8A355",
"B. c #BD856F",
"V. c #D78952",
"C. c #C88C50",
"Z. c #E3855D",
"A. c #EC945B",
"S. c #C4A859",
"D. c #CA8F75",
"F. c #CD927A",
"G. c #D5977D",
"H. c #CB826E",
"J. c #ED8965",
"K. c #F38B66",
"L. c #F48969",
"P. c #FF9D6B",
"I. c #FC9966",
"U. c #F1937F",
"Y. c #EC8A7A",
"T. c #FFA56B",
"R. c #FFAD6C",
"E. c #FFA063",
"W. c #FFB16D",
"Q. c #FFB96D",
"!. c #FFB671",
"~. c #FFBD71",
"^. c #F0B36A",
"/. c #FFC272",
"(. c #FFCA76",
"). c #FFC178",
"_. c #FFD376",
"`. c #FFDC7A",
"'. c #F8D973",
"]. c #E4C869",
"[. c #545C84",
"{. c #565F89",
"}. c #566C94",
"|. c #527695",
" X c #4E708E",
".X c #73798E",
"XX c #606B97",
"oX c #66719E",
"OX c #68739F",
"+X c #787C92",
"@X c #6975A2",
"#X c #6D829E",
"$X c #7688A8",
"%X c #8896B5",
"&X c #8E94B4",
"*X c #D59D90",
"=X c #F79883",
"-X c #DCA494",
";X c #DCA18F",
":X c #E9A689",
">X c #E7A589",
",X c #FBA38B",
"<X c #F3AD8E",
"1X c #FFA98E",
"2X c #FFAD92",
"3X c #FFB395",
"4X c #FFB698",
"5X c #FFBC9C",
"6X c #FFC09E",
"7X c #FFC4A2",
"8X c #FFCAA6",
"9X c #FFCEA9",
"0X c #FFD2AD",
/* pixels */
"                                                                                                    ",
"                                                                                                    ",
"                                                                                                    ",
"                                                                                                    ",
"                                                                                                    ",
"                                                                                                    ",
"                                                                                                    ",
"                                                    q n.n.n.5.4.#                                   ",
"                                                . m.S.(.(.(.`.`.C.m.b.                              ",
"                                              n.V././.R.R.R.Q./.`.(./.b.                            ",
"                                          . 2.W.J.T.R.R.R.W.R.R.~._.~.N.                            ",
"                                        ! Q $ < 4 w.h.h.K.R.R.T.T.].e $                             ",
"                                      ^ 3.b.Q.I.A.6 , C q.h.h.A , S >Xd.                            ",
"                                      M 1.b.(.R.R.R.`.N., U Z F.:XF.$.%.k                           ",
"                                          n.(.R.W.W.W./.'.) B.:XZ w ..<Xd.                          ",
"                                          <.R.W.R.T.W.!.<.t.9XS Y u.N ( y.w                         ",
"                                        # Y P.W.R.z.W.E.,.B.8XK S ; C.].t.J                         ",
"                                    ^ -.U Y L.R.R.x.I.2.( 9X;Xa.d.s.j 5.) #                         ",
"                                  q ).q.@ U z.L.R.R.z.Y U 5X&.;X6 :XX.O.i.I                         ",
"                                  , T z   2 7.z.K.T.0.C L H.-Xa.y.a.*X0X2XI                         ",
"                                            1 8.e.j.C p.,.Y 5X-X5Xj / / D +                         ",
"                                              > 4 6., v.Z.! w.+.D u.f.u.f.C.W                       ",
"                                              d.D.7 6.g.l.Z.I 4.V.W.W.W.W.`.~                       ",
"                                        O.:X>X5X7XD.7 e.v.R.I.T.W.W.W.R.T._.~                       ",
"                                  X D <X4X8X7X7X7X<X6 q.z.I.R.R.W.W.W.V.> M.)                       ",
"                  X           @ w <X5X7X7X7X7X7X7X7XF.z q.z.z.P.W.W.W.R.E._.~                       ",
"                X L         6 >X6X7X4X4X4X5X7X7X7X7X3X>.z k.0.J.W.W.W.W.R._.~                       ",
"                X v O     + i.G.3X,X9.r.r.H.5X7X7X7X3X7.V 8.8 7.T.T.W.W.W.!.Q                       ",
"                  O P + + *.c > >.-.2 4 > Y ,X7X7X7X4Xx.Y C @ Y K.w.P.W.W.!.Q                       ",
"                  O v l *.:.L b . O l.Y.c.z.1X7X7X7X7X4Xx.Y 7 A q.> h.P.W.A.M                       ",
"                    X *.=.x O     , ,X7X8X1X=X5X8X7X8X5XY.v.6.1 V O e.v.R.!                         ",
"                    O b O         X d.8X8X8X,XU.U.=X=Xc.A I , O @ 1 A z.g.5                         ",
"                      + >         X m ( / F.9X2X=XA C b 5 .     O O X z 5                           ",
"                      + x >       O =.c c A J J J m v A 7 X                                         ",
"                        x <         5 ;.;.P n B B A A z .                                           ",
"                        X l >       r O O m L C V X . 9 0                                           ",
"                          c =.+     d a a ; X . . a a E R                                           ",
"                            B P X . p d _ d r - - p d { R                                           ",
"            ; .X              . y . * p d d f i - r f s .                                           ",
"            .X X              a  .` y % p d { | 9 % i s                                             ",
"            .X X&           o ' XX@.] & o p d { | : u s                                             ",
"            .X|. .&       & ' XX{.#.t     % p _ } | : s                                             ",
"            +X|.XX .*   ` #.}.{.t t         & - u g ; u                                             ",
"            ..#X}.XX@.@.{.@X[.a .           . @ 1 3 F .                                             ",
"              ..$X}.oXOXoX[.t .           = X F [ H =                                               ",
"                o.%X$X}.oX ..           @ G F 1 H G .                                               ",
"                  k X.%X&X&X+X;         1 [ 3 . G G                                                 ",
"                      h h h h           . X   . G G                                                 ",
"                                                F F                                                 ",
"                                                                                                    "
};
