/* XPM */
static char *_e76660e92ee4faddebca5fcde5f543fOayG5QXxSJPh6f99[] = {
/* columns rows colors chars-per-pixel */
"50 50 208 2 ",
"   c None",
".  c #020102",
"X  c #0C0203",
"o  c #04050B",
"O  c #080A05",
"+  c #140302",
"@  c #1C0504",
"#  c #1C0A07",
"$  c #16050C",
"%  c #180A09",
"&  c #00190B",
"*  c #1B1A09",
"=  c #0B0C1A",
"-  c #050812",
";  c #081417",
":  c #14141C",
">  c #161418",
",  c #1C0A10",
"<  c #210705",
"1  c #240A0A",
"2  c #2B120C",
"3  c #221408",
"4  c #3A110A",
"5  c #270D13",
"6  c #251313",
"7  c #2B1615",
"8  c #3A1B14",
"9  c #371617",
"0  c #002714",
"q  c #00341B",
"w  c #00381D",
"e  c #25220C",
"r  c #362615",
"t  c #3A3416",
"y  c #0A1A23",
"u  c #111323",
"i  c #171826",
"p  c #1A1E35",
"a  c #3C1C25",
"s  c #3A1D26",
"d  c #13232C",
"f  c #18252C",
"g  c #023823",
"h  c #192D38",
"j  c #1B323E",
"k  c #133A3D",
"l  c #222129",
"z  c #322930",
"x  c #48180A",
"c  c #4A1C1C",
"v  c #451714",
"b  c #571D18",
"n  c #452915",
"m  c #48261C",
"M  c #572E1B",
"N  c #62221D",
"B  c #652611",
"V  c #6F331C",
"C  c #471D21",
"Z  c #532426",
"A  c #57272A",
"S  c #52332B",
"D  c #552B38",
"F  c #4F302F",
"G  c #622C2B",
"H  c #692824",
"J  c #7B2C26",
"K  c #782B28",
"L  c #663E23",
"P  c #682D34",
"I  c #6C3136",
"U  c #733631",
"Y  c #773838",
"T  c #743620",
"R  c #004627",
"E  c #004728",
"W  c #564223",
"Q  c #5C5628",
"!  c #5D4335",
"~  c #6C4226",
"^  c #625C2B",
"/  c #61502F",
"(  c #69493A",
")  c #784836",
"_  c #774E2C",
"`  c #7A6936",
"'  c #69632E",
"]  c #173943",
"[  c #262A44",
"{  c #2B314B",
"}  c #373A4A",
"|  c #343A5B",
" . c #5F3340",
".. c #7F3942",
"X. c #154145",
"o. c #04564B",
"O. c #006346",
"+. c #006553",
"@. c #006C52",
"#. c #364E6C",
"$. c #464A58",
"%. c #755142",
"&. c #754C40",
"*. c #4C547B",
"=. c #4F5672",
"-. c #786167",
";. c #786574",
":. c #85331C",
">. c #83302B",
",. c #8B332B",
"<. c #963A27",
"1. c #863F3D",
"2. c #A13E2F",
"3. c #88443B",
"4. c #875132",
"5. c #945B35",
"6. c #9A5D3A",
"7. c #85512F",
"8. c #B44732",
"9. c #926639",
"0. c #A4633C",
"q. c #883F43",
"w. c #8A4643",
"e. c #964847",
"r. c #A44E4D",
"t. c #AA564B",
"y. c #B7585B",
"u. c #AF5852",
"i. c #926552",
"p. c #9A6B55",
"a. c #846546",
"s. c #B26E43",
"d. c #B67546",
"f. c #BB675A",
"g. c #94777C",
"h. c #AD7C64",
"j. c #B67E68",
"k. c #A37A74",
"l. c #CA7D4C",
"z. c #C66959",
"x. c #D0675E",
"c. c #CC6461",
"v. c #D56B63",
"b. c #DB7866",
"n. c #E37666",
"m. c #9A8644",
"M. c #B89B52",
"N. c #B98E4E",
"B. c #BAA855",
"V. c #BD856E",
"C. c #B58678",
"Z. c #D38851",
"A. c #CA8A50",
"S. c #EA935A",
"D. c #C2B25A",
"F. c #C1AD59",
"G. c #C68C75",
"H. c #D7977D",
"J. c #ED8466",
"K. c #EF8963",
"L. c #F28669",
"P. c #F78E68",
"I. c #FE9469",
"U. c #FF9C6B",
"Y. c #F99C61",
"T. c #EA8979",
"R. c #F5927F",
"E. c #F08B7A",
"W. c #CBBC60",
"Q. c #FFA36B",
"!. c #FFAD6C",
"~. c #E7BC66",
"^. c #FFB26D",
"/. c #FBB86A",
"(. c #FFB571",
"). c #FFB972",
"_. c #FFA572",
"`. c #FFCC74",
"'. c #FFC575",
"]. c #FFDA7A",
"[. c #FFD578",
"{. c #FFE27D",
"}. c #555E86",
"|. c #5C658B",
" X c #5B6A94",
".X c #496C8E",
"XX c #616A97",
"oX c #67729E",
"OX c #627A9C",
"+X c #69758A",
"@X c #6F86A5",
"#X c #A88282",
"$X c #828BA4",
"%X c #888CA7",
"&X c #949CBC",
"*X c #DE9D82",
"=X c #C69387",
"-X c #F59D86",
";X c #DDA08C",
":X c #EBA688",
">X c #FBA58B",
",X c #FEAD92",
"<X c #FEB394",
"1X c #FFBC9C",
"2X c #F4B093",
"3X c #FFC4A2",
"4X c #FFCDA9",
"5X c #FFD0AC",
/* pixels */
"                                                                                                    ",
"                                                                                                    ",
"                                                                                                    ",
"                                                                                                    ",
"                                                                                                    ",
"                                                                                                    ",
"                                              e ^ ^ ^ ~ L                                           ",
"                                            ' m.].].].[./._ ` t                                     ",
"                                        ^ 9.`.`.!.!.!.`.[.[.].M.e                                   ",
"                                      L /._.!.^.^.^.^.!.^.`.'.{.t                                   ",
"                                  8 ~ 2 L Z z.L.L.U.^.^.^.`.M.W O                                   ",
"                                * m.` N.d.s.9 9 I b.J.b.M M a.V.6                                   ",
"                                3 A.Q ].^.^.Z.D.` 1 q.A V.G.k.;.}                                   ",
"                                . # Q [.!.^.^.'./.W.W G.:Xm z #X;X%                                 ",
"                                  - L ).^.^.!.!.).9.h.<XS z._ * H.6                                 ",
"                                  . m I.^.!.J.!.^._ G.<X% # 4.~./ h.                                ",
"                              O 1 3.c P.^.!.z.!.0.i.3X2X-.C.l s.~.r                                 ",
"                              M.b.I m v.I.^.Q.n.U p.3X;.G.( #Xl r e.                                ",
"                              s.u.. 7 u.v.U.Q.z.A U >Xg.C.%.#X=X1Xf.                                ",
"                                      C y.v.P.P ) G j.1X#X=X-.*XH.e.                                ",
"                                        Z ..r.9 L.6.3.-XH.p.r n n n t                               ",
"                                        t S A G c.J.4.Y m 5.).S.l.).F.                              ",
"                                    7 S H.3X( q.y.v.Q.5.!.(.S.m X d.B.                              ",
"                                  ( h.4X3X3X:X5 y.J.!.(.^.(.7.$ a * B.      4                       ",
"                              ( i.3X3X3X3X3X<X&.Y c.J.I.!.^.Z.8 $ 9.B.    x <.                      ",
"              < 2         S i.2X4X3X3X3X3X3X3X:XA w.c.c.!.^.(.l.5.).D.< B <.b                       ",
"              4 v       r *X5X3X-XR.R.,X3X3X3X<XU Z y.G K.^.^.^.(.(.A.x 8.b                         ",
"              + v <   + T ! f.E.A v 8 w.,X3X3X,Xr.C q.1 f.Q.U.^.^.^.l.4 N X                         ",
"                v K @ :.,.b c 9 P 1.P e.>X3X3X1XE.e.9 X u.t.3.Q.^.^.Z.. +                           ",
"                + < T 2.H < . U -X,X,XT.>X3X3X3X1XT.t.Y C P G n.Q.Y.n                               ",
"                  B <.< + . G -X3X3X3X1XE.<X3X3X>Xv.x.8   . Z c.U.z..                               ",
"                  X + .     + 7 :X1X1X3X1XT.b.b.w.@ #       . I z.9                                 ",
"                  . b X   x <.J 7 % %.1X1X<XH.# v J @         X +                                   ",
"                    X N . . b >.>.,.N % # # 2 J H %                                                 ",
"                    . N . ; ; . H J >.,.>.>.K 9 6 .                                                 ",
"                      @ N > h j o . 2 K c 9 7 . g q                                                 ",
"                      X J N : j j j d . . . o ] @.q                                                 ",
"            l           @ H 5 y d j j j X.; = k O.0                                                 ",
"          } |.            . p : o d j j O.w & g R                                                   ",
"        . %X#.            = #.| { = d j X.@.O.w 0                                                   ",
"          $X#.=           {  X}.| u y j j X.o.O.&                                                   ",
"          $X.X| -     u [  X}.*.i - h j j j j +.E                                                   ",
"          $X.XXX{ = u *.|. X[ = . . ; f f j ] +.R                                                   ",
"          $.@X X|.*.*.oX X[ o       . . . o ; +.R                                                   ",
"            $.@X XoXoXXX{ .           $ s s s & &                                                   ",
"              =.&XOX X|.i .         $ D  .D 5 6 .                                                   ",
"              > l +X&X&X%X$.        ,  .7 X C s                                                     ",
"                  : : : i :         . X   . D s                                                     ",
"                                            D s                                                     ",
"                                                                                                    "
};
