/* XPM */
static char *_6ca7a99bff640e2cec4ebb32ce545bb28e6XokVaF54Cosf[] = {
/* columns rows colors chars-per-pixel */
"50 50 202 2 ",
"   c None",
".  c #030203",
"X  c #0B0505",
"o  c #06060A",
"O  c #030C09",
"+  c #0C0C0C",
"@  c #0A0807",
"#  c #150C0B",
"$  c #190E0C",
"%  c #110505",
"&  c #17120E",
"*  c #1A130D",
"=  c #1D1B0E",
"-  c #0C0C14",
";  c #1D0C10",
":  c #0D1519",
">  c #11131C",
",  c #12191B",
"<  c #1E1511",
"1  c #25140F",
"2  c #2D1514",
"3  c #261715",
"4  c #331719",
"5  c #351A1B",
"6  c #3A1819",
"7  c #29100E",
"8  c #36261B",
"9  c #37301B",
"0  c #0C1525",
"q  c #111D22",
"w  c #181829",
"e  c #1E1E33",
"r  c #3E1A20",
"t  c #0E2527",
"y  c #142229",
"u  c #16252B",
"i  c #192F3A",
"p  c #162B34",
"a  c #1B323E",
"s  c #15323A",
"d  c #322620",
"f  c #471A17",
"g  c #511E1A",
"h  c #43241E",
"j  c #58231C",
"k  c #42301D",
"l  c #672A16",
"z  c #431B21",
"x  c #4C2329",
"c  c #492324",
"v  c #53292C",
"b  c #493529",
"n  c #5B3929",
"m  c #562D3A",
"M  c #5F2C33",
"N  c #5B303D",
"B  c #553C33",
"V  c #632522",
"C  c #6E2925",
"Z  c #7D2E29",
"A  c #60312C",
"S  c #6B3434",
"D  c #6A3437",
"F  c #743938",
"G  c #642F35",
"H  c #01482B",
"J  c #015B38",
"K  c #53452E",
"L  c #644B3E",
"P  c #724E33",
"I  c #173842",
"U  c #282845",
"Y  c #34395A",
"T  c #333655",
"R  c #2C324E",
"E  c #393F61",
"W  c #025B4E",
"Q  c #05554D",
"!  c #014540",
"~  c #3D415D",
"^  c #006749",
"/  c #007747",
"(  c #007947",
")  c #007649",
"_  c #026351",
"`  c #38496B",
"'  c #33607E",
"]  c #48465A",
"[  c #674E41",
"{  c #715546",
"}  c #434768",
"|  c #4E5260",
" . c #4E5274",
".. c #625865",
"X. c #676675",
"o. c #71646E",
"O. c #85312C",
"+. c #8B332D",
"@. c #8F3A20",
"#. c #90352F",
"$. c #86433D",
"%. c #AA442A",
"&. c #863F46",
"*. c #8C4349",
"=. c #944A49",
"-. c #9A4A52",
";. c #A5544D",
":. c #AE5B4F",
">. c #A54E54",
",. c #B4565A",
"<. c #BB5C5B",
"1. c #B75D58",
"2. c #AE5558",
"3. c #836553",
"4. c #936A4E",
"5. c #AC774A",
"6. c #BD7F51",
"7. c #AF6D52",
"8. c #967D7D",
"9. c #A37D67",
"0. c #C25F5D",
"q. c #C9675D",
"w. c #C9785F",
"e. c #CB6961",
"r. c #CE6561",
"t. c #D36C63",
"y. c #D06761",
"u. c #DE7B64",
"i. c #D87669",
"p. c #CE7869",
"a. c #E17F66",
"s. c #00804B",
"d. c #968B49",
"f. c #8F8347",
"g. c #B7A959",
"h. c #B28975",
"j. c #A2837B",
"k. c #C68A55",
"l. c #D6965C",
"z. c #D48A5C",
"x. c #DB8763",
"c. c #DB8373",
"v. c #C4957B",
"b. c #E58566",
"n. c #E68C67",
"m. c #E89665",
"M. c #F69C6C",
"N. c #E18575",
"B. c #E28A79",
"V. c #E0957F",
"C. c #C8B761",
"Z. c #E8A364",
"A. c #F1A667",
"S. c #F6AB6A",
"D. c #FDAC6C",
"F. c #F9A56C",
"G. c #FFB16D",
"H. c #F8BA6E",
"J. c #FFB970",
"K. c #EBB76D",
"L. c #DECE6C",
"P. c #FFC472",
"I. c #F8CE73",
"U. c #EDDC74",
"Y. c #FED476",
"T. c #FCDB77",
"R. c #EBC86E",
"E. c #FFEC7C",
"W. c #F5E277",
"Q. c #535B84",
"!. c #58618B",
"~. c #4E6B91",
"^. c #587196",
"/. c #566C94",
"(. c #636D9A",
"). c #626B97",
"_. c #64789E",
"`. c #6F7588",
"'. c #6974A0",
"]. c #798EAA",
"[. c #7B91AD",
"{. c #6B86A3",
"}. c #9B8182",
"|. c #B9948A",
" X c #B08E84",
".X c #9CA3BD",
"XX c #D09D81",
"oX c #E59882",
"OX c #D6A58C",
"+X c #DFAB90",
"@X c #F2AC91",
"#X c #EDB496",
"$X c #E8B497",
"%X c #F3B596",
"&X c #F3BA9A",
"*X c #FCBD9D",
"=X c #F9B597",
"-X c #E3AE8F",
";X c #FBC09F",
":X c #FFC3A1",
">X c #FFC8A5",
",X c #9DA5C1",
/* pixels */
"                                                                                                    ",
"                                                                                                    ",
"                                                                                                    ",
"                                                                                                    ",
"                                                                                                    ",
"                                                                                                    ",
"                                                                                                    ",
"                                                    W.E.E.T.G.                                      ",
"                                                  E.P.G.G.P.E.P.T.L.=                               ",
"                                            K Y.D.G.G.G.G.G.G.Y.P.J.W.                              ",
"                                            l.m.x.D.D.D.G.G.G.G.T.H.U.                              ",
"                                        5.k * * v <.q.t.F.D.S.A.R.9 <                               ",
"                                        P g.S.S.4.# * *.q.t.F & 3 OXh.                              ",
"                                      Z.n C.J.G.S.R.U.9 5 D 3.#XOX| } ~                             ",
"                                      @ X C.J.G.G.G.G.U.g.L ;XL & ] $X+X                            ",
"                                      0 o k.G.G.D.D.G.Z.b ;X3.F z.3 K 9.                            ",
"                                      - . :.D.G.m.m.G.l.b >X3.X < l.g.{                             ",
"                                    + S c ;.D.G.x.x.S.b -X:X8.j...d K.f.                            ",
"                                    K.,.5 ;.u.D.D.b.q.8 %X|.}.[ h.] & S                             ",
"                                    M.S . *.y.a.G.b.>.4 p.|.}.[ h.o.$XoX                            ",
"                                            -.y.n.w.r =.b *X}. Xo.OX&XV.                            ",
"                                            5 -.<.A =.x.h c.&X#Xb * * * 1                           ",
"                                              # v c =.u.6.n P * k.A.m.m.I.                          ",
"                                              *X4.v 0.,.a.5.P S.D.l.# P Y.                          ",
"                                        %X:X:X:X:X[ F t.F.D.S.G.A.8 6 ; d.                          ",
"                                      :X:X:X:X:X>X{ D y.u.D.D.G.G.l.* X d.                          ",
"                                  :X:X:X:X:X:X:X:X*XB &.y.t.n.G.G.D.A.A.I.                          ",
"                  #.          -X:X:X*X*X*X:X:X:X:X:Xp.4 >.<.w.G.G.G.G.D.Y.                          ",
"                  +.        XX&X*X@Xe.e.e.@X:X:X:X:Xc.4 -.D S M.D.G.G.G.G.                          ",
"                    O.      j $ 1.;.# # # =.*X:X:X:XN.=.5 M x n.u.F.G.G.G.                          ",
"                    +.Z l %.O.Z $ 2 2.1.-.e.*X:X:X:X*Xi.&.@ x q.h q.D.G.D.                          ",
"                      7 %.+.6 .   6 B.*X*XN.=X:X:X:X:X=Xt.<.x G 4 1.b.G.5.                          ",
"                      %.V .     # <.&X:X:X*XN.*X*X*X*Xi.q.$.; ; @ =.u.n.                            ",
"                      X X .     X @ L &X&X;X=Xi.i.t.q.2 @ @   3 6 1 ,.$.                            ",
"                        j .   X @.+.V # $ v.&X#X&X{ % C 4                                           ",
"                        6 g   . # O.+.+.+.2 # # # j O.z X                                           ",
"                          g   . y o 6 +.+.+.O.O.V r r +                                             ",
"                          C f . , i y X X C Z z z ; o J                                             ",
"                            +.7 : a a i i - X o . q a Q )                                           ",
"                            V O.# q a a a a i i i a a Q )                                           ",
"              |               + e o : a a a a p u a y s W /                                         ",
"              ].              U Y U w q a a a a p , , q W J                                         ",
"              [.'             Y !.~ R > y a I _ H + , , t _ (                                       ",
"              [.`           Y !.(.Q.w + , i I _ H + , , t _ s.                                      ",
"              [.~. .      E Q.).T R . . y a Q ^     , , t W (                                       ",
"              [.~.(.Y U E (.(.} -       . p W /       , o o                                         ",
"              X.{./.(.).(.(.}           . ! ^ O         m m m                                       ",
"                X._.^.(.(. .>                             N N                                       ",
"                  `.,X~.'. .w                             N N                                       ",
"                      .X,X.X.X                            N N                                       "
};
