/* XPM */
static char *_3aaf7b1ec324920dccb69341b864e51lcphuwHLzcb3gd02[] = {
/* columns rows colors chars-per-pixel */
"50 50 201 2 ",
"   c None",
".  c #030203",
"X  c #0B0505",
"o  c #06060A",
"O  c #030C09",
"+  c #0C0B0B",
"@  c #150C0B",
"#  c #1A0D0D",
"$  c #110505",
"%  c #17120E",
"&  c #1A130C",
"*  c #1D1C0F",
"=  c #0B0C14",
"-  c #1D0D11",
";  c #0D1519",
":  c #11131D",
">  c #12191B",
",  c #1E1511",
"<  c #25140F",
"1  c #2D1514",
"2  c #261715",
"3  c #331719",
"4  c #35191B",
"5  c #3A1819",
"6  c #29100E",
"7  c #36261B",
"8  c #37301B",
"9  c #0C1525",
"0  c #111D22",
"q  c #181829",
"w  c #1E1E33",
"e  c #3E1A20",
"r  c #0E2527",
"t  c #142229",
"y  c #16252B",
"u  c #192F3A",
"i  c #162B34",
"p  c #1B323E",
"a  c #15323A",
"s  c #322620",
"d  c #471A17",
"f  c #511E1A",
"g  c #42271E",
"h  c #58231C",
"j  c #64271B",
"k  c #431B21",
"l  c #4C2329",
"z  c #492324",
"x  c #53292C",
"c  c #493529",
"v  c #5C362A",
"b  c #562D3A",
"n  c #5A2F3D",
"m  c #5F2C33",
"M  c #5B303D",
"N  c #553C33",
"B  c #632623",
"V  c #6E2925",
"C  c #7D2E29",
"Z  c #6B3434",
"A  c #6A3437",
"S  c #743938",
"D  c #642F35",
"F  c #01482B",
"G  c #015B38",
"H  c #52452D",
"J  c #644B3E",
"K  c #724E33",
"L  c #173842",
"P  c #282A46",
"I  c #34395A",
"U  c #333655",
"Y  c #2E3352",
"T  c #393F61",
"R  c #014540",
"E  c #025B4E",
"W  c #05554D",
"Q  c #3C415C",
"!  c #006749",
"~  c #007747",
"^  c #007949",
"/  c #007648",
"(  c #026351",
")  c #38496B",
"_  c #33617F",
"`  c #48465A",
"'  c #674E41",
"]  c #715546",
"[  c #434768",
"{  c #4D5270",
"}  c #625865",
"|  c #676676",
" . c #71646E",
".. c #85312C",
"X. c #8B332D",
"o. c #8F3A20",
"O. c #90352F",
"+. c #86433D",
"@. c #AA442A",
"#. c #863F46",
"$. c #8C4349",
"%. c #944A49",
"&. c #9A4A52",
"*. c #A5544D",
"=. c #AE5B4F",
"-. c #A54E54",
";. c #B4565A",
":. c #BB5C5B",
">. c #B75D58",
",. c #AE5558",
"<. c #836553",
"1. c #936A4E",
"2. c #AC774B",
"3. c #BD7F51",
"4. c #AF6D52",
"5. c #967D7D",
"6. c #A37D67",
"7. c #C25F5D",
"8. c #C9675D",
"9. c #C9785F",
"0. c #CB6961",
"q. c #CE6561",
"w. c #D36C63",
"e. c #D06761",
"r. c #DE7B64",
"t. c #D87669",
"y. c #CE7869",
"u. c #E17F66",
"i. c #00804B",
"p. c #968B49",
"a. c #8F8347",
"s. c #B7A959",
"d. c #B28975",
"f. c #A2837B",
"g. c #C68A55",
"h. c #D6965C",
"j. c #D48A5C",
"k. c #DB8763",
"l. c #DB8373",
"z. c #C4957B",
"x. c #E58566",
"c. c #E68C67",
"v. c #E89665",
"b. c #F79C6C",
"n. c #E18575",
"m. c #E28A79",
"M. c #E0957F",
"N. c #C8B761",
"B. c #E8A364",
"V. c #F1A667",
"C. c #F6AB6A",
"Z. c #FDAC6C",
"A. c #F9A56C",
"S. c #FFB16D",
"D. c #F8BA6E",
"F. c #FFB970",
"G. c #EBB76D",
"H. c #DECE6C",
"J. c #FFC472",
"K. c #F8CE73",
"L. c #EDDC73",
"P. c #FED476",
"I. c #FFDD79",
"U. c #FAD976",
"Y. c #EBC86E",
"T. c #FFEC7C",
"R. c #F4E378",
"E. c #535B84",
"W. c #58618B",
"Q. c #4E6B91",
"!. c #587196",
"~. c #566C94",
"^. c #636D9A",
"/. c #626B97",
"(. c #64789E",
"). c #6F7588",
"_. c #6974A0",
"`. c #798EAA",
"'. c #7B91AD",
"]. c #6B86A3",
"[. c #9B8182",
"{. c #B9948A",
"}. c #B08E84",
"|. c #9CA3BD",
" X c #D09D80",
".X c #E59882",
"XX c #D6A58C",
"oX c #DEAB91",
"OX c #E5AF90",
"+X c #F2AC91",
"@X c #EDB496",
"#X c #E8B497",
"$X c #F3B596",
"%X c #F3BA9A",
"&X c #FCBD9D",
"*X c #F9B597",
"=X c #E1AC8E",
"-X c #FBC09F",
";X c #FFC3A1",
":X c #FFC8A5",
">X c #9DA5C1",
/* pixels */
"                                                                                                    ",
"                                                                                                    ",
"                                                                                                    ",
"                                                                                                    ",
"                                                                                                    ",
"                                                                                                    ",
"                                                                                                    ",
"                                      S.P.T.T.R.                                                    ",
"                              * H.I.J.T.J.S.S.J.T.                                                  ",
"                              R.F.J.P.S.S.S.S.S.S.Z.U.H                                             ",
"                              L.D.I.S.S.S.S.Z.Z.Z.k.v.h.                                            ",
"                              & 7 Y.V.C.Z.A.w.8.:.x & & g 2.                                        ",
"                              d.XX2 % S w.8.$.& @ 1.C.C.s.K                                         ",
"                            Q [ { XX@X<.A 4 8 L.Y.C.S.F.N.v B.                                      ",
"                            oX#X` % J -XJ s.U.S.S.S.S.F.N.X X                                       ",
"                            6.H 2 j.S <.-Xc B.S.Z.Z.S.S.g.o 9                                       ",
"                            ] s.h., X <.:Xc h.S.v.v.S.Z.=.. =                                       ",
"                            a.G.s } f.5.;XOXc C.k.k.S.Z.*.z Z +                                     ",
"                            Z % ` d.' [.{.$X7 8.x.Z.Z.u.*.4 ;.G.                                    ",
"                            .X#X .d.' [.{.y.3 -.x.S.u.e.$.. Z b.                                    ",
"                            M.%XXX .}.[.&Xc %.e 9.c.e.&.                                            ",
"                          < & & & c #X%Xl.g k.%.v :.&.4                                             ",
"                          K.v.v.V.g.& K v 3.r.%.z x @                                               ",
"                          P.K @ h.Z.C.K 2.u.;.7.x 1.&X                                              ",
"                          p.- 4 7 V.S.C.Z.A.w.S ' ;X;X;X;X$X                                        ",
"                          p.X & h.S.S.Z.Z.r.q.A ] :X;X;X;X;X;X                                      ",
"                          K.V.V.Z.S.S.c.w.e.#.N &X;X;X;X;X;X;X;X;X                                  ",
"                          P.Z.S.S.S.S.9.:.-.3 y.;X;X;X;X;X&X&X&X;X;X=X          O.                  ",
"                          S.S.S.S.Z.b.Z A &.3 l.;X;X;X;X+X0.0.0.+X&X%X X        X.                  ",
"                          Z.S.S.A.r.c.l m 4 %.n.;X;X;X&X%.@ @ @ *.>.# h       ..                    ",
"                          Z.S.Z.8.g 8.l X #.t.&X;X;X;X&X0.&.>.,.1 # C ..@.j C X.                    ",
"                          2.S.x.>.3 D l :.w.*X;X;X;X;X*Xn.&X&Xm.5   . 5 X.@.6                       ",
"                            c.r.%.X - # +.8.t.&X&X&X&Xn.&X;X;X%X:.@     . B @.                      ",
"                            +.;.< 4 2   X X 1 8.w.t.t.*X-X%X%XJ X X     . X X                       ",
"                                          3 V $ ] %X@X%Xz.# @ B X.o..   . h                         ",
"                                          X k ..h @ @ @ 1 ..X.X...@ .   f 5                         ",
"                                            + e e B ....X.X.X.3 o t .   f                           ",
"                                            G o - k k C V X X t u > . d V                           ",
"                                          ^ W p 0 . X X = u u p p ; 6 X.                            ",
"                                          / W p p u u u p p p p 0 @ ..j                             ",
"                                        ~ E a t p y i p p p p ; o w +               {               ",
"                                        G E 0 > > i p p p p 0 q P I P               `.              ",
"                                      ^ ( r > > + F ( L p t : Y Q W.I             _ '.              ",
"                                      i.( r > > + F ( L u > + q E.^.W.I           ) '.              ",
"                                      ^ E r > >     ! E p t . . P U /.E.T       { Q.'.              ",
"                                        o X >       ~ E i .       = [ ^.^.T P I ^.Q.`.              ",
"                                      b b b         O ! R .           [ ^.^./.^.~.].|               ",
"                                      n M                             : { ^.^.!.(.|                 ",
"                                      n M                             q { _.Q.>X).                  ",
"                                      n M                             |.|.>X|.                      "
};
