/* XPM */
static char *result[] = {
/* columns rows colors chars-per-pixel */
"50 50 213 2 ",
"   c #020101",
".  c #0B0202",
"X  c #03060D",
"o  c #150404",
"O  c #1B0403",
"+  c #1B0A0C",
"@  c #1B0808",
"#  c #1D1408",
"$  c #060C13",
"%  c #090D19",
"&  c #070814",
"*  c #1D0D12",
"=  c #0A1617",
"-  c #17161A",
";  c #00110D",
":  c #250A09",
">  c #27150C",
",  c #36150D",
"<  c #240D13",
"1  c #2C0F13",
"2  c #2C1517",
"3  c #321313",
"4  c #3B1514",
"5  c #321B14",
"6  c #3C1A1C",
"7  c #38151B",
"8  c #022213",
"9  c #00371D",
"0  c #29220D",
"q  c #342219",
"w  c #392814",
"e  c #131D23",
"r  c #16172A",
"t  c #1F1F37",
"y  c #042624",
"u  c #132B2A",
"i  c #192D39",
"p  c #172634",
"a  c #003835",
"s  c #1B323E",
"d  c #18383F",
"f  c #003E24",
"g  c #22232A",
"h  c #2B2229",
"j  c #2D2B36",
"k  c #4C1914",
"l  c #421B1D",
"z  c #491714",
"x  c #551A16",
"c  c #5A1E1A",
"v  c #551E17",
"b  c #611F1B",
"n  c #59211C",
"m  c #57341C",
"M  c #4F2A1C",
"N  c #62201D",
"B  c #461D21",
"V  c #4C2224",
"C  c #492729",
"Z  c #5A2727",
"A  c #453226",
"S  c #53362B",
"D  c #4A2531",
"F  c #4D2833",
"G  c #542C39",
"H  c #593E31",
"J  c #543E37",
"K  c #682826",
"L  c #762A25",
"P  c #69342A",
"I  c #673431",
"U  c #773738",
"Y  c #713F29",
"T  c #004326",
"R  c #084A3E",
"E  c #5B492E",
"W  c #6D4225",
"Q  c #79462D",
"!  c #655C2C",
"~  c #61532A",
"^  c #664739",
"/  c #6C5638",
"(  c #716434",
")  c #1E3441",
"_  c #2A2C49",
"`  c #363E5D",
"'  c #2D3251",
"]  c #613443",
"[  c #0C4B47",
"{  c #084E4E",
"}  c #006A47",
"|  c #3D4467",
" . c #444352",
".. c #484A5D",
"X. c #40434F",
"o. c #7A5546",
"O. c #774F41",
"+. c #454B71",
"@. c #4C557C",
"#. c #504D67",
"$. c #62576D",
"%. c #7C6774",
"&. c #83331C",
"*. c #843128",
"=. c #853F3C",
"-. c #943731",
";. c #A63F32",
":. c #88413B",
">. c #8D5538",
",. c #995B38",
"<. c #804E2E",
"1. c #A35D3E",
"2. c #8F6B3B",
"3. c #A5633C",
"4. c #A0723E",
"5. c #8D4246",
"6. c #984948",
"7. c #994751",
"8. c #A7544A",
"9. c #A24E50",
"0. c #AC5354",
"q. c #A85952",
"w. c #B8585B",
"e. c #A04E47",
"r. c #866349",
"t. c #9A6A58",
"y. c #BD7547",
"u. c #A56857",
"i. c #AD6B56",
"p. c #9C7B7D",
"a. c #906C68",
"s. c #A87965",
"d. c #C17747",
"f. c #C8675A",
"g. c #D36D5E",
"h. c #D1735A",
"j. c #C15E60",
"k. c #C66461",
"l. c #D56B63",
"z. c #DB7A6A",
"x. c #CC796E",
"c. c #E57966",
"v. c #8E8442",
"b. c #978944",
"n. c #A8984D",
"m. c #A58E49",
"M. c #B8A355",
"N. c #BD856F",
"B. c #D78952",
"V. c #C88C50",
"C. c #E3855D",
"Z. c #EC945B",
"A. c #C4A859",
"S. c #CA8F75",
"D. c #CD927A",
"F. c #D5977D",
"G. c #CB826E",
"H. c #ED8965",
"J. c #F38B66",
"K. c #F48969",
"L. c #FF9D6B",
"P. c #FC9966",
"I. c #F1937F",
"U. c #EC8A7A",
"Y. c #FFA56B",
"T. c #FFAD6C",
"R. c #FFA063",
"E. c #FFB16D",
"W. c #FFB96D",
"Q. c #FFB671",
"!. c #FFBD71",
"~. c #F0B36A",
"^. c #FFC272",
"/. c #FFCA76",
"(. c #FFC178",
"). c #FFD376",
"_. c #FFDC7A",
"`. c #F8D973",
"'. c #E4C869",
"]. c #545C84",
"[. c #565F89",
"{. c #566C94",
"}. c #527695",
"|. c #4E708E",
" X c #73798E",
".X c #606B97",
"XX c #66719E",
"oX c #68739F",
"OX c #787C92",
"+X c #6975A2",
"@X c #6D829E",
"#X c #7688A8",
"$X c #8896B5",
"%X c #8E94B4",
"&X c #D59D90",
"*X c #F79883",
"=X c #DCA494",
"-X c #DCA18F",
";X c #E9A689",
":X c #E7A589",
">X c #FBA38B",
",X c #F3AD8E",
"<X c #FFA98E",
"1X c #FFAD92",
"2X c #FFB395",
"3X c #FFB698",
"4X c #FFBC9C",
"5X c #FFC09E",
"6X c #FFC4A2",
"7X c #FFCAA6",
"8X c #FFCEA9",
"9X c #FFD2AD",
"0X c None",
/* pixels */
"0X0X0X0X0X0X0X0X0X0X0X0X0X0X0X0X0X0X0X0X0X0X0X0X0X0X0X0X0X0X0X0X0X0X0X0X0X0X0X0X0X0X0X0X0X0X0X0X0X0X",
"0X0X0X0X0X0X0X0X0X0X0X0X0X0X0X0X0X0X0X0X0X0X0X0X0X0X0X0X0X0X0X0X0X0X0X0X0X0X0X0X0X0X0X0X0X0X0X0X0X0X",
"0X0X0X0X0X0X0X0X0X0X0X0X0X0X0X0X0X0X0X0X0X0X0X0X0X0X0X0X0X0X0X0X0X0X0X0X0X0X0X0X0X0X0X0X0X0X0X0X0X0X",
"0X0X0X0X0X0X0X0X0X0X0X0X0X0X0X0X0X0X0X0X0X0X0X0X0X0X0X0X0X0X0X0X0X0X0X0X0X0X0X0X0X0X0X0X0X0X0X0X0X0X",
"0X0X0X0X0X0X0X0X0X0X0X0X0X0X0X0X0X0X0X0X0X0X0X0X0X0X0X0X0X0X0X0X0X0X0X0X0X0X0X0X0X0X0X0X0X0X0X0X0X0X",
"0X0X0X0X0X0X0X0X0X0X0X0X0X0X0X0X0X0X0X0X0X0X0X0X0X0X0X0X0X0X0X0X0X0X0X0X0X0X0X0X0X0X0X0X0X0X0X0X0X0X",
"0X0X0X0X0X0X0X0X0X0X0X0X0X0X0X0X0X0X0X0X0X0X0X0X0X0X0X0X0X0X0X0X0X0X0X0X0X0X0X0X0X0X0X0X0X0X0X0X0X0X",
"0X0X0X0X0X0X0X0X0X0X0X0X0X0X0X0X0X# 3.4.b.b.b.0 0X0X0X0X0X0X0X0X0X0X0X0X0X0X0X0X0X0X0X0X0X0X0X0X0X0X",
"0X0X0X0X0X0X0X0X0X0X0X0X0X0X0Xv.n.V._._./././.A.n.  0X0X0X0X0X0X0X0X0X0X0X0X0X0X0X0X0X0X0X0X0X0X0X0X",
"0X0X0X0X0X0X0X0X0X0X0X0X0X0Xv.^./._.^.W.T.T.T.^.^.V.b.0X0X0X0X0X0X0X0X0X0X0X0X0X0X0X0X0X0X0X0X0X0X0X",
"0X0X0X0X0X0X0X0X0X0X0X0X0X0XM.!.).W.E.E.E.E.E.T.T.H.E.3.  0X0X0X0X0X0X0X0X0X0X0X0X0X0X0X0X0X0X0X0X0X",
"0X0X0X0X0X0X0X0X0X0X0X0X0X0X# w '.Y.Y.T.T.J.l.h.q.3 , # W <.0X0X0X0X0X0X0X0X0X0X0X0X0X0X0X0X0X0X0X0X",
"0X0X0X0X0X0X0X0X0X0X0X0X0X0Xs.:XA > S g.l.0.V > 5 Z.R.E.v.v.~ 0X0X0X0X0X0X0X0X0X0X0X0X0X0X0X0X0X0X0X",
"0X0X0X0X0X0X0X0X0X0X0X0X0Xj $.#.D.;XD.V I > M.`.T.T.E./.v.Q m 0X0X0X0X0X0X0X0X0X0X0X0X0X0X0X0X0X0X0X",
"0X0X0X0X0X0X0X0X0X0X0X0X0Xs.;X .w M ,XN.( `.^.E.E.E.E./.m.0X0X0X0X0X0X0X0X0X0X0X0X0X0X0X0X0X0X0X0X0X",
"0X0X0X0X0X0X0X0X0X0X0X0Xq t./ M y.U A 7Xr.,.W.E.R.E.T.T.,.0X0X0X0X0X0X0X0X0X0X0X0X0X0X0X0X0X0X0X0X0X",
"0X0X0X0X0X0X0X0X0X0X0X0XE r.~.V.2 A J 8XN.>.R.E.l.T.T.L.U O 0X0X0X0X0X0X0X0X0X0X0X0X0X0X0X0X0X0X0X0X",
"0X0X0X0X0X0X0X0X0X0X0X0X: ( 2.h a.p.p.&X8X/ 1.P.z.T.T.K.U I =.~ 0X0X0X0X0X0X0X0X0X0X0X0X0X0X0X0X0X0X",
"0X0X0X0X0X0X0X0X0X0X0X0XP u.O...;Xq &X%.4XH U l.Y.T.J.l.I + 0.(.0 0X0X0X0X0X0X0X0X0X0X0X0X0X0X0X0X0X",
"0X0X0X0X0X0X0X0X0X0X0X0XK 1X9X&Xp.t.p.=XG.K V 9.Y.J.l.6.1 0Xl Y > 0X0X0X0X0X0X0X0X0X0X0X0X0X0X0X0X0X",
"0X0X0X0X0X0X0X0X0X0X0X0X@ S ^ ^ h 5X=X4XQ >.w.k h.j.6.1 0X0X0X0X0X0X0X0X0X0X0X0X0X0X0X0X0X0X0X0X0X0X",
"0X0X0X0X0X0X0X0X0X0X0XE V.d.y.y.y.S / q.W c.c.1 5.3 < 0X0X0X0X0X0X0X0X0X0X0X0X0X0X0X0X0X0X0X0X0X0X0X",
"0X0X0X0X0X0X0X0X0X0X0X! _.E.W.E.E.B.8.P C.k.j.5.6 S.s.0X0X0X0X0X0X0X0X0X0X0X0X0X0X0X0X0X0X0X0X0X0X0X",
"0X0X0X0X0X0X0X0X0X0X0X! ).Y.T.T.E.Q.T.R.T.H.w.6 S.6X4X:X;Xo.0X0X0X0X0X0X0X0X0X0X0X0X0X0X0X0X0X0X0X0X",
"0X0X0X0X0X0X0X0X0X0X0X( m.# B.E.E.E.T.T.P.l.0.7 ,X6X6X6X6X3X,XS . 0X0X0X0X0X0X0X0X0X0X0X0X0X0X0X0X0X",
"0X0X0X0X0X0X0X0X0X0X0X! ).P.T.E.E.E.Y.l.l.0.6 D.6X5X6X5X6X6X6X3X,X5 # 0X0X0X0X0X. 0X0X0X0X0X0X0X0X0X",
"0X0X0X0X0X0X0X0X0X0X0X~ ).T.E.E.T.E.H.7.j.B :.1X6X6X5X6X5X3X3X3X5X5X:X5 0X0X0X0XK . 0X0X0X0X0X0X0X0X",
"0X0X0X0X0X0X0X0X0X0X0XY W.T.T.E.Y.Y.6.7 7.l 6.1X6X6X6X5XG.e.e.9.>X2XF.u.O 0X0Xo c . 0X0X0X0X0X0X0X0X",
"0X0X0X0X0X0X0X0X0X0X0XW Q.T.E.P.q.J.] : V U z.3X6X6X8X*XU < 3 1 =.:.: x &.O O L O 0X0X0X0X0X0X0X0X0X",
"0X0X0X0X0X0X0X0X0X0X0Xm Z.Q.L.l.: 0.K l U z.3X6X6X6X6X>Xl.x.U.k.o   x K ,.&.z n o 0X0X0X0X0X0X0X0X0X",
"0X0X0X0X0X0X0X0X0X0X0X0XY E.H.j.o B < 5.z.U.5X6X6X6X4X*X1X6X7X*X> 0X0XO k &.&.. 0X0X0X0X0X0X0X0X0X0X",
"0X0X0X0X0X0X0X0X0X0X0X0X3 f.l.Z * @ o 3 K Z x.*X*X*X*X<X6X8X8Xs.o 0X0X0X0XO x O 0X0X0X0X0X0X0X0X0X0X",
"0X0X0X0X0X0X0X0X0X0X0X0X0X6 l . o o 0X0X  4 v B Z *X1X8XF.^ ^ n   0X0X0X0X: O 0X0X0X0X0X0X0X0X0X0X0X",
"0X0X0X0X0X0X0X0X0X0X0X0X0X0X0X0X0X0X0X0X  l N c n H E H Z x v *.o 0X0X0X: z O 0X0X0X0X0X0X0X0X0X0X0X",
"0X0X0X0X0X0X0X0X0X0X0X0X0X0X0X0X0X0X0X0X0X  l Z Z K b b L -.-.3 0X0X0X0X, z 0X0X0X0X0X0X0X0X0X0X0X0X",
"0X0X0X0X0X0X0X0X0X0X0X0X0X0X0X0X0X0X0X0X0X9 8   . B B K n o o e 0X0X0X: x . 0X0X0X0X0X0X0X0X0X0X0X0X",
"0X0X0X0X0X0X0X0X0X0X0X0X0X0X0X0X0X0X0X0X0XT R p p     . - p p i 0X0XO *.x 0X0X0X0X0X0X0X0X0X0X0X0X0X",
"0X0X0X0X0X0X0X0X0X0X0X0X0X0X0X0X0X0X0X0X0Xf [ ) i = = e i s s i   . L K 0X0X0X0X0X0X0X0X0X0X0X0X0X0X",
"0X0X0X0X0X0X0X0X0X0X0X0X0X0X0X0X0X0X0X0X0X  a ) e - u s s ) i $   t   0X0X0X0X0X0X0X X- 0X0X0X0X0X0X",
"0X0X0X0X0X0X0X0X0X0X0X0X0X0X0X0X0X0X0X0X0X0Xa u % 8 } [ s i $ t _ | p 0X0X0X0X0X0X0X|. X0X0X0X0X0X0X",
"0X0X0X0X0X0X0X0X0X0X0X0X0X0X0X0X0X0X0X0X0X0Xa y = } { ) i X & ' +..X` X 0X0X0X0X0X% |. X0X0X0X0X0X0X",
"0X0X0X0X0X0X0X0X0X0X0X0X0X0X0X0X0X0X0X0X0X0Xa ; } { ) i $ 0X0Xr @.[..X` % 0X0X0X% | }. X0X0X0X0X0X0X",
"0X0X0X0X0X0X0X0X0X0X0X0X0X0X0X0X0X0X0X0X0X0Xy - T y = = 0X0X0X0Xr r [.{.@._ 0X& | XX}.OX0X0X0X0X0X0X",
"0X0X0X0X0X0X0X0X0X0X0X0X0X0X0X0X0X0X0X0X0X0X  D 2 2 +   0X0X0X0X0X  j @.oX[.+.+..X}.@X .0X0X0X0X0X0X",
"0X0X0X0X0X0X0X0X0X0X0X0X0X0X0X0X0X0X0X0X0X0X0X* G ] D   * 0X0X0X0X0X  r @.oXoXoX{.@X .0X0X0X0X0X0X0X",
"0X0X0X0X0X0X0X0X0X0X0X0X0X0X0X0X0X0X0X0X0X0X0X  F G * D F + 0X0X0X0X0X  | oX{.#X#X .0X0X0X0X0X0X0X0X",
"0X0X0X0X0X0X0X0X0X0X0X0X0X0X0X0X0X0X0X0X0X0X0X0XF F   2 ] 2 0X0X0X0Xe OX$X%X$X..j 0X0X0X0X0X0X0X0X0X",
"0X0X0X0X0X0X0X0X0X0X0X0X0X0X0X0X0X0X0X0X0X0X0X0XF F   0X.   0X0X0X0X0Xg g g j 0X0X0X0X0X0X0X0X0X0X0X",
"0X0X0X0X0X0X0X0X0X0X0X0X0X0X0X0X0X0X0X0X0X0X0X0XD D 0X0X0X0X0X0X0X0X0X0X0X0X0X0X0X0X0X0X0X0X0X0X0X0X",
"0X0X0X0X0X0X0X0X0X0X0X0X0X0X0X0X0X0X0X0X0X0X0X0X0X0X0X0X0X0X0X0X0X0X0X0X0X0X0X0X0X0X0X0X0X0X0X0X0X0X"
};
