/* XPM */
static char *_f3fb1216ffe4971d60fca3da8029423didZMujROFZEeuHS[] = {
/* columns rows colors chars-per-pixel */
"50 50 211 2 ",
"   c None",
".  c #010101",
"X  c #0C0302",
"o  c #020509",
"O  c #090C0B",
"+  c #140404",
"@  c #1C0505",
"#  c #17070A",
"$  c #001709",
"%  c #1C110B",
"&  c #030511",
"*  c #080B17",
"=  c #0D1214",
"-  c #05131B",
";  c #13121C",
":  c #15191D",
">  c #220504",
",  c #210B0B",
"<  c #2C0A08",
"1  c #2B0A02",
"2  c #340E0C",
"3  c #390D0C",
"4  c #281608",
"5  c #37140B",
"6  c #2A0D13",
"7  c #240C11",
"8  c #2D1216",
"9  c #341413",
"0  c #3B1519",
"q  c #3B241C",
"w  c #0F1B24",
"e  c #1B1C22",
"r  c #181A2A",
"t  c #1B1E33",
"y  c #3D1F28",
"u  c #13232C",
"i  c #1B2D39",
"p  c #142E38",
"a  c #1B323E",
"s  c #003735",
"d  c #23212A",
"f  c #252737",
"g  c #302D35",
"h  c #451513",
"j  c #4E1914",
"k  c #471A1A",
"l  c #571C17",
"z  c #4D1A0A",
"x  c #4C281A",
"c  c #4F321B",
"v  c #63221C",
"b  c #6A2617",
"n  c #742B17",
"m  c #66270F",
"M  c #481D22",
"N  c #4D2123",
"B  c #45252A",
"V  c #562627",
"C  c #553529",
"Z  c #4B2632",
"A  c #562D3A",
"S  c #5C3838",
"D  c #692A29",
"F  c #792C2A",
"G  c #67342B",
"H  c #7A312E",
"J  c #683A33",
"K  c #753735",
"L  c #692E35",
"P  c #005D38",
"I  c #006038",
"U  c #5B4B29",
"Y  c #684A2A",
"T  c #744527",
"R  c #644736",
"E  c #6A5431",
"W  c #7B7539",
"Q  c #1C3441",
"!  c #1A3C42",
"~  c #282B48",
"^  c #3E3E49",
"/  c #343757",
"(  c #2A314C",
")  c #363D60",
"_  c #00534C",
"`  c #2F4456",
"'  c #006743",
"]  c #006153",
"[  c #3D4366",
"{  c #2A4C65",
"}  c #49404D",
"|  c #7A5647",
" . c #494B69",
".. c #484E74",
"X. c #525473",
"o. c #63596E",
"O. c #736374",
"+. c #83321C",
"@. c #8A332A",
"#. c #983A27",
"$. c #9A3934",
"%. c #833F39",
"&. c #874439",
"*. c #8B5432",
"=. c #935A35",
"-. c #B94A33",
";. c #B24531",
":. c #9C633A",
">. c #867C3D",
",. c #856836",
"<. c #A9673D",
"1. c #843D45",
"2. c #8B4144",
"3. c #994A49",
"4. c #875D4B",
"5. c #855B4B",
"6. c #92534F",
"7. c #A54E53",
"8. c #AB5355",
"9. c #BC5C5D",
"0. c #B25558",
"q. c #A85449",
"w. c #996A57",
"e. c #8D7448",
"r. c #B46945",
"t. c #BA7546",
"y. c #A2725D",
"u. c #AD6C51",
"i. c #8E7076",
"p. c #A97A67",
"a. c #B77A65",
"s. c #A17C7B",
"d. c #C57B4A",
"f. c #CA675C",
"g. c #D47659",
"h. c #CA6861",
"j. c #D36B63",
"k. c #D76C62",
"l. c #D27A6B",
"z. c #E57A65",
"x. c #E57966",
"c. c #978944",
"v. c #9E914B",
"b. c #AA914B",
"n. c #B6A555",
"m. c #B68169",
"M. c #B9887A",
"N. c #D59054",
"B. c #E3895A",
"V. c #E79359",
"C. c #F1975C",
"Z. c #C5A859",
"A. c #C6B55D",
"S. c #D3AA5C",
"D. c #F1A05F",
"F. c #D68474",
"G. c #D39479",
"H. c #EC8365",
"J. c #FD9469",
"K. c #FD9C68",
"L. c #EF917E",
"P. c #F5947A",
"I. c #EC8B74",
"U. c #D0BC61",
"Y. c #CEBC60",
"T. c #FFAD6C",
"R. c #FCA767",
"E. c #FFB16D",
"W. c #FFB86F",
"Q. c #FFB571",
"!. c #FFBD72",
"~. c #FFAF70",
"^. c #DDC868",
"/. c #EBCD6D",
"(. c #EAD46E",
"). c #FFC473",
"_. c #FFCA73",
"`. c #FFD777",
"'. c #FFE87B",
"]. c #3A6080",
"[. c #545C84",
"{. c #5A638E",
"}. c #5D6792",
"|. c #537194",
" X c #4A6C8F",
".X c #646E9B",
"XX c #606995",
"oX c #68739F",
"OX c #687388",
"+X c #6F78A3",
"@X c #9A7B80",
"#X c #7C8BA5",
"$X c #BB8D87",
"%X c #8E9CBA",
"&X c #949BB6",
"*X c #DC9C81",
"=X c #FA9C86",
"-X c #F59782",
";X c #DCA394",
":X c #E9A689",
">X c #FFA48B",
",X c #E7AA96",
"<X c #FBAD91",
"1X c #FFBC9C",
"2X c #F8B397",
"3X c #FFBFA0",
"4X c #FFC09F",
"5X c #FFC4A2",
"6X c #FFC9A6",
"7X c #FFCDA9",
"8X c #FFD3AD",
/* pixels */
"                                                                                                    ",
"                                                                                                    ",
"                                                                                                    ",
"                                                                                                    ",
"                                                O ^.(.(./.K.d..                                     ",
"                                            . U./.W.W.E.!.'.`.R.(.v.                                ",
"                                        . Z.D.E.W.E.E.E.E.E.).`.W.).c.                              ",
"                                        d.E.H.T.E.E.E.E.E.T.E.).`._.v.                              ",
"                                  . r.5 % 4 , 8.x.x.z.T.E.E.E.).A.4 %                               ",
"                                  v.Y n.V.B.B.6 @ 6 8.x.x.f.4 4 R :X4.                              ",
"                                  N.x A.).E.E.V.U.A., 9 3.B *X*XM.o. .w                             ",
"                                  4 . A.!.T.E.E.!.).A.n.q :X:Xq g O.2X5.                            ",
"                                & * . N.Q.E.E.E.T.E.E.U G.:XC r.:.o y.y.                            ",
"                                * & . r.T.E.T.H.T.E.K.% 5XG.. 9 T N.e.5.4.                          ",
"                                . K , 3.R.E.T.9.T.R.G G.5X,X} p.t :._.e.%                           ",
"                              >.u.0.6 q.z.T.E.J.H.g., 5X2Xi.M.| s.d c Y x                           ",
"                              t.J.D . 2.j.z.T.T.k.7.+ L.,Xo.G.x ;X .m.l.K                           ",
"                              x x @   6 3.j.H.T.9.0 K G 1X$Xi.p.@X2X8X<XK                           ",
"                                        8 7.9.z.N &.B.+ -X3X,X*X; R S C +                           ",
"                                          9 0 7.X f.H.<.G F.R E <.<.r.r.b.E                         ",
"                                            . 6 L f.9.H.=.V :.d.!.C.T T Z.>.                        ",
"                                        4.y.y.w.V 0.f.J.R.t.Q.Q.V.c # . W >.        l n +           ",
"                                    | w.2X6X6X4XX 7.k.J.E.Q.T.Q.t.. + . W >.    z m #.-.>           ",
"                                R 4.<X7X5X5X5X1Xw.V 9.k.H.J.E.E.C.=.=.=.S.>.1 m #.-.v 3 +           ",
"              @ 3           S 4.:X7X6X5X5X5X5X5X4XK V 9.h.j.E.E.E.Q.Q.Q.`.W l -.b 3 +               ",
"              < v         C :X8X6X>X=X=X=X4X5X5X1Xf.X 7.8.K J.E.E.E.E.T.).,.+ h @                   ",
"              @ j <     1 r.a.F.>X6.D D G l.1X5X1Xf.N V 1.# j.T.K.E.E.E.E.*.                        ",
"                < F > 1 +.;.b V G M N k 0 7.2X5X4XL.0.M k + 9.g.3.K.E.E.!.*.                        ",
"                @ j j +.;.D j k J a.-XI.F.k.1X5X5X5XL.0.V M K 2.9 x.K.E.V.C                         ",
"                  X +.@.j @ , h.5X6X5X6X6X-X=X5X5X5X>Xx.h.V + 0 9 h.H.~.&.                          ",
"                  1 n > . . k w.p.<X6X6X5X5XL.=X>X=X&.%.K       , 1.x.g.k                           ",
"                  . X + . 5 2 > > 5.p.p.1X6X6XL.&.K < . .         , K V                             ",
"                    2 j X z #.$.$.h > > w.m.m.p.2 < D 6                                             ",
"                      h j . 0 v l @.$.$.3 @ > > F F 0 .                                             ",
"                      2 h : - o o k v v F H H F 8 6 7 .                                             ",
"                        h l ; p Q - o o 7 6 6 6 o o o $                                             ",
"                        2 @.l ; i Q Q Q * o o o a Q ! ' $                                           ",
"            d             2 F 6 - u i a a Q Q a a a Q _ ' $                                         ",
"          ` OX                t ; . w a a a a a a a a Q _ ' $                                       ",
"        e %X{                 [ / ( * w a a a i i i i i Q ] I                                       ",
"        e %X{               ~ {.X.) ~ o u i i : = = = : p ] P                                       ",
"        e %X].(           f {.XX}./ o O = = = = .   . = O _ P                                       ",
"        e %X X}.~     t [ [..X/ ~ & O .               . Z O s                                       ",
"        e #X|..X[.( ( ..oX.X..* .                     + A B .                                       ",
"          d #X|..X.X.X.X.X[ &                         A A y                                         ",
"            f #X|.oX.XoX..* .                         A Z .                                         ",
"              g &X#X|.+XX.r                           Z B                                           ",
"                . ^ &X&X&X&X^                                                                       ",
"                # y . . . .                                                                         ",
"                # S 8                                                                               "
};
