/* XPM */
static char *b7a3d80635d9488dca421eb69f46701cJmPc9nAzbfolcQM0[] = {
/* columns rows colors chars-per-pixel */
"50 50 195 2 ",
"   c None",
".  c #030303",
"X  c #090505",
"o  c #080809",
"O  c #140B0B",
"+  c #140A08",
"@  c #16110C",
"#  c #1B130D",
"$  c #090D13",
"%  c #0C1115",
"&  c #031B13",
"*  c #0D181A",
"=  c #11191B",
"-  c #171617",
";  c #260F0E",
":  c #28100E",
">  c #2A151A",
",  c #2C1B1B",
"<  c #271815",
"1  c #33161B",
"2  c #35191B",
"3  c #391A18",
"4  c #250E14",
"5  c #012818",
"6  c #2F2117",
"7  c #352918",
"8  c #141B24",
"9  c #3A1E27",
"0  c #14262D",
"q  c #013721",
"w  c #172A33",
"e  c #1A2F3A",
"r  c #182932",
"t  c #1B313D",
"y  c #16373B",
"u  c #3B2923",
"i  c #2A2C32",
"p  c #411C1B",
"a  c #541F1B",
"s  c #43201F",
"d  c #56201B",
"f  c #7F341C",
"g  c #411B22",
"h  c #46252A",
"j  c #542C2A",
"k  c #582928",
"l  c #473627",
"z  c #54362A",
"x  c #592F3C",
"c  c #562D3A",
"v  c #4E3B30",
"b  c #5B303D",
"n  c #523E34",
"m  c #672724",
"M  c #742C28",
"N  c #772C28",
"B  c #62312D",
"V  c #622E34",
"C  c #6E343B",
"Z  c #753C3B",
"A  c #753A3B",
"S  c #5A4338",
"D  c #484223",
"F  c #775233",
"G  c #766C3B",
"H  c #143B44",
"J  c #282B46",
"K  c #2C2E4B",
"L  c #262842",
"P  c #2F3353",
"I  c #343A5A",
"U  c #333549",
"Y  c #373F61",
"T  c #7E3B42",
"R  c #024A47",
"E  c #094748",
"W  c #154041",
"Q  c #02514D",
"!  c #3E424C",
"~  c #006C4A",
"^  c #02664F",
"/  c #017A49",
"(  c #007345",
")  c #3B4265",
"_  c #454356",
"`  c #6C5244",
"'  c #725847",
"]  c #454968",
"[  c #4D547B",
"{  c #5D5666",
"}  c #675D6B",
"|  c #756772",
" . c #85312C",
".. c #8A332D",
"X. c #9A3B2D",
"o. c #8C463F",
"O. c #AA4525",
"+. c #92643E",
"@. c #843E45",
"#. c #954949",
"$. c #9D4952",
"%. c #A44D56",
"&. c #A55254",
"*. c #AB5354",
"=. c #AB5655",
"-. c #BB5B5D",
";. c #B55A59",
":. c #AC564F",
">. c #856554",
",. c #887E43",
"<. c #A97548",
"1. c #B47A4D",
"2. c #BF605C",
"3. c #817078",
"4. c #937C7F",
"5. c #C4625D",
"6. c #CC685F",
"7. c #C8695D",
"8. c #D0685F",
"9. c #CD6A61",
"0. c #C96763",
"q. c #D26761",
"w. c #D46B62",
"e. c #DC7A63",
"r. c #D87368",
"t. c #C37671",
"y. c #E07E65",
"u. c #948948",
"i. c #B7804E",
"p. c #B2A456",
"a. c #A9816B",
"s. c #B38973",
"d. c #DD995F",
"f. c #CC8A57",
"g. c #DC8864",
"h. c #DF9C60",
"j. c #DD8B78",
"k. c #E38366",
"l. c #E88B67",
"z. c #EC9568",
"x. c #F19B6A",
"c. c #E28978",
"v. c #E9947F",
"b. c #CABB63",
"n. c #EAAA66",
"m. c #F1A567",
"M. c #F5AA69",
"N. c #FDAE6D",
"B. c #FAA56C",
"V. c #FFB16D",
"C. c #F7BA6E",
"Z. c #FEBD70",
"A. c #FFB470",
"S. c #D5C368",
"D. c #F3C06E",
"F. c #EECD70",
"G. c #FEC773",
"H. c #EDDC74",
"J. c #FCD475",
"K. c #FED977",
"L. c #FEDB78",
"P. c #F3D774",
"I. c #FFEA7C",
"U. c #F7E478",
"Y. c #575E88",
"T. c #456C8A",
"R. c #59628C",
"E. c #4D6E91",
"W. c #546E94",
"Q. c #4C7191",
"!. c #636D9A",
"~. c #626B97",
"^. c #66709D",
"/. c #758AA6",
"(. c #82899F",
"). c #B49186",
"_. c #8E99B3",
"`. c #9BA2BD",
"'. c #C49A88",
"]. c #ED9C86",
"[. c #D8A588",
"{. c #E6A98D",
"}. c #F2A78D",
"|. c #E3AF93",
" X c #F2AC91",
".X c #EDB495",
"XX c #EDB698",
"oX c #F3B496",
"OX c #F4BB9A",
"+X c #FCBE9E",
"@X c #FEC09F",
"#X c #FFC3A1",
"$X c #FFCCA8",
"%X c #9DA5C0",
"&X c #A1A7C2",
/* pixels */
"                                                                                                    ",
"                                                                                                    ",
"                                                                                                    ",
"                                                                                                    ",
"                                                  I.I.I.G.V.                                        ",
"                                              H.I.V.V.V.J.I.Z.I.b.                                  ",
"                                          u.G.N.V.V.V.V.V.V.L.Z.G.U.                                ",
"                                          m.g.z.N.N.N.V.V.V.V.L.C.H.                                ",
"                                    7 i.@ # @ Z 7.6.y.N.N.M.M.S.< #                                 ",
"                                    S.D F.m.M.z O , &.8.w.j @ u |.s.                                ",
"                                    h.l K.N.V.M.P.b.# j j a..X'.] ]                                 ",
"                                        K.N.V.V.V.Z.U.,.>.OXl - { XXXX                              ",
"                                        V.V.V.N.N.V.i.` #XS #.f.@ ' a.                              ",
"                                        k.V.V.k.B.V.<.` $Xn + 6 n.u.>.                              ",
"                                    *.2 e.V.V.7.x.f.n +X#X| )._ l D.G                               ",
"                                I.g.#.2 q.l.V.N.e.:.v #X4.).v '.U @ Z                               ",
"                                V.e.2   =.w.z.N.r.@.s v.4.).v '.| OXc.                              ",
"                                        g ;.w.x.&.p o.` #X3.'.} |.OXj.                              ",
"                                          V $.5.3 7.1.k ].XX|., # # #                               ",
"                                            @ A 2 5.k.+.Z z < d.m.m.m.J.                            ",
"                                          [.OXS T 5.;.l.F <.M.N.V.V.N.K.                            ",
"                                      #X#X#X#XOXu $.e.N.M.N.V.V.V.N.m.J.                            ",
"                                  +X#X#X#X#X#X+Xu #.q.l.N.N.V.V.A.<.+ p.                            ",
"                              oX#X#X#X#X#X#X#X#X|.u &.w.w.x.V.V.V.N.m.J.                            ",
"                ..          #X#X@X+X+X+X#X#X#X#X+X=.2 -.;.g.V.V.V.V.N.K.                            ",
"                 .        .XOX@Xj.6.6.r.+X#X#X#X+X;.2 %.h #.B.N.V.V.V.V.                            ",
"                a       O.@ j r.k + + > t.#X#X#X+Xr.A h h C z.e.N.V.V.V.                            ",
"                  ..d O.X. .N   $.2.&.&.c.#X#X#X#XoX0.V X C 5.3 e.N.V.N.                            ",
"                  + f X...      w.}.+X Xc.#X#X#X#X#X}.8.*.2 A > 6.k.V.1.                            ",
"                  O.X.p         .X+X#X#X}.v.@X+X+XoX9.q.B 4 O O %.k.l.                              ",
"                    +           O s.OXOX#X].r.9.9.:.O +   . 1 1 1 -.Z                               ",
"                     .3         ..3 + l .XoXoXv X : m 1                                             ",
"                       .        ......M O O O m  .N 1 .                                             ",
"                      ..        X m .... . . .k g 1 o                                               ",
"                         .      e % X ; M g g O . & (                                               ",
"                        ....    t t t r X . . 0 e y /                                               ",
"                        : ..N   w t t t r = = w t W /                                               ",
"            `.              - 8 . 0 t t t 0 = = e R                                                 ",
"          `.Q.              K P L % r t H ^ q % 8 Q                                                 ",
"          `.T.              [ [ I J $ e t E ~ 5 * Q                                                 ",
"          %XT.)           ] !.!.)     $ t t E ~ & R                                                 ",
"          %XQ.R.I     Y ) !.[ P L       % e E ~ & R                                                 ",
"          `.Q.!.[ J K Y.!.R.J             . o o h o                                                 ",
"            _.E.!.~.~.!.R.J               > x c c                                                   ",
"            i /.E.^.!.!.K o           > 9 > b x O                                                   ",
"              ! &X/.W.!.P             x b , 9 b                                                     ",
"                  (.%X%X`.`.          b h   x b                                                     ",
"                                            b b                                                     ",
"                                            x b                                                     ",
"                                                                                                    "
};
